<?xml version="1.0" encoding="UTF-8"?>
<svg id="_レイヤー_2" data-name="レイヤー_2" xmlns="http://www.w3.org/2000/svg" viewBox="0 0 254 54.66">
  <defs>
    <style>
      .cls-1 {
        fill: #ee5a24;
      }

      .cls-2 {
        fill: #094a75;
        font-family: TsukuARdGothicStd-B-90ms-RKSJ-H, 'FOT-TsukuARdGothic Std';
        font-size: 24.01px;
      }

      .cls-3 {
        fill: #183e6a;
      }

      .cls-4 {
        letter-spacing: .04em;
      }

      .cls-5 {
        letter-spacing: .02em;
      }
    </style>
  </defs>
  <g id="_レイヤー_1-2" data-name="レイヤー_1">
    <g>
      <g>
        <g>
          <path class="cls-3" d="M12.11,54.66c-1.26,0-2.1-.28-2.92-.56-1.03-.35-2-.67-3.86-.41-.28.04-.53-.15-.56-.43-.04-.27.15-.53.43-.56,2.09-.29,3.23.09,4.32.46,1.03.35,2.01.68,3.86.41,1.86-.26,2.7-.84,3.6-1.46.95-.66,1.93-1.34,4.03-1.63,2.09-.29,3.22.09,4.32.46,1.03.35,2,.67,3.86.41,1.86-.26,2.7-.84,3.6-1.46.95-.66,1.93-1.33,4.03-1.63,2.09-.29,3.22.09,4.32.46,1.03.35,2,.67,3.86.41,1.86-.26,2.7-.84,3.6-1.46.95-.66,1.93-1.33,4.02-1.63,2.09-.29,3.22.09,4.32.46,1.03.35,2,.68,3.86.41.28-.04.53.15.56.43.04.27-.15.53-.43.56-2.09.29-3.22-.09-4.32-.46-1.03-.35-2-.67-3.86-.41-1.86.26-2.7.84-3.6,1.46-.95.66-1.93,1.33-4.02,1.63-2.09.29-3.23-.09-4.32-.46-1.03-.35-2-.68-3.86-.41-1.86.26-2.7.84-3.6,1.46-.95.66-1.93,1.33-4.03,1.63-2.1.29-3.23-.09-4.32-.46-1.03-.35-2-.67-3.86-.41-1.86.26-2.71.84-3.6,1.46-.95.66-1.93,1.33-4.03,1.63-.52.07-.98.1-1.4.1Z"/>
          <g>
            <path class="cls-3" d="M10.37,35.9l-1.88-10.21,29.06-5.35,1.88,10.21-29.06,5.35ZM9.65,26.48l1.52,8.25,27.1-4.99-1.52-8.25-27.1,4.99Z"/>
            <path class="cls-3" d="M14.72,25.55l-1.44-7.84,16.46-3.03,1.44,7.84-16.46,3.03ZM14.44,18.51l1.08,5.87,14.49-2.67-1.08-5.87-14.49,2.67Z"/>
            <path class="cls-3" d="M16.43,53.3C8.17,51.89,1.61,45.41.09,37.17l-.09-.49,62.47-11.51.09.49c1.59,8.65-2.76,17.48-10.59,21.47l-.45-.89c7.29-3.72,11.41-11.85,10.14-19.91L1.17,37.48c1.61,7.59,7.75,13.52,15.42,14.83l-.17.99Z"/>
          </g>
        </g>
        <g>
          <circle class="cls-1" cx="41.06" cy="14.41" r="3.94"/>
          <rect class="cls-1" x="39.39" y="3.96" width="8.75" height=".75" transform="translate(27.96 45.37) rotate(-74.59)"/>
          <rect class="cls-1" x="37.6" y="-.05" width=".75" height="8.75" transform="translate(.13 9.69) rotate(-14.57)"/>
          <rect class="cls-1" x="32.59" y="2.84" width=".75" height="8.75" transform="translate(4.42 25.21) rotate(-44.57)"/>
          <rect class="cls-1" x="32.59" y="2.84" width=".75" height="8.75" transform="translate(4.42 25.21) rotate(-44.57)"/>
          <rect class="cls-1" x="47.65" y="17.45" width=".75" height="8.75" transform="translate(-1.5 39.98) rotate(-44.57)"/>
          <rect class="cls-1" x="29.69" y="7.85" width=".75" height="8.75" transform="translate(10.28 37.95) rotate(-74.57)"/>
          <rect class="cls-1" x="51.29" y="13.66" width=".75" height="8.75" transform="translate(20.53 63.03) rotate(-74.57)"/>
          <rect class="cls-1" x="47.29" y="11.87" width="8.75" height=".75" transform="translate(-1.42 13.38) rotate(-14.56)"/>
          <rect class="cls-1" x="44.4" y="6.86" width="8.75" height=".75" transform="translate(8.96 36.31) rotate(-44.58)"/>
          <rect class="cls-1" x="39.39" y="3.96" width="8.75" height=".75" transform="translate(27.96 45.37) rotate(-74.59)"/>
        </g>
      </g>
      <text class="cls-2" transform="translate(81.83 40.95)"><tspan class="cls-5" x="0" y="0">ふな</tspan><tspan class="cls-4" x="49.23" y="0">で</tspan><tspan class="cls-5" x="74.32" y="0">でざいん</tspan></text>
    </g>
  </g>
</svg>