<?xml version="1.0" encoding="UTF-8"?>
<svg id="_レイヤー_2" data-name="レイヤー_2" xmlns="http://www.w3.org/2000/svg" viewBox="0 0 253.86 54.63">
  <defs>
    <style>
      .cls-1 {
        letter-spacing: .02em;
      }

      .cls-2 {
        fill: #ee5a24;
      }

      .cls-3 {
        fill: #183e6a;
      }

      .cls-4 {
        letter-spacing: .05em;
      }

      .cls-5 {
        fill: #fff;
        font-family: TsukuARdGothicStd-B-90ms-RKSJ-H, 'FOT-TsukuARdGothic Std';
        font-size: 24px;
      }
    </style>
  </defs>
  <g id="_レイヤー_1-2" data-name="レイヤー_1">
    <g>
      <g>
        <g>
          <path class="cls-3" d="M12.11,54.63c-1.25,0-2.1-.28-2.92-.56-1.03-.35-2-.67-3.86-.41-.28.04-.53-.15-.56-.43-.04-.27.15-.53.43-.56,2.09-.29,3.22.09,4.32.46,1.03.35,2,.67,3.86.41,1.86-.26,2.7-.84,3.6-1.46.95-.66,1.93-1.33,4.03-1.63,2.09-.29,3.22.09,4.32.46,1.03.35,2,.67,3.86.41,1.86-.26,2.7-.84,3.6-1.46.95-.66,1.93-1.33,4.03-1.63,2.09-.29,3.22.09,4.32.46,1.03.35,2,.68,3.86.41,1.86-.26,2.7-.84,3.59-1.46.95-.66,1.93-1.33,4.02-1.63,2.09-.29,3.22.09,4.32.46,1.03.35,2,.67,3.86.41.27-.04.53.15.56.43.04.27-.15.53-.43.56-2.09.29-3.22-.09-4.32-.46-1.03-.35-2-.68-3.86-.41-1.86.26-2.7.84-3.59,1.46-.95.66-1.93,1.33-4.02,1.63-2.09.29-3.22-.09-4.32-.46-1.03-.35-2-.68-3.86-.41-1.86.26-2.7.84-3.6,1.46-.95.66-1.93,1.33-4.03,1.63-2.09.29-3.22-.09-4.32-.46-1.03-.35-2-.68-3.86-.41-1.86.26-2.7.84-3.6,1.46-.95.66-1.93,1.34-4.03,1.63-.52.07-.98.1-1.4.1Z"/>
          <g>
            <path class="cls-3" d="M10.36,35.88l-1.88-10.21,29.05-5.35,1.88,10.21-29.05,5.35ZM9.65,26.47l1.52,8.24,27.08-4.99-1.52-8.24-27.08,4.99Z"/>
            <path class="cls-3" d="M14.71,25.54l-1.44-7.84,16.45-3.03,1.44,7.84-16.45,3.03ZM14.44,18.5l1.08,5.87,14.48-2.67-1.08-5.87-14.48,2.67Z"/>
            <path class="cls-3" d="M16.42,53.27C8.17,51.86,1.61,45.38.09,37.15l-.09-.49,62.43-11.5.09.49c1.59,8.64-2.76,17.47-10.58,21.46l-.45-.89c7.28-3.72,11.4-11.84,10.14-19.9L1.17,37.46c1.61,7.59,7.74,13.51,15.41,14.82l-.17.99Z"/>
          </g>
        </g>
        <g>
          <circle class="cls-2" cx="41.04" cy="14.4" r="3.93"/>
          <rect class="cls-2" x="39.37" y="3.95" width="8.74" height=".75" transform="translate(27.94 45.35) rotate(-74.59)"/>
          <rect class="cls-2" x="37.58" y="-.05" width=".75" height="8.74" transform="translate(.13 9.69) rotate(-14.57)"/>
          <rect class="cls-2" x="32.57" y="2.84" width=".75" height="8.74" transform="translate(4.41 25.19) rotate(-44.57)"/>
          <rect class="cls-2" x="32.57" y="2.84" width=".75" height="8.74" transform="translate(4.41 25.19) rotate(-44.57)"/>
          <rect class="cls-2" x="47.62" y="17.44" width=".75" height="8.74" transform="translate(-1.5 39.96) rotate(-44.57)"/>
          <rect class="cls-2" x="29.67" y="7.85" width=".75" height="8.74" transform="translate(10.27 37.93) rotate(-74.57)"/>
          <rect class="cls-2" x="51.26" y="13.65" width=".75" height="8.74" transform="translate(20.52 63) rotate(-74.57)"/>
          <rect class="cls-2" x="47.27" y="11.86" width="8.74" height=".75" transform="translate(-1.42 13.38) rotate(-14.56)"/>
          <rect class="cls-2" x="44.38" y="6.85" width="8.74" height=".75" transform="translate(8.95 36.3) rotate(-44.58)"/>
          <rect class="cls-2" x="39.37" y="3.95" width="8.74" height=".75" transform="translate(27.94 45.35) rotate(-74.59)"/>
        </g>
      </g>
      <text class="cls-5" transform="translate(81.78 40.93)"><tspan class="cls-1" x="0" y="0">ふな</tspan><tspan class="cls-4" x="49.2" y="0">で</tspan><tspan class="cls-1" x="74.28" y="0">でざいん</tspan></text>
    </g>
  </g>
</svg>