<?xml version="1.0" encoding="UTF-8"?>
<svg id="_レイヤー_2" data-name="レイヤー_2" xmlns="http://www.w3.org/2000/svg" viewBox="0 0 139.67 30.63">
  <defs>
    <style>
      .cls-1 {
        fill: #003f6d;
        font-family: TsukuARdGothicStd-B-90ms-RKSJ-H, 'FOT-TsukuARdGothic Std';
        font-size: 13.49px;
      }

      .cls-2 {
        fill: #ee5a24;
      }

      .cls-3 {
        fill: #183e6a;
      }

      .cls-4 {
        letter-spacing: .04em;
      }

      .cls-5 {
        letter-spacing: .03em;
      }
    </style>
  </defs>
  <g id="_レイヤー_1-2" data-name="レイヤー_1">
    <g>
      <g>
        <g>
          <path class="cls-3" d="M6.69,30.63c-.65,0-1.1-.13-1.54-.25-.58-.17-1.13-.32-2.19-.18-.14.01-.26-.08-.28-.21-.02-.14.08-.26.21-.28,1.16-.16,1.79.02,2.4.19.58.17,1.13.32,2.19.18,1.06-.15,1.54-.45,2.06-.77.53-.33,1.09-.68,2.25-.84,1.16-.16,1.79.02,2.39.19.58.17,1.13.32,2.19.18,1.06-.15,1.54-.45,2.05-.77.53-.33,1.08-.68,2.25-.84,1.17-.16,1.79.02,2.39.19.58.17,1.13.33,2.18.18,1.06-.15,1.54-.45,2.05-.77.53-.33,1.08-.68,2.25-.84,1.17-.16,1.79.02,2.39.19.58.17,1.13.32,2.18.18.13-.02.26.08.28.21.02.14-.08.26-.21.28-1.16.16-1.79-.02-2.39-.19-.58-.17-1.12-.32-2.18-.18-1.06.15-1.54.45-2.05.77-.53.33-1.08.68-2.25.84-1.16.16-1.79-.02-2.39-.19-.58-.17-1.13-.32-2.18-.18-1.06.15-1.54.45-2.05.77-.53.33-1.08.68-2.25.84-1.16.16-1.79-.02-2.39-.19-.58-.17-1.13-.33-2.19-.18-1.06.15-1.54.45-2.05.77-.54.33-1.09.68-2.25.84-.32.05-.6.06-.86.06Z"/>
          <g>
            <path class="cls-3" d="M5.82,20.14l-1.05-5.68,16.27-3,1.05,5.68-16.27,3ZM5.35,14.87l.86,4.69,15.29-2.82-.86-4.69-15.29,2.82Z"/>
            <path class="cls-3" d="M8.26,14.33l-.8-4.34,9.18-1.69.8,4.34-9.18,1.69ZM8.04,10.39l.62,3.36,8.2-1.51-.62-3.36-8.2,1.51Z"/>
            <path class="cls-3" d="M9.2,29.92C4.57,29.13.9,25.5.04,20.89l-.04-.25,35.03-6.45.05.25c.89,4.85-1.55,9.79-5.93,12.03l-.23-.45c4.12-2.1,6.44-6.7,5.71-11.25L.58,21.04c.9,4.29,4.36,7.65,8.7,8.39l-.08.49Z"/>
          </g>
        </g>
        <g>
          <circle class="cls-2" cx="23.03" cy="8.11" r="2.21"/>
          <rect class="cls-2" x="22.1" y="2.19" width="4.91" height=".5" transform="translate(15.68 25.47) rotate(-74.61)"/>
          <rect class="cls-2" x="21.05" y="-.02" width=".5" height="4.91" transform="translate(.07 5.44) rotate(-14.57)"/>
          <rect class="cls-2" x="18.23" y="1.61" width=".5" height="4.91" transform="translate(2.46 14.14) rotate(-44.57)"/>
          <rect class="cls-2" x="18.23" y="1.61" width=".5" height="4.91" transform="translate(2.46 14.14) rotate(-44.57)"/>
          <rect class="cls-2" x="26.7" y="9.81" width=".5" height="4.91" transform="translate(-.86 22.44) rotate(-44.57)"/>
          <rect class="cls-2" x="16.6" y="4.42" width=".5" height="4.91" transform="translate(5.74 21.3) rotate(-74.57)"/>
          <rect class="cls-2" x="28.74" y="7.69" width=".5" height="4.91" transform="translate(11.5 35.39) rotate(-74.57)"/>
          <polygon class="cls-2" points="26.68 7.75 26.55 7.27 31.31 6.03 31.43 6.51 26.68 7.75"/>
          <rect class="cls-2" x="24.91" y="3.82" width="4.91" height=".5" transform="translate(5.02 20.39) rotate(-44.6)"/>
          <rect class="cls-2" x="22.1" y="2.19" width="4.91" height=".5" transform="translate(15.68 25.47) rotate(-74.61)"/>
        </g>
      </g>
      <text class="cls-1" transform="translate(42.94 23.02)"><tspan class="cls-5" x="0" y="0">ふな</tspan><tspan class="cls-4" x="27.66" y="0">で</tspan><tspan class="cls-5" x="41.76" y="0">でざいん</tspan></text>
    </g>
  </g>
</svg>