<?xml version="1.0" encoding="UTF-8"?>
<svg id="_レイヤー_2" data-name="レイヤー_2" xmlns="http://www.w3.org/2000/svg" viewBox="0 0 242.73 236.14">
  <defs>
    <style>
      .cls-1 {
        fill: #79d3f1;
      }

      .cls-2 {
        fill: #211715;
      }

      .cls-3 {
        fill: #fff;
      }
    </style>
  </defs>
  <g id="_レイヤー_1-2" data-name="レイヤー_1">
    <g>
      <path class="cls-3" d="M195.63,125.31c4.45,8.49,7.92,15.35,14.45,27.79-21.33,10.24-108.04,52.73-126.65,62.22-9.75-18.75-19.5-38.55-28.63-58.1C38.77,122.9,22.7,88.67,7.44,54.08,47.74,35.34,117.47,8.06,131.8,2.4c7.86,15.5,26.47,51.97,38.82,76.22"/>
      <path class="cls-3" d="M166.11,128.98c-3.2,1.78-6.56,3.61-9.98,5.4,2.96-10.71,6.07-21.45,9.08-29.19.09.06.14.09.14.09,2.84,1.75,15.91,12.43,17.85,13.61-4.23,2.67-10.28,6.28-17.09,10.08Z"/>
      <path class="cls-1" d="M224.37,38.26c-.62.15-1.19.45-1.66.87-11.02,12.57-49.55,56.21-57.61,66.01,2.1,1.1,14.75,11.43,17.72,13.5l.26.18c18.74-21.24,37.04-42.43,56.02-64,3.09-3.93.13-8.75-4.08-12.41-4-3.48-8.05-4.82-10.65-4.16Z"/>
      <path class="cls-2" d="M156.85,134l-.71.38c1.45-5.25,2.94-10.5,4.43-15.4,2.81,1.84,8.07,5.8,10.06,7.46-4.25,2.43-8.94,5.03-13.77,7.57Z"/>
      <path class="cls-2" d="M193.56,126.52c4.84,9.25,9.6,18.55,14.45,27.79l.86-3.28c-6.32,3.03-12.63,6.09-18.93,9.17-9.35,4.55-18.69,9.12-28.03,13.69-10.32,5.05-20.63,10.11-30.94,15.18-9.39,4.62-18.77,9.24-28.14,13.88-6.39,3.16-12.79,6.33-19.15,9.55-.49.25-.98.49-1.46.74l3.28.86c-10.57-20.33-20.61-40.93-30.31-61.7-9.9-21.18-19.81-42.36-29.53-63.62-5.46-11.94-10.84-23.91-16.15-35.92l-.86,3.28c18.16-8.44,36.63-16.22,55.14-23.86,17.33-7.16,34.72-14.19,52.16-21.07,5.49-2.18,10.98-4.34,16.48-6.51l-2.71-1.1c9.95,19.63,19.94,39.24,29.96,58.83,2.95,5.79,5.91,11.59,8.86,17.38,1.4,2.75,5.54.33,4.15-2.42-10.75-21.11-21.51-42.23-32.27-63.33-2.19-4.29-4.37-8.59-6.55-12.89-.55-.94-1.66-1.39-2.71-1.1-12.4,4.89-24.78,9.81-37.16,14.75-19.34,7.77-38.64,15.67-57.8,23.88-10.04,4.3-20.06,8.68-29.97,13.29-1.27.59-1.34,2.19-.86,3.28,9.4,21.3,19.1,42.47,28.91,63.59,9.81,21.12,19.53,42.26,29.73,63.18,5.64,11.56,11.42,23.05,17.35,34.47.68,1.12,2.14,1.5,3.28.86,5.86-2.99,11.75-5.9,17.64-8.82,9.11-4.52,18.24-9.02,27.37-13.51,10.29-5.07,20.59-10.12,30.9-15.17,9.57-4.69,19.15-9.37,28.73-14.04,6.78-3.31,13.57-6.6,20.36-9.88l1.66-.8c1.13-.68,1.51-2.14.86-3.28-4.85-9.25-9.61-18.54-14.45-27.79-1.43-2.74-5.58-.31-4.14,2.42h0Z"/>
      <path class="cls-2" d="M203.81,169.47c-6.32,3.03-12.63,6.09-18.93,9.17-9.35,4.55-18.69,9.12-28.03,13.69-10.32,5.05-20.63,10.11-30.94,15.18-9.39,4.62-18.77,9.24-28.14,13.88-6.39,3.17-12.79,6.33-19.15,9.55-.49.25-.98.49-1.46.74l3.28.86c-10.57-20.34-20.61-40.94-30.31-61.7-9.9-21.18-19.81-42.36-29.53-63.62-5.46-11.94-10.84-23.91-16.15-35.92-.67-1.14-2.14-1.52-3.28-.86-1.12.69-1.5,2.13-.86,3.28,9.4,21.31,19.1,42.47,28.91,63.59,9.81,21.12,19.53,42.26,29.73,63.18,5.64,11.56,11.42,23.05,17.35,34.47.68,1.12,2.14,1.5,3.28.86,5.86-2.99,11.75-5.9,17.65-8.82,9.11-4.52,18.24-9.02,27.36-13.51,10.29-5.07,20.59-10.12,30.9-15.17,9.57-4.69,19.15-9.37,28.73-14.04,6.78-3.31,13.57-6.6,20.36-9.88l1.66-.8c1.13-.68,1.52-2.14.86-3.28-.69-1.12-2.14-1.5-3.28-.86h0Z"/>
      <path class="cls-2" d="M167.05,106.53c5.29-6.38,10.78-12.6,16.23-18.84,7.73-8.86,15.48-17.7,23.25-26.52,5.92-6.74,11.73-13.6,17.78-20.23.05-.06.23-.24-.04-.01.09-.07.18-.13.29-.18.43-.21.03-.07.4-.16.48-.12.98-.14,1.47-.06,1.53.26,2.99.84,4.29,1.69,2.87,1.74,6.34,4.68,7.15,8.1.37,1.55-.28,2.6-1.28,3.74-1.58,1.8-3.17,3.6-4.75,5.41-3.09,3.53-6.18,7.06-9.27,10.59-12.3,14.08-24.61,28.16-36.92,42.23-1.51,1.72-3.03,3.44-4.54,5.15-2.04,2.31,1.35,5.72,3.39,3.39,12.86-14.56,25.65-29.18,38.39-43.86,3.24-3.71,6.49-7.43,9.74-11.14,1.63-1.86,3.27-3.73,4.9-5.59,1.45-1.65,3.35-3.32,4.34-5.3,1.91-3.82.42-7.83-2.04-10.99-2.63-3.43-6.17-6.05-10.21-7.57-2.87-1.02-6.55-1.14-8.79,1.26-1.18,1.27-2.29,2.61-3.44,3.92-3.21,3.66-6.43,7.31-9.64,10.97-8.02,9.12-16.04,18.26-24.04,27.4-6.29,7.19-12.6,14.36-18.75,21.66-.43.51-.86,1.02-1.29,1.54-.9.95-.9,2.44,0,3.39.94.93,2.45.93,3.39,0h0Z"/>
      <path class="cls-2" d="M164.14,107.35c.85.53,1.66,1.14,2.46,1.75.6.45,1.2.91,1.8,1.36l.28.22.3.23,1.12.87c2.7,2.11,5.38,4.24,8.09,6.34,1.13.88,2.25,1.77,3.42,2.59,1.15.66,2.61.27,3.28-.86.64-1.15.26-2.6-.86-3.28-.37-.26-.73-.53-1.09-.8-.22-.16-.44-.33-.65-.5l-.36-.27-.26-.2c.27.21-.2-.16-.29-.23l-.42-.33c-.32-.25-.64-.5-.95-.74l-2.05-1.61c-2.79-2.2-5.58-4.4-8.41-6.54-.97-.74-1.95-1.5-2.98-2.14-1.14-.67-2.61-.28-3.28.86-.67,1.14-.28,2.61.86,3.28h0Z"/>
      <path class="cls-2" d="M163.04,104.2c-3.76,9.6-6.48,19.61-9.22,29.54-.32,1.3.47,2.62,1.78,2.94.59.15,1.22.06,1.75-.23,9.07-4.75,18-9.78,26.67-15.24,2.61-1.64.2-5.8-2.42-4.14-8.66,5.45-17.6,10.49-26.67,15.24l3.53,2.71c2.75-9.93,5.46-19.94,9.22-29.54.34-1.28-.41-2.59-1.68-2.95-1.27-.32-2.57.42-2.95,1.68h0Z"/>
      <path class="cls-2" d="M52.72,92.55c10.53-5.33,21.15-10.49,31.8-15.59,11.18-5.36,22.4-10.62,33.67-15.78,4.89-2.23,9.78-4.43,14.72-6.54,1.14-.67,1.52-2.14.86-3.28-.69-1.12-2.13-1.49-3.28-.86-9.69,4.13-19.24,8.58-28.78,13.04-11.55,5.4-23.05,10.9-34.5,16.49-5.65,2.76-11.28,5.55-16.9,8.38-2.76,1.39-.33,5.54,2.42,4.14h0Z"/>
      <path class="cls-2" d="M70.38,128.71c16.77-8.91,33.84-17.23,51.21-24.96,4.71-2.11,9.44-4.17,14.18-6.18,1.14-.67,1.52-2.14.86-3.28-.69-1.12-2.13-1.49-3.28-.86-17.32,7.34-34.38,15.27-51.18,23.78-4.76,2.4-9.5,4.86-14.21,7.36-2.73,1.45-.31,5.59,2.42,4.14Z"/>
      <path class="cls-2" d="M87.46,163.99c14.73-7.83,29.71-15.15,44.96-21.96,4.08-1.83,8.19-3.61,12.31-5.34,1.25-.39,1.98-1.68,1.68-2.95-.36-1.27-1.68-2.02-2.95-1.68-15.53,6.51-30.79,13.65-45.82,21.25-4.22,2.13-8.42,4.31-12.6,6.53-2.73,1.45-.31,5.6,2.42,4.15h0Z"/>
    </g>
  </g>
</svg>