<?xml version="1.0" encoding="UTF-8"?>
<svg id="_レイヤー_2" data-name="レイヤー_2" xmlns="http://www.w3.org/2000/svg" viewBox="0 0 248.01 275.53">
  <defs>
    <style>
      .cls-1 {
        fill: #79d3f1;
      }

      .cls-2 {
        fill: #211715;
      }

      .cls-3 {
        fill: #fff;
      }
    </style>
  </defs>
  <g id="_レイヤー_1-2" data-name="レイヤー_1">
    <g>
      <path class="cls-3" d="M135.28,180.59c-3.15-1.84-9.34-5.48-16.49-9.69-.33-.2-.54-.55-.54-.94v-11.2l-51.45,29.74v10.26c0,.39.21.74.54.94,8.43,4.9,15.58,9.06,18.47,10.72.34.2.75.19,1.08,0,6.01-3.6,33.83-19.57,48.38-27.97.52-.3.69-.96.4-1.47-.09-.16-.23-.3-.39-.39Z"/>
      <path class="cls-3" d="M167.09,3.96c0,28.63,0,84.98,0,125.43,0,.71-.38,1.37-.99,1.72-41.58,24.03-119.34,68.99-159.56,92.24-1.42.83-3.25.34-4.07-1.08-.26-.46-.4-.97-.4-1.5,0-32.76,0-86.64-.01-123.15,0-1.06.57-2.05,1.49-2.58C40.23,73.84,145.03,13.26,164.1,2.24c.96-.55,2.18-.22,2.73.74.17.3.26.64.27.98Z"/>
      <path class="cls-3" d="M244.58,257.12l-1-.54h0c-3.16,1.52-13.14,1.71-15.02.35-3.61,4.15-8.8,4.75-13.48,4.12-.64-.05-1.27-.18-1.88-.38-1.67-.57-3.21-1.46-4.53-2.64-.01-.01-.03-.02-.04-.03l-.57.05c-.77-.46-3.12.01-4.09,1.46s-.93,4.24-.38,5.9c1.19,3.6,4.66,5.43,8.23,6.72,3.68,1.39,7.67,1.75,11.54,1.03,1.65-.41,3.04-1.5,3.85-2.99.47-.88.76-1.83.88-2.82l6.14,1.41c1.25.32,2.54.49,3.83.49.61,0,1.22-.04,1.83-.11,1.82-.1,3.5-1.01,4.57-2.48.61-1.16.92-2.45.9-3.77.03-1.32-.82-4.47-.78-5.78Z"/>
      <path class="cls-3" d="M227.48,120.98c-.17.8-.48,1.56-.93,2.24-.93,1.36-2.19,2.47-3.66,3.21,2.63,4.75,7.12,8.19,12.4,9.48-.94.85-1.71,1.87-2.28,3.01-2.23-.15-4.47.03-6.66.51-5.51,1.07-13.1,3.57-15.09,4.86-1.26.85-2.37,1.89-3.31,3.09l1.27-4.1c.49-1.5.5-3.12.03-4.63-.62-1.48-1.72-2.7-3.13-3.46l.53-2.84s-.02-.02-.03-.03c-2.52-2.64-4.2-5.95-4.84-9.54-1.23-6.42.26-13.06,4.12-18.33.87-1.18,1.86-2.28,2.95-3.27,3.22,5.63,7.77,10.4,13.24,13.89,1.97-.48,4.03.42,5,2.21.55,1.15.68,2.45.39,3.68Z"/>
      <path class="cls-3" d="M204.03,134.38c-1.11-.28-2.27-.29-3.38-.05-3.33.73-5.59,3.83-5.28,7.22l.14,1.99c.3.01.59.08.87.2,2.08.98,7.97,4.26,9.51,5.26l.6.38c1.12-1.75,2.51-3.31,4.13-4.62l-1.38-1.47c.49-1.5.5-3.12.03-4.63-.96-2.18-2.9-3.78-5.23-4.29Z"/>
      <path class="cls-3" d="M235.72,200.13c1.13-.18,2.29-.36,3.48-.56,1.61-.26,4.33-.98,5.2-2.02,1.11-1.33,1.05-2.74,1.11-4.73.46-15.27,1.35-26.66-1.32-39.68-.84-4.08-2-8.32-4.92-11.29s-6.63-3.64-12.92-2.41c-5.51,1.07-13.1,3.57-15.09,4.86-1.91,1.37-3.54,3.1-4.79,5.09l-.59-.39c-1.54-1-7.43-4.28-9.51-5.26-.45-.18-.93-.25-1.4-.19-.61.09-.92.78-1.1,1.37-1.45,5.13-2.54,10.35-3.26,15.63-.92,5.34-1.02,10.8-.29,16.17.34,2.07,1.5,3.92,3.22,5.12,1.49,1.24,3.71,1.11,5.6.68,1.95-.46,3.81-1.26,5.48-2.38l-.07,6.59c0,3.11.13,6.67.13,6.67-.07,1.68.81,4.5,2.18,5.44,1.22.84,2.85,1.22,6.52,1.89,7.5,1.36,14.22.66,22.34-.61Z"/>
      <path class="cls-3" d="M221.99,201.47c-2.89.02-5.77-.23-8.61-.74-4.13-.75-5.67-1.14-6.96-2.23-.07,9.01.64,44.38,1.34,57.24l.21,1.07c.31,1.54,2.7,2.85,5.23,3.86.61.2,1.24.33,1.88.38,4.67.63,9.87.03,13.48-4.12,2.31,1.67,16.72,1.02,15.96-1.56-.46-12.78-.88-38.59-.5-50.05,0,0-.1-3.93-.19-7.27-1.44.78-3,1.3-4.62,1.53-5.68,1.08-11.44,1.72-17.21,1.9Z"/>
      <path class="cls-1" d="M8.9,221.98l-6.82,3.95v-25.04c38.95-22.51,122.12-70.6,165.02-95.39v25.04c-40.54,23.43-117.03,67.66-158.19,91.45Z"/>
      <path class="cls-1" d="M113.64,115.54l16.86-9.75c0-12.09,0-30.06,0-59.54l-16.85,9.75c0,1.23,0,40.54,0,59.54Z"/>
      <path class="cls-1" d="M79.45,135.42l16.86-9.75c0-12.09,0-17.46,0-46.94l-16.86,9.75c0,1.23,0,27.96,0,46.94Z"/>
      <path class="cls-1" d="M45.46,155.12l16.86-9.75c0-12.09,0-.13,0-29.61l-16.85,9.75c0,1.23,0,10.62,0,29.61Z"/>
      <path class="cls-1" d="M219.5,95.74c-3.98.84-7.65,2.72-10.65,5.46,3.23,5.63,7.77,10.39,13.24,13.88,1.97-.48,4.03.42,5,2.21.86,1.93.66,4.18-.53,5.93-.93,1.36-2.19,2.47-3.66,3.21,2.63,4.75,7.12,8.19,12.39,9.48.1-.1.19-.2.29-.32,2.78-3.06,4.78-5.18,6.48-8.19,2.42-4.2,3.38-9.09,2.75-13.89-1.38-9.63-9.57-17.68-19.29-18.24-2.02-.12-4.05.04-6.03.45Z"/>
      <path class="cls-2" d="M165.09,3.96v123.63c.09.59.09,1.19,0,1.78-.18.27-.89.52-1.18.68l-2.87,1.66-6.04,3.49c-19.28,11.14-38.56,22.29-57.84,33.43l-61.18,35.37-25.58,14.79-2.82,1.63c-.68.4-1.71,1.3-2.5,1.32-.8.01-.98-.64-1.01-1.29-.06-1.35,0-2.71,0-4.06v-16.5c0-25.27,0-50.53,0-75.8v-22.37c-.11-1.37-.11-2.75,0-4.13.2-1.19,2.53-2.03,3.51-2.59,6.22-3.6,12.45-7.2,18.67-10.79,16.36-9.46,32.72-18.92,49.08-28.37l50.57-29.23,35.31-20.41,2.42-1.4.99-.57c.17-.08.33-.18.49-.28.02-.01-.01-.02-.01,0,.2,2.55,4.2,2.57,4,0-.06-2.25-1.93-4.01-4.18-3.95-.74.02-1.45.24-2.07.63-.75.41-1.49.86-2.23,1.29l-6.14,3.55-17.7,10.23-49,28.33-52.27,30.22-21.8,12.6-8.81,5.09c-1.83,1.06-3.85,1.95-4.58,4.11-.31,1.41-.4,2.86-.25,4.29v4.57c0,25.82,0,51.64,0,77.47v35.28c0,2.71-.32,5.7,2.36,7.33,2.68,1.63,5.05.11,7.4-1.24l12.18-7.04,59.69-34.51c20.73-11.98,41.45-23.97,62.18-35.95l13.14-7.6,6.29-3.63c1.99-1.15,5.14-2.26,5.68-4.76.19-1.49.22-3,.1-4.5V3.96c0-2.57-4.01-2.58-4.01,0Z"/>
      <path class="cls-2" d="M3.09,202.61l27.2-15.73c11.18-6.46,22.35-12.92,33.53-19.38,12.09-6.99,24.18-13.98,36.26-20.96l34.9-20.18,29.94-17.31,3.19-1.85c2.23-1.29.22-4.75-2.02-3.45l-29.06,16.8-34.49,19.94-36.32,21-34.05,19.68-28.19,16.3-2.91,1.68c-2.23,1.29-.22,4.75,2.02,3.45h0Z"/>
      <path class="cls-2" d="M114.65,117.26l8.97-5.19,4.16-2.4,2.28-1.32c.82-.47,1.87-.87,2.26-1.79.22-.87.28-1.77.17-2.66v-57.65c-.02-1.11-.94-2-2.05-1.99-.34,0-.67.09-.96.26l-11.53,6.67c-1.76,1.02-3.65,1.94-5.33,3.08-.68.47-1.05,1.26-.99,2.08-.07,2.66,0,5.33,0,8v51.19c0,2.57,4,2.58,4,0v-53.8s0-5.75,0-5.75l-.99,1.73,16.85-9.75-3.01-1.73c0,16.88,0,33.76,0,50.63v8.91l.99-1.73-16.86,9.75c-2.23,1.29-.21,4.75,2.02,3.45Z"/>
      <path class="cls-2" d="M80.46,137.15l8.97-5.19,4.16-2.4,2.28-1.32c.82-.47,1.87-.87,2.26-1.79.53-1.25.17-3.29.17-4.65v-4c0-6.49,0-12.98,0-19.46v-19.6c-.02-1.12-.94-2-2.05-1.99-.34,0-.66.09-.96.26-5.48,3.17-11.1,6.17-16.47,9.53-1.29.81-1.37,1.68-1.37,2.98v45.91c0,2.57,4,2.58,4,0v-46.94l-.99,1.73,16.85-9.75-3.01-1.72c0,13.2,0,26.4,0,39.6v7.34l.99-1.73c-5.62,3.25-11.24,6.5-16.86,9.75-2.23,1.29-.22,4.75,2.02,3.46Z"/>
      <path class="cls-2" d="M46.47,156.85l8.97-5.19,4.16-2.4,2.28-1.32c.82-.47,1.87-.87,2.26-1.79.46-1.1.17-2.83.17-4.04v-2.15c0-2.62,0-5.23,0-7.85v-16.35c-.02-1.11-.93-2.01-2.05-1.99-.34,0-.67.09-.97.26l-12.94,7.48-2.95,1.71c-1,.58-1.88,1.06-1.95,2.34-.02.35,0,.7,0,1.05v28.51c0,2.57,4,2.58,4,0,0-9.87,0-19.74,0-29.61l-.99,1.73,16.86-9.75-3.01-1.73c0,8.14,0,16.28,0,24.43v5.19l.99-1.73c-5.62,3.25-11.24,6.5-16.86,9.75-2.23,1.29-.22,4.74,2.01,3.45Z"/>
      <path class="cls-2" d="M64.81,188.78v8.43c0,1.52-.09,3.03,1.31,4.05,1.42.94,2.88,1.8,4.39,2.59l4.22,2.45c2.33,1.35,4.65,2.7,6.98,4.05,1.87,1.08,3.98,2.91,6.2,1.79,2.43-1.22,4.74-2.79,7.1-4.15,8.29-4.81,16.6-9.61,24.92-14.39,4.21-2.42,8.41-4.85,12.62-7.27,1.79-1.03,5.08-2.17,5.24-4.55.18-2.6-2.66-3.61-4.53-4.71-2.83-1.66-5.67-3.33-8.5-5l-2.42-1.43-1.25-.74-.64-.38c-.3-.26-.36-.12-.19.41-.12-.12,0-1.01,0-1.15v-9.33c0-2.57-4-2.58-4,0,0,3.47-.18,6.99,0,10.45.12,2.21,1.96,2.95,3.64,3.94l5.87,3.46c1.63.96,3.27,1.92,4.9,2.88l2.1,1.23c.29.17.59.38.9.52.96.46-.22-.25.12-.7l.72-.72c-1.99,1.34-4.06,2.56-6.21,3.63-2.37,1.36-4.73,2.73-7.1,4.09-4.92,2.83-9.84,5.67-14.76,8.5-4.34,2.5-8.67,5.01-13,7.52-1.62.94-3.23,1.88-4.85,2.82-.57.33-1.14.67-1.71,1.01-.2.1-.39.22-.58.34-.11.05-.21.11-.31.18.72.1.9.06.53-.11l-.34-.2c-2.45-1.42-4.89-2.84-7.34-4.26l-5.13-2.98c-1.93-.98-3.79-2.07-5.58-3.29l.72.72c.07.09-.02.38-.04-.13-.01-.33,0-.67,0-1v-8.62c0-2.57-4-2.58-4,0h0Z"/>
      <path class="cls-2" d="M18.68,123.39c12.74-11.81,25.45-23.66,38.13-35.53,1.88-1.77-.96-4.59-2.83-2.83-12.65,11.91-25.36,23.76-38.13,35.53-1.89,1.75.94,4.58,2.83,2.83Z"/>
      <path class="cls-2" d="M87.24,203.24c10.03-5.87,20.13-11.61,30.19-17.44,2.01-1.16,4.02-2.32,6.01-3.51,2.21-1.32.2-4.77-2.02-3.45-9.92,5.9-19.99,11.58-29.99,17.35-2.07,1.2-4.14,2.39-6.21,3.6-2.22,1.3-.21,4.76,2.02,3.45h0Z"/>
      <path class="cls-2" d="M211.66,113.94c-.13.94-.68,1.78-1.49,2.27-.57.3-1.23.37-1.84.19-.85-.23-1.54-.85-1.86-1.67-.46-1.33,0-2.8,1.12-3.65,1.1-.77,2.61-.56,3.46.49.55.66.78,1.53.63,2.37Z"/>
      <path class="cls-2" d="M204.42,200.98c.04,14.88.42,29.78.92,44.65.11,3.41.24,6.83.42,10.24.14,2.56,4.14,2.58,4,0-.81-14.86-1.01-29.77-1.24-44.64-.05-3.42-.1-6.83-.11-10.25,0-2.57-4.01-2.58-4,0h0Z"/>
      <path class="cls-2" d="M242.01,205.31c-.44,13.93-.1,27.92.26,41.84.08,3.32.18,6.64.31,9.96.1,2.57,4.1,2.58,4,0-.57-13.93-.75-27.9-.71-41.84,0-3.32.04-6.64.14-9.96.08-2.57-3.92-2.57-4,0Z"/>
      <path class="cls-2" d="M226.32,219.5c-.57,11-.87,22.04-.98,33.06-.02,1.9-.09,3.82.05,5.72.19,2.55,4.19,2.57,4,0-.32-4.27-.03-8.64.07-12.91.14-6.23.33-12.46.56-18.68.09-2.4.18-4.79.3-7.18.13-2.57-3.87-2.57-4,0h0Z"/>
      <path class="cls-2" d="M206.04,257.34c.5,1.95,2.32,3.22,4.02,4.1,1.02.57,2.1,1.02,3.22,1.34,1.08.22,2.17.36,3.27.42,4.28.43,8.56-.8,11.96-3.43.77-.78.77-2.04,0-2.83-.79-.76-2.04-.76-2.83,0-2.47,1.77-5.51,2.59-8.53,2.29-1.54,0-3.07-.34-4.48-.96-.76-.32-1.47-.73-2.13-1.22-.2-.17-.38-.35-.55-.54.08.1.06.05-.07-.14.06.17.06.14,0-.09-.64-2.49-4.5-1.43-3.86,1.06h0Z"/>
      <path class="cls-2" d="M228.79,259.2c2.55.64,5.2.84,7.82.6,2.73.02,5.44-.49,7.99-1.49.95-.56,1.27-1.78.72-2.74-.57-.93-1.78-1.25-2.74-.72-.36.17.47-.16.07-.02-.1.03-.19.07-.29.1-.23.08-.47.15-.71.21-.55.15-1.12.25-1.68.35l-.42.06c-.24.04.32-.04-.08.01-.33.04-.66.08-.99.11-.68.07-1.37.11-2.05.14-1.3.06-2.61.05-3.91-.04-.27-.02-.54-.04-.82-.07-.15-.01-.31-.04-.46-.05.54.05.05,0-.05,0-.45-.07-.89-.17-1.33-.3-1.07-.29-2.17.33-2.46,1.4-.29,1.07.33,2.17,1.4,2.46h0Z"/>
      <path class="cls-2" d="M209.05,256.32c-1.61-.67-3.44-.52-4.92.41-1.69,1.03-2.76,2.83-2.86,4.81-.45,3.98,1.41,7.87,4.79,10.02,3.73,2.41,8.03,3.77,12.46,3.95,4.22.21,8.78-.68,10.68-4.92,1.63-3.64.98-7.94.11-11.68-.58-2.51-4.44-1.45-3.86,1.06.49,1.9.73,3.86.73,5.83,0,.59-.06,1.18-.18,1.75-.06.27-.13.54-.21.81-.03.08-.32.79-.12.37-1.72,3.7-6.97,3.08-10.28,2.36-3.25-.71-7.57-2.08-9.39-5.12-.8-1.37-1.04-2.99-.69-4.54.06-.58.43-1.08.96-1.31.27-.12.59-.13.85-.25.13-.06.27.09-.1-.09,2.31,1.11,4.34-2.34,2.02-3.45h0Z"/>
      <path class="cls-2" d="M242.58,257.12c.08,1.51.3,3,.64,4.47.05.2.08.4.1.61,0-.53-.02-.12,0,.02.03.28.04.57.03.86,0,.24-.03.48-.05.73-.04.47.06-.21-.03.22-.05.25-.1.5-.16.75-.02.07-.21.64-.14.47s-.2.35-.23.42c-.13.19-.13.2,0,.03-.05.07-.11.14-.17.2-.14.15-.29.29-.45.42.31-.26-.17.1-.25.15-.18.11-.37.2-.55.3-.21.1-.22.1-.02.01-.09.03-.17.06-.26.09-.4.13-.82.23-1.23.3-.15.02-.12.02.09-.01-.15.02-.3.03-.45.04-.25.02-.5.04-.75.05-.46.02-.93.02-1.39,0-.23-.01-.45-.03-.67-.05-.24-.03-.26-.03-.05,0l-.29-.04c-.51-.08-1.02-.19-1.53-.31-1.07-.29-2.17.33-2.46,1.4-.29,1.07.33,2.17,1.4,2.46h0c4.14.97,10.05,1.11,12.54-3.09.96-1.77,1.32-3.8,1.04-5.79-.12-.97-.3-1.93-.48-2.9-.04-.21-.07-.42-.11-.63-.02-.1-.03-.2-.05-.3-.03-.23-.03-.2.01.1-.08-.31-.1-.63-.07-.95,0-1.1-.9-2-2-2s-2,.9-2,2h0Z"/>
      <path class="cls-2" d="M213.44,167.88c-2.71,3.73-5.58,7.65-9.44,10.28-1.82,1.3-3.91,2.18-6.12,2.57-2.08.38-4.15-.7-5.03-2.63-.45-.95-.71-1.99-.75-3.04-.17-1.5-.25-3.01-.27-4.52-.03-3.01.18-6.02.64-9,.42-2.79.88-5.58,1.43-8.34.27-1.38.57-2.76.9-4.13.19-.76.39-1.52.6-2.27.09-.3.17-.6.26-.9.06-.17.11-.34.15-.51.07-.23-.09-.18-.5.14,0-.02,1.75.79,1.89.87,1,.53,1.99,1.07,2.98,1.61,1.58.87,3.17,1.74,4.69,2.72,2.17,1.4,4.18-2.07,2.02-3.45-1.65-1.06-3.4-2-5.12-2.95-1.75-.96-3.82-2.46-5.83-2.73-3.9-.52-4.45,4.04-5.12,6.87-.8,3.35-1.38,6.76-1.93,10.16-.61,3.47-.97,6.97-1.07,10.49-.02,1.6.02,3.19.15,4.78.04,1.7.33,3.39.85,5.01,1,2.56,3.32,5.16,6.1,5.74,2.82.59,5.83-.3,8.37-1.48,5.85-2.7,9.91-8.2,13.59-13.27.55-.96.23-2.17-.72-2.74-.96-.53-2.16-.22-2.74.72h0Z"/>
      <path class="cls-2" d="M211.16,143.82c1.51-4.19-.49-8.84-4.57-10.63-3.68-1.72-8.34-1.26-11.07,1.97-1.51,1.78-2.27,4.06-2.14,6.39.02,1.09.91,1.98,2,2,1.1-.01,1.99-.9,2-2-.01-.26-.02-.52-.01-.77,0-.08.09-.84.02-.41.08-.42.19-.84.32-1.24.08-.22.08-.23,0-.02.05-.11.1-.22.16-.32.08-.16.17-.32.27-.47.04-.07.48-.63.21-.32.16-.18.32-.36.49-.52.13-.12.26-.24.4-.36-.31.26.27-.17.34-.21.21-.13.43-.24.65-.35-.35.17.18-.07.22-.08.24-.08.49-.15.74-.21.12-.03.24-.05.36-.07-.23.03-.22.03.02,0,.43-.03.87-.03,1.3,0,.24.02.25.02.03,0,.12.02.25.04.37.07.18.04.37.08.55.13.24.07.48.15.71.24-.36-.14.31.15.38.19.17.09.33.18.49.28.06.04.66.46.36.22.33.27.65.57.94.89.15.18.16.19.04.02.07.1.14.2.21.3.14.21.25.42.37.64.2.35-.03-.24.1.22.09.27.15.54.2.81-.04-.28,0,.38,0,.45,0,.26-.01.52-.03.78-.03.25-.03.29,0,.12-.02.14-.05.28-.07.42-.05.26-.12.52-.2.78-.29,1.07.33,2.17,1.4,2.46s2.17-.33,2.46-1.4h0Z"/>
      <path class="cls-2" d="M202.55,186.73c0,2.22.07,4.43.13,6.65-.05,2.44.83,4.8,2.46,6.62,1.42,1.37,3.55,1.84,5.41,2.23,2.93.63,5.9,1.03,8.89,1.2,6.16.29,12.3-.64,18.37-1.61,2.43-.39,5.18-.72,7.24-2.2,2.38-1.72,2.39-4.62,2.47-7.28.36-11.88,1.14-23.81-.67-35.62-.85-5.54-1.95-11.71-5.89-15.99-3.43-3.72-8.23-4.24-13-3.57-5.7.79-11.26,2.4-16.5,4.79-2.56,1.36-4.71,3.37-6.27,5.81-2.06,2.9-3.84,5.98-5.33,9.21-.53.96-.21,2.16.72,2.74.96.55,2.17.23,2.74-.72,1.19-2.57,2.56-5.04,4.1-7.41,1.34-2.05,2.84-4.33,4.99-5.62,1.45-.79,2.99-1.42,4.57-1.88,2.3-.79,4.65-1.47,7.01-2.05,3.79-.93,8.66-2.18,12.27-.03,4,2.4,5.19,7.66,6.05,11.89,2.07,10.22,1.83,20.64,1.47,31.01-.1,2.92-.2,5.84-.29,8.75-.03.82.03,1.98-.6,2.62-.7.51-1.5.85-2.36.98-2.61.61-5.26,1.06-7.93,1.35-2.66.38-5.34.68-8.02.82-2.89.16-5.8.07-8.68-.28-2.47-.19-4.91-.71-7.24-1.54-.62-.28-1.11-.78-1.37-1.4-.4-.87-.61-1.82-.62-2.78-.06-2.22-.13-4.45-.13-6.67,0-2.57-4-2.58-4,0h0Z"/>
      <path class="cls-2" d="M234.98,139.5c1.1-1.58,2.35-3.05,3.74-4.38,1.54-1.66,2.96-3.43,4.23-5.31,2.59-3.93,4-8.53,4.07-13.23-.06-8.16-4.3-15.72-11.23-20.03-6.97-4.34-15.86-4.2-23.06-.47-7.88,4.21-12.95,12.27-13.34,21.2-.48,9.92,5.86,21.4,16.99,21.06,2.57-.08,2.58-4.08,0-4-8.24.25-12.85-8.12-13.01-15.42-.2-7.57,3.64-14.68,10.08-18.67,5.78-3.48,13.28-4.14,19.29-.86,5.82,3.17,9.66,9.05,10.24,15.65.26,4.58-1,9.12-3.59,12.91-1.24,1.77-2.61,3.44-4.1,5-1.41,1.37-2.67,2.89-3.77,4.53-1.31,2.22,2.15,4.24,3.45,2.02h0Z"/>
      <path class="cls-2" d="M207.86,103.45c3.28,5.24,7.66,9.71,12.83,13.11.95.55,2.17.23,2.74-.72.53-.96.22-2.16-.72-2.74-.6-.39-1.19-.8-1.77-1.23-.14-.1-.27-.2-.41-.31l-.16-.12q.11.08,0,0c-.3-.23-.59-.47-.88-.71-1.08-.9-2.11-1.85-3.1-2.85-.98-1-1.9-2.06-2.78-3.16l-.13-.16c.08.11.08.11,0,0-.1-.14-.21-.27-.31-.41-.2-.28-.4-.55-.6-.83-.43-.62-.85-1.24-1.25-1.88-.56-.95-1.78-1.28-2.74-.72s-1.28,1.78-.72,2.74h0Z"/>
      <path class="cls-2" d="M222.57,117.02c.1-.03.59-.08.1-.04.16-.01.32-.03.48-.03s.32.01.48.03c-.27-.03-.21-.03.02.03.15.04.31.1.46.14.22.05-.28-.17.04.01.14.08.28.15.42.23.1.07.4.36.11.07.11.11.23.22.35.33.29.27-.14-.27.09.1.07.12.15.23.21.35.04.08.08.15.12.23-.07-.18-.09-.2-.04-.07.03.14.09.28.13.43s.1.54.06.18c.03.36.04.73.02,1.1-.01.43.08-.26-.02.2-.03.15-.06.3-.1.45-.05.18-.1.36-.16.53-.05.13-.16.38-.04.12-.16.33-.34.65-.55.96-.32.48.24-.26-.14.19-.12.14-.24.29-.37.42-.24.25-.49.49-.76.72-.09.07-.34.27-.12.11-.15.11-.31.22-.47.33-.32.21-.64.4-.98.57-.17.08-.33.17-.5.24.32-.14-.11.03-.2.06-1.07.29-1.69,1.39-1.4,2.46.29,1.07,1.39,1.69,2.46,1.4h0c3.9-1.38,7.32-4.78,7.37-9.12.06-2.16-.93-4.22-2.65-5.52-1.58-1.14-3.58-1.53-5.46-1.05-1.07.29-1.69,1.39-1.4,2.46.29,1.07,1.39,1.69,2.46,1.4h-.01Z"/>
      <path class="cls-2" d="M221.8,128.5c2.76,4.28,6.93,7.46,11.79,9,1.07.28,2.16-.34,2.46-1.4.27-1.06-.35-2.15-1.4-2.46-.52-.17-1.02-.37-1.53-.56.45.17-.05-.02-.12-.05l-.29-.13c-.24-.11-.49-.23-.72-.35-.96-.51-1.89-1.09-2.78-1.73-.24-.17.36.29-.04-.03-.1-.08-.21-.17-.31-.25-.21-.17-.41-.35-.61-.52-.4-.36-.78-.74-1.15-1.13-.19-.2-.37-.4-.54-.61-.09-.1-.18-.21-.26-.31-.03-.04-.32-.4-.15-.18s-.11-.15-.14-.19c-.08-.11-.16-.22-.24-.34-.18-.25-.35-.51-.51-.77-.56-.95-1.78-1.28-2.74-.72-.95.56-1.28,1.78-.72,2.74h0Z"/>
    </g>
  </g>
</svg>