<?xml version="1.0" encoding="UTF-8"?>
<svg id="_レイヤー_2" data-name="レイヤー_2" xmlns="http://www.w3.org/2000/svg" viewBox="0 0 253.86 54.63">
  <defs>
    <style>
      .cls-1 {
        letter-spacing: .02em;
      }

      .cls-2, .cls-3 {
        stroke-miterlimit: 10;
      }

      .cls-2, .cls-3, .cls-4 {
        fill: none;
      }

      .cls-2, .cls-4 {
        stroke: #223d67;
      }

      .cls-5 {
        fill: #de6437;
      }

      .cls-6 {
        letter-spacing: .05em;
      }

      .cls-3 {
        stroke: #de6437;
        stroke-width: .75px;
      }

      .cls-7 {
        fill: #fff;
        font-family: TsukuARdGothicStd-B-90ms-RKSJ-H, 'FOT-TsukuARdGothic Std';
        font-size: 24px;
      }

      .cls-4 {
        stroke-linecap: round;
        stroke-linejoin: round;
      }
    </style>
  </defs>
  <g id="WSP:トップ">
    <g>
      <g>
        <g>
          <path class="cls-4" d="M60.82,47.37c-3.95.55-4.23-1.43-8.17-.87s-3.67,2.54-7.62,3.09-4.23-1.43-8.18-.87-3.67,2.54-7.62,3.09-4.23-1.43-8.18-.87-3.67,2.54-7.62,3.09-4.23-1.43-8.18-.87"/>
          <g>
            <rect class="cls-2" x="9.68" y="23.41" width="28.54" height="9.38" transform="translate(52.59 51.39) rotate(169.56)"/>
            <rect class="cls-2" x="14.35" y="16.62" width="15.72" height="6.97" transform="translate(47.71 35.85) rotate(169.56)"/>
            <path class="cls-2" d="M16.5,52.78c-7.85-1.34-14.39-7.43-15.92-15.72h0s61.45-11.32,61.45-11.32h0c1.6,8.7-2.83,17.1-10.32,20.93"/>
          </g>
        </g>
        <g>
          <circle class="cls-5" cx="41.04" cy="14.4" r="3.93"/>
          <line class="cls-3" x1="42.58" y1="8.54" x2="44.9" y2=".12"/>
          <line class="cls-3" x1="39.06" y1="8.55" x2="36.86" y2=".09"/>
          <line class="cls-3" x1="36.01" y1="10.33" x2="29.88" y2="4.1"/>
          <line class="cls-3" x1="29.88" y1="4.1" x2="36.01" y2="10.33"/>
          <line class="cls-3" x1="44.93" y1="18.69" x2="51.07" y2="24.92"/>
          <line class="cls-3" x1="34.26" y1="13.38" x2="25.83" y2="11.06"/>
          <line class="cls-3" x1="47.42" y1="16.86" x2="55.85" y2="19.19"/>
          <line class="cls-3" x1="47.41" y1="13.34" x2="55.87" y2="11.14"/>
          <line class="cls-3" x1="45.64" y1="10.29" x2="51.86" y2="4.16"/>
          <line class="cls-3" x1="42.58" y1="8.54" x2="44.9" y2=".12"/>
        </g>
      </g>
      <text class="cls-7" transform="translate(81.78 40.93)"><tspan class="cls-1" x="0" y="0">ふな</tspan><tspan class="cls-6" x="49.2" y="0">で</tspan><tspan class="cls-1" x="74.28" y="0">でざいん</tspan></text>
    </g>
  </g>
</svg>