<?xml version="1.0" encoding="UTF-8"?>
<svg id="_レイヤー_2" data-name="レイヤー_2" xmlns="http://www.w3.org/2000/svg" viewBox="0 0 252.19 54.63">
  <defs>
    <style>
      .cls-1 {
        fill: #ee5a24;
      }

      .cls-2 {
        fill: #183e6a;
      }

      .cls-3 {
        fill: #094a75;
      }
    </style>
  </defs>
  <g id="_レイヤー_1-2" data-name="レイヤー_1">
    <g>
      <g>
        <g>
          <path class="cls-2" d="M12.11,54.63c-1.25,0-2.1-.28-2.92-.56-1.03-.35-2-.67-3.86-.41-.28.04-.53-.15-.56-.43s.15-.53.43-.56c2.09-.3,3.22.09,4.32.46,1.03.35,2,.68,3.86.41,1.86-.26,2.7-.84,3.6-1.46.95-.66,1.93-1.34,4.03-1.63,2.09-.29,3.22.09,4.32.46,1.03.35,2,.67,3.86.41,1.86-.26,2.7-.84,3.6-1.46.95-.66,1.93-1.33,4.02-1.63,2.09-.29,3.22.09,4.32.46,1.03.35,2,.68,3.86.41,1.86-.26,2.7-.84,3.59-1.46.95-.66,1.93-1.33,4.02-1.63,2.09-.29,3.22.09,4.32.46,1.03.35,2,.67,3.86.41.27-.04.53.15.56.43.04.27-.15.53-.43.56-2.09.29-3.22-.09-4.32-.46-1.03-.35-2-.68-3.86-.41-1.86.26-2.7.84-3.59,1.46-.95.66-1.93,1.33-4.02,1.63-2.09.29-3.22-.09-4.32-.46-1.03-.35-2-.68-3.86-.41-1.86.26-2.7.84-3.6,1.46-.95.66-1.93,1.33-4.02,1.63-2.09.3-3.22-.09-4.32-.46-1.03-.35-2-.68-3.86-.41-1.86.26-2.7.84-3.6,1.46-.95.66-1.93,1.33-4.03,1.63-.52.07-.98.1-1.4.1Z"/>
          <g>
            <path class="cls-2" d="M10.36,35.88l-1.88-10.21,29.05-5.35,1.88,10.21-29.05,5.35ZM9.65,26.47l1.52,8.24,27.08-4.99-1.52-8.24-27.08,4.99Z"/>
            <path class="cls-2" d="M14.72,25.54l-1.44-7.84,16.45-3.03,1.44,7.84-16.45,3.03ZM14.44,18.5l1.08,5.87,14.48-2.67-1.08-5.87-14.48,2.67Z"/>
            <path class="cls-2" d="M16.42,53.27C8.17,51.86,1.61,45.39.09,37.15l-.09-.49,62.43-11.5.09.49c1.59,8.64-2.76,17.47-10.58,21.46l-.45-.89c7.28-3.72,11.4-11.84,10.14-19.9L1.17,37.46c1.61,7.59,7.74,13.51,15.41,14.82l-.17.99Z"/>
          </g>
        </g>
        <g>
          <circle class="cls-1" cx="41.04" cy="14.4" r="3.93"/>
          <rect class="cls-1" x="39.37" y="3.96" width="8.74" height=".75" transform="translate(27.94 45.35) rotate(-74.59)"/>
          <rect class="cls-1" x="37.58" y="-.05" width=".75" height="8.74" transform="translate(.13 9.69) rotate(-14.57)"/>
          <rect class="cls-1" x="32.57" y="2.84" width=".75" height="8.74" transform="translate(4.41 25.19) rotate(-44.57)"/>
          <rect class="cls-1" x="32.57" y="2.84" width=".75" height="8.74" transform="translate(4.41 25.19) rotate(-44.57)"/>
          <rect class="cls-1" x="47.62" y="17.44" width=".75" height="8.74" transform="translate(-1.5 39.96) rotate(-44.57)"/>
          <rect class="cls-1" x="29.67" y="7.85" width=".75" height="8.74" transform="translate(10.27 37.93) rotate(-74.57)"/>
          <rect class="cls-1" x="51.26" y="13.65" width=".75" height="8.74" transform="translate(20.52 63) rotate(-74.57)"/>
          <rect class="cls-1" x="47.27" y="11.87" width="8.74" height=".75" transform="translate(-1.42 13.38) rotate(-14.56)"/>
          <rect class="cls-1" x="44.38" y="6.85" width="8.74" height=".75" transform="translate(8.95 36.3) rotate(-44.58)"/>
          <rect class="cls-1" x="39.37" y="3.96" width="8.74" height=".75" transform="translate(27.94 45.35) rotate(-74.59)"/>
        </g>
      </g>
      <g>
        <path class="cls-3" d="M84.66,37.93c.6-.65,1.8-2.28,2.42-3.31.94-1.54,2.66-.34,2.16.82-.58,1.32-1.75,2.93-2.69,4.03-1.46,1.73-3.41.1-1.9-1.54ZM89.99,40.07c-1.3-.65-.5-2.52.94-1.92,4.06,1.66,4.63-1.18,3.26-3.1-.65-.91-2.04-2.16-2.57-2.76-1.34-1.56.7-2.5,1.58-1.58.91.94,2.21,2.26,2.98,3.31,3.26,4.44-.91,8.64-6.19,6.05ZM95.06,29.48c-1.3.31-1.99-1.13-.94-1.7.5-.26.58-.46.36-.79-.53-.89-1.54-1.49-1.99-2.09-.86-1.15.77-2.21,1.75-1.22.98.98,3.34,2.47,3.41,3.86.05.67-.29,1.44-1.44,1.61-.31.05-.77.24-1.15.34ZM101.27,38.32c-.58-1.73-1.85-2.98-2.66-3.53-1.22-.84,0-2.4,1.34-1.61,1.32.79,2.78,1.97,3.58,3.84.82,1.9-1.68,3.02-2.26,1.3Z"/>
        <path class="cls-3" d="M111.93,27.83c-1.46-.41-1.01-2.62.7-2.06.79.26,2.04.24,3.29-.07.24-.79.36-1.56.48-2.42.22-1.42,2.33-1.15,2.28.22-.02.36-.17.89-.34,1.46.29-.14.55-.26.77-.41,1.08-.77,2.59.72,1.06,1.82-.6.43-1.58.82-2.57,1.1-1.13,2.71-2.76,5.59-4.3,8.09-.89,1.44-3.19.5-2.14-1.06,1.34-1.99,2.76-4.03,3.94-6.55-1.22.24-2.26.14-3.17-.12ZM116.06,41.34c-2.23-1.13-2.5-3.72-.02-4.82,1.49-.67,3.12-.72,4.61-.46v-.84c0-.6-.05-1.2-.07-1.8-.02-.48.02-1.15.12-1.61.29-1.32,2.4-1.01,2.16.43-.07.36-.14.62-.14,1.13,0,.55,0,1.15.02,1.85.02.46.07.96.1,1.49,1.27.53,2.33,1.27,2.93,1.92,1.37,1.51-.58,3.22-1.73,1.82-.36-.43-.82-.86-1.37-1.25-.7,1.92-3.7,3.6-6.6,2.14ZM116.82,38.2c-.65.34-.7,1.03.02,1.39,1.44.72,3.38.02,3.65-1.27.02-.07,0-.17.02-.24-1.22-.41-2.52-.46-3.7.12ZM122.18,29.34c-1.32.07-1.42-1.92.12-2.06,1.58-.14,3.26.14,4.42.84,1.63.98.38,2.98-.79,2.23-1.13-.72-2.35-1.08-3.74-1.01Z"/>
        <path class="cls-3" d="M140.75,29.94c.24-.46.46-.84.77-1.25.38-.5.26-.48-.19-.34-1.8.58-1.39.58-3.02,1.2-.77.29-1.44.53-2.16.72-2.11.58-2.76-2.18-.84-2.59.5-.12,1.9-.38,2.66-.58,1.18-.29,3.29-.77,5.74-1.46,2.47-.7,4.42-1.27,6.53-1.42,1.49-.1,1.9,1.08,1.63,1.85-.14.41-.67.89-2.35.79-1.22-.07-2.74.38-3.55.67-1.34.48-2.57,1.92-3.1,2.81-2.11,3.53-.5,8.57,4.87,8.38,2.52-.1,2.69,2.74.14,2.71-7.25-.02-9.75-6.67-7.13-11.5ZM148.14,31.52c-1.27-.55-.31-2.04.86-1.61.67.24,1.97.91,2.52,1.51.98,1.06-.5,2.59-1.34,1.61-.34-.38-1.54-1.3-2.04-1.51ZM150.57,29.43c-1.3-.5-.36-2.04.82-1.66.67.22,1.97.86,2.54,1.44,1.01,1.01-.41,2.59-1.27,1.63-.34-.38-1.58-1.22-2.09-1.42Z"/>
        <path class="cls-3" d="M165.83,29.94c.24-.46.46-.84.77-1.25.38-.5.26-.48-.19-.34-1.8.58-1.39.58-3.02,1.2-.77.29-1.44.53-2.16.72-2.11.58-2.76-2.18-.84-2.59.5-.12,1.9-.38,2.66-.58,1.18-.29,3.29-.77,5.74-1.46,2.47-.7,4.42-1.27,6.53-1.42,1.49-.1,1.9,1.08,1.63,1.85-.14.41-.67.89-2.35.79-1.22-.07-2.74.38-3.55.67-1.34.48-2.57,1.92-3.1,2.81-2.11,3.53-.5,8.57,4.87,8.38,2.52-.1,2.69,2.74.14,2.71-7.25-.02-9.74-6.67-7.13-11.5ZM173.22,31.52c-1.27-.55-.31-2.04.86-1.61.67.24,1.97.91,2.52,1.51.98,1.06-.5,2.59-1.34,1.61-.34-.38-1.54-1.3-2.04-1.51ZM175.65,29.43c-1.3-.5-.36-2.04.82-1.66.67.22,1.97.86,2.54,1.44,1.01,1.01-.41,2.59-1.27,1.63-.34-.38-1.58-1.22-2.09-1.42Z"/>
        <path class="cls-3" d="M197.25,31.38c.43.65,1.66,2.71,1.78,3.86.19,1.7-1.22,2.11-2.47,1.25-.31-.22-.65-.34-.98-.41-1.9-.41-4.58-.48-5.93-.07-1.34.41-1.75,1.63-.48,2.38,1.2.7,3.05.96,4.97.86,2.21-.1,2.06,2.57-.22,2.5-2.21-.07-4.32-.38-6-1.42-2.81-1.73-2.47-5.62,1.37-6.38,2.28-.46,4.61-.26,6.1-.17.36.02.46-.1.36-.41-.05-.17-.22-.7-.6-1.34-.43-.74-1.01-1.61-1.58-2.52-.17.05-.31.07-.46.1-2.76.6-4.85.46-6.5-.41-1.49-.77-.74-2.95.98-2.11,1.54.77,2.86.72,4.66.31-.58-.94-1.1-1.8-1.39-2.45-.89-1.94,1.8-2.5,2.28-.77.14.55.62,1.46,1.25,2.57.34-.12.67-.24,1.03-.36.34-.12.55-.31.89-.48,1.94-.98,2.78,1.34,1.32,2.09-.62.31-1.32.62-1.99.86.55.86,1.13,1.73,1.63,2.52ZM199.62,26.22c-.24-.43-1.27-1.46-1.7-1.75-1.1-.72.07-1.97,1.1-1.37.58.34,1.68,1.18,2.11,1.82.74,1.15-.89,2.35-1.51,1.3ZM202.17,24.49c-.26-.41-1.3-1.42-1.75-1.68-1.13-.67,0-1.94,1.06-1.39.6.31,1.7,1.15,2.16,1.78.79,1.13-.82,2.33-1.46,1.3Z"/>
        <path class="cls-3" d="M211.43,38.36c-1.73-1.87-2.52-4.66-2.71-7.68-.1-1.37-.14-1.8-.12-2.66.05-1.51,2.38-1.82,2.45-.02.05.94-.05.98,0,2.09.1,2.52.55,4.9,1.9,6.19.62.6.94.67,1.46-.05.29-.41.62-1.03.79-1.42.65-1.39,2.64-.38,2.18.86-.24.67-.67,1.42-.94,1.85-1.54,2.5-3.67,2.28-5.02.84ZM224.42,34.14c-.38-1.92-1.37-3.77-2.66-4.66-1.15-.79.14-2.57,1.58-1.49,1.7,1.27,3.36,3.53,3.6,5.57.19,1.75-2.18,2.23-2.52.58Z"/>
        <path class="cls-3" d="M241.62,37.76c0-1.1.17-1.78.12-2.86-.12-2.66-3.77-.41-4.44.79-.58,1.03-1.25,2.09-1.51,3.26-.43,1.85-.96,1.97-1.44,2.04-.84.12-1.97-.46-1.42-1.85,1.08-2.71,2.45-5.11,3.84-7.27s2.64-4.2,3.82-6.07c.41-.67,1.06-1.51,1.32-1.99.79-1.42,3.02-.22,2.23,1.3-.19.34-.36.6-.55.84s-.43.5-.7.82c-1.15,1.3-1.92,2.3-2.54,3.19-.62.89-1.1,1.66-1.63,2.45-.17.24-.1.19.07.05.86-.77,5.02-1.9,5.35,2.16.07.94-.12,1.75-.12,2.64,0,2.14,2.06,1.87,3.48.6,1.22-1.1,1.75-2.26,2.18-3.36.7-1.78,3.22-.55,2.3,1.25-.67,1.32-1.61,2.88-3.02,3.98-2.59,2.04-7.39,2.57-7.34-1.97Z"/>
      </g>
    </g>
  </g>
</svg>