<?xml version="1.0" encoding="UTF-8"?>
<svg id="_レイヤー_2" data-name="レイヤー_2" xmlns="http://www.w3.org/2000/svg" viewBox="0 0 139.67 30.63">
  <defs>
    <style>
      .cls-1 {
        fill: #de6437;
      }

      .cls-2 {
        stroke-linecap: round;
        stroke-linejoin: round;
      }

      .cls-2, .cls-3, .cls-4 {
        fill: none;
        stroke-width: .5px;
      }

      .cls-2, .cls-4 {
        stroke: #223d67;
      }

      .cls-5 {
        letter-spacing: .03em;
      }

      .cls-3 {
        stroke: #de6437;
      }

      .cls-3, .cls-4 {
        stroke-miterlimit: 10;
      }

      .cls-6 {
        letter-spacing: .04em;
      }

      .cls-7 {
        fill: #173e6a;
        font-family: TsukuARdGothicStd-B-90ms-RKSJ-H, 'FOT-TsukuARdGothic Std';
        font-size: 13.49px;
      }
    </style>
  </defs>
  <g id="WSP:トップ">
    <g>
      <g>
        <g>
          <path class="cls-2" d="M34.15,26.58c-2.22.31-2.36-.68-4.58-.37s-2.08,1.3-4.3,1.61-2.36-.68-4.58-.37-2.08,1.3-4.3,1.61-2.36-.68-4.58-.37-2.08,1.3-4.3,1.61-2.36-.68-4.58-.37"/>
          <g>
            <rect class="cls-4" x="5.41" y="13.17" width="16.04" height="5.27" transform="translate(29.49 28.91) rotate(169.56)"/>
            <rect class="cls-4" x="8.03" y="9.35" width="8.84" height="3.92" transform="translate(26.75 20.18) rotate(169.56)"/>
            <path class="cls-4" d="M9.24,29.68c-4.41-.75-8.09-4.18-8.95-8.83h0s34.54-6.36,34.54-6.36h0c.9,4.89-1.59,9.61-5.8,11.76"/>
          </g>
        </g>
        <g>
          <circle class="cls-1" cx="23.03" cy="8.11" r="2.21"/>
          <line class="cls-3" x1="23.9" y1="4.81" x2="25.21" y2=".08"/>
          <line class="cls-3" x1="21.92" y1="4.82" x2="20.68" y2=".06"/>
          <line class="cls-3" x1="20.21" y1="5.81" x2="16.76" y2="2.31"/>
          <line class="cls-3" x1="16.76" y1="2.31" x2="20.21" y2="5.81"/>
          <line class="cls-3" x1="25.22" y1="10.52" x2="28.67" y2="14.02"/>
          <line class="cls-3" x1="19.22" y1="7.53" x2="14.49" y2="6.23"/>
          <line class="cls-3" x1="26.62" y1="9.49" x2="31.36" y2="10.8"/>
          <line class="cls-3" x1="26.61" y1="7.51" x2="31.37" y2="6.27"/>
          <line class="cls-3" x1="25.62" y1="5.8" x2="29.12" y2="2.35"/>
          <line class="cls-3" x1="23.9" y1="4.81" x2="25.21" y2=".08"/>
        </g>
      </g>
      <text class="cls-7" transform="translate(42.94 23.02)"><tspan class="cls-5" x="0" y="0">ふな</tspan><tspan class="cls-6" x="27.66" y="0">で</tspan><tspan class="cls-5" x="41.76" y="0">でざいん</tspan></text>
    </g>
  </g>
</svg>