<?xml version="1.0" encoding="UTF-8"?>
<svg id="_レイヤー_2" data-name="レイヤー_2" xmlns="http://www.w3.org/2000/svg" viewBox="0 0 342.08 262.29">
  <defs>
    <style>
      .cls-1 {
        fill: #79d3f1;
      }

      .cls-2 {
        fill: #211715;
      }

      .cls-3 {
        fill: #fff;
      }
    </style>
  </defs>
  <g id="_レイヤー_1-2" data-name="レイヤー_1">
    <g>
      <path class="cls-3" d="M192.12,170.89c-.59.04-1.17.14-1.74.29-18.33,4.79-74.32,19.42-93.26,24.33-.67.17-1.07.85-.9,1.52.11.44.45.78.89.9,8.83,2.41,24.63,6.7,37.66,10.23,21.76-5.87,68.41-18.4,100.8-27.21l-16.27-3.99c-6.74-1.65-17.52-4.2-24.32-5.83-.93-.22-1.9-.3-2.85-.24Z"/>
      <path class="cls-3" d="M240.33,26c-4.53,2.59-8.43,6.16-11.39,10.46-2.72,4.2-4.42,8.96-4.99,13.93-.52,2.61-.81,5.25-.88,7.91-.63,5.98-1.47,14.29-7.18,16.85-1.15.47-2.11,1.3-2.74,2.37-1.54,2.89.94,4.42,2.4,6.26.92,1.18,1.54,2.57,1.8,4.05-.03,2.92.16,5.84.57,8.74.25,2.04.76,4.03,1.52,5.94,1.07,2.78,3.17,5.03,5.87,6.29,4.42,2,10.59,3.06,14.69,2.27.99-.18,1.96.39,2.27,1.35,1.07,2.16,2,4.4,2.77,6.68l3.44,11.09,34.25-5.29c-.79-3.36-1.44-6.18-1.44-6.18-.37-2.23-.5-4.49-.38-6.75.88-5.15,7.62-9.8,11.38-13.33,5.79-5.44,14.43-16.24,15.17-32.11.26-8.5-1.8-16.91-5.97-24.32-9.57-16.61-21.49-20.24-28.89-21.73-7.12-1.33-14.45-1-21.42.97-3.81,1.01-7.46,2.55-10.85,4.56Z"/>
      <path class="cls-3" d="M189.29,184.99c1.67-.09,3.33-.27,4.98-.53,1.92-.27,3.85-.43,5.78-.6,1.45.34,2.85.85,4.18,1.51.71.43,1.49.93,1.68,1.7s-.67,1.71-1.42,1.34l-1.2,2.24c1.88,1.92,4.35,3.15,7.02,3.5,1.68-6.88,3.39-14.39,5.21-21.37-3.39-1.21-6.96-1.86-10.56-1.92-4.52-.1-8.95,1.24-12.64,3.85-.99.74-1.98,2.09-1.25,3.09l.18.46c-.46.18-.89.36-1.24.5-1.37.55-2.54,1.52-3.33,2.76-.4.68-.38,1.53.06,2.19.56.85,1.54,1.34,2.56,1.28Z"/>
      <path class="cls-3" d="M176.76,198.9c-.8-2.87-1.99-5.63-3.52-8.18-.39-.71-1-1.27-1.74-1.59-.87-.39-1.84-.46-2.76-.21-1.22.27-2.22,1.12-2.69,2.28-.99-2.58-3.18-4.53-5.86-5.21-2.35-.61-4.79-.84-7.21-.68-2.18.05-4.69,1.13-5.25,2.41-.56.03-1.12.1-1.66.21-.61.13-1.21.31-1.78.55-1.42.61-2.82,1.25-4.22,1.93-1,.42-1.66,1.37-1.72,2.45l.07.83c-1.11.37-2.16.91-3.1,1.61-.82.56-1.45,1.36-1.79,2.29-.33.96-.02,2.02.77,2.65l1.68,1.15c-.34.31-.66.64-.96.98-1.25,1.41-1.52,2.98-1.02,3.87.53.8,1.41,1.32,2.37,1.39.89.06,5.16-1.01,6.71-1.2,4.31,5.54,10.84,8.89,17.85,9.17l.6.29c2.13-5.94,8.89-13.56,15.25-16.99Z"/>
      <path class="cls-3" d="M294.07,123.13c9.35,4.37,17.05,13.21,20.82,23.89,1.78,5.5,2.98,11.16,3.59,16.91.65,4.95,1.13,19.57,1.14,34.49-12.77,3.77-27.95,8.24-39.27,11.53-4.95,1.44-8.49,5.8-8.89,10.94-.1,1.33-.2,2.65-.3,3.96-13.98,4.27-30.88,9.38-39.44,11.94-2.62,2.58-5.8,4.51-9.3,5.62-3.93,1.25-9.55,1.76-18.25-.59-4.3-1.44-8.44-3.3-12.38-5.55-12.3-6.79-26.32-15.42-30.32-20.29,2.3-6.57,10.32-15.24,17.22-18.01.23-.09.49-.09.72,0,4.85,1.82,37.03,10.69,27.59,7.89.94-2.61,1.73-5.26,2.37-7.96,3.68-14.5,7.4-33.1,12.08-43.42,4.01-8.84,13.14-16.45,20.86-21.17,1.34-.82,3.48-1.95,4.94-2.95l46.81-7.24Z"/>
      <path class="cls-3" d="M268.63,260.37c.91-13.05,1.77-25.57,2.83-39.46.39-5.15,3.93-9.52,8.89-10.96,15.44-4.49,38.06-11.18,51.96-15.27,3.21-.94,6.58.9,7.53,4.11.2.69.28,1.4.23,2.11-1.28,19.33-1.57,22.7-2.55,36.58l-68.88,22.89Z"/>
      <path class="cls-2" d="M6.85,155.93c46.62-10.77,129.76-29.7,166.01-37.95,1.77-.4,3.02-1.97,3.02-3.79,0-36.12-.01-72.25,0-108.38,0-2.14-1.73-3.88-3.87-3.88-.21,0-.42.02-.63.05C132.39,8.32,46.56,22.63,5.32,29.52c-1.87.31-3.23,1.93-3.23,3.83,0,15.4,0,81.07,0,118.81,0,2.14,1.73,3.88,3.88,3.88.29,0,.59-.03.87-.1Z"/>
      <path class="cls-1" d="M276.28,20.12c-1.26-.34-2.44-.61-3.53-.83-7.27-1.36-14.75-1.02-21.87.99-14.31,3.83-21.46,13.22-22.71,15.34-1.56,2.49-2.82,5.16-3.75,7.95,2.15,8.6,7.38,16.12,14.7,21.13h7.93c2.82,3.57,6.31,6.57,10.26,8.82.81-.51,1.72-.84,2.67-.95,1.69-.29,3.43.2,4.72,1.33,1.79,1.67,2.33,4.77,1.91,7.22-.65,4.83-3.69,9.01-8.09,11.11,1.77,7.54,2.68,10.75,2.18,17.1-.3,3.86-5.62,14.65-12.09,16.59,5.19,3.98,13.17,6.35,20.76,7.02,11.89,1.06,23.17-.8,28.6-4.3,4.42-2.85,7.49-5.06,9.42-10.03,1.02-2.64.47-6.9.09-9.36-1.4-9-3.92-13.82-.9-28.73.84-4.7,1.44-9.45,1.78-14.21.27-8.68-1.84-17.26-6.1-24.83-7.93-13.77-17.45-18.8-24.79-21.02-.39-.12-.78-.24-1.17-.34Z"/>
      <path class="cls-2" d="M140.06,207.51c-11.99-3.25-23.98-6.51-35.97-9.77l-3.43-.93-1.71-.46-.54-.15-.53-.14c-.47-.18-.39-.02.26.47.15.52-.82.83-.35.86.17-.02.34-.07.5-.13l.88-.23,2.47-.64c3.68-.96,7.36-1.91,11.04-2.87,19.15-4.98,38.3-9.98,57.44-14.98l13.52-3.53,5.23-1.37c.82-.21,1.65-.47,2.48-.64,2.08-.41,4.14.31,6.15.79,2.5.6,3.57-3.26,1.06-3.86-1.78-.53-3.6-.88-5.44-1.05-1.44,0-2.88.21-4.26.63l-4.76,1.24-11.96,3.12c-10.1,2.64-20.21,5.27-30.31,7.91-9.98,2.6-19.96,5.2-29.93,7.8-3.83,1-7.67,2-11.5,2.99-1.57.41-3.96.62-5.18,1.74-1.08,1.03-1.34,2.66-.63,3.97.73,1.36,2.23,1.62,3.58,1.99,13.6,3.72,27.21,7.42,40.82,11.09,2.49.68,3.55-3.18,1.06-3.86h0Z"/>
      <path class="cls-2" d="M192.79,176.78c-.04.4-.02.47.06.23.08-.17.2-.31.35-.43.25-.24.53-.46.83-.64.83-.56,1.71-1.04,2.62-1.45,1.88-.81,3.87-1.33,5.91-1.51,4.22-.3,8.45.29,12.42,1.75,2.44.83,3.49-3.04,1.06-3.86-5.31-1.95-11.05-2.45-16.62-1.43-3.56.75-13.04,4.13-10.09,9.37,1.26,2.24,4.72.23,3.45-2.02h0Z"/>
      <path class="cls-2" d="M197.88,174.51c-2.6.44-5.15,1.11-7.64,1.99-2.51,1.01-5.93,2.94-5.86,6.1.07,1.56.94,2.97,2.3,3.74,1.3.62,2.76.81,4.18.54,1.5-.14,2.99-.38,4.49-.56.78-.1,1.57-.18,2.35-.25.36-.03.72-.07,1.09-.1l.72-.06.36-.03c.25,0,.24-.02-.02-.04.04.06-.34-.11-.1,0,.08.03.17.04.25.06.23.07.46.13.69.21.53.17,1.06.37,1.59.56.33.12.65.27.96.45.07.04.68.51.73.51.11-.02-.25.21,0-.15.29-.39-.17-1.37,1.06-.97-2.46-.79-3.51,3.07-1.06,3.86,1.66.47,3.39-.5,3.85-2.16,0-.03.02-.07.03-.1.42-1.73-.68-3.12-2-4.05-.91-.59-1.9-1.06-2.93-1.39-.81-.35-1.66-.6-2.54-.74-1.56-.04-3.12.09-4.66.38-1.57.18-3.13.44-4.71.59-.48.05-2.38.47-2.59-.24-.18-.59,1.47-1.61,1.92-1.84,2.64-1.4,5.73-1.8,8.61-2.42,2.51-.54,1.45-4.4-1.06-3.86h0Z"/>
      <path class="cls-2" d="M210.31,192.15h-.11s.53.06.53.06c-.62-.09-1.24-.22-1.84-.4-.31-.09-.61-.2-.91-.32-.07-.03-.15-.05-.21-.09.06.03.41.18.16.07-.15-.07-.31-.14-.46-.22-.56-.28-1.1-.61-1.61-.97l-.18-.13c-.22-.16.07.07.13.1-.13-.08-.25-.18-.35-.29-.26-.22-.51-.46-.75-.7-.78-.78-2.05-.78-2.83,0-.78.78-.78,2.05,0,2.83h0c1.07,1.09,2.31,1.99,3.67,2.67,1.5.73,3.11,1.2,4.76,1.4.53,0,1.04-.21,1.41-.59.78-.78.78-2.05,0-2.83-.39-.35-.89-.55-1.41-.59h0Z"/>
      <path class="cls-2" d="M168.2,191.45c.11-.09.22-.19.32-.3-.2.15-.24.19-.12.11.06-.04.12-.08.18-.11.13-.08.26-.15.4-.2-.26.07-.17.07.04,0,.15-.06.3-.11.46-.15.08-.02.15-.04.23-.05l-.21.03c.1-.06.37,0,.49,0,.5.01-.36-.1.14.02.17.04.33.09.5.14.4.11-.21-.17.12.05.1.07.21.13.32.19.12.08.08.05-.11-.09.06.05.11.1.16.15s.23.18.26.27c-.15-.21-.17-.23-.04-.04l.08.13c.17.26.32.54.47.81.29.53.57,1.08.83,1.63.15.31.29.63.43.95.07.16.14.32.21.49-.14-.32.03.07.07.18.51,1.25.96,2.51,1.36,3.8.29,1.07,1.4,1.69,2.46,1.4s1.69-1.4,1.4-2.46c-.51-1.62-1.1-3.21-1.76-4.77-.56-1.4-1.23-2.75-2.01-4.04-1.03-1.63-2.79-2.67-4.72-2.79-1.79-.1-3.53.57-4.79,1.84-.78.78-.78,2.05,0,2.83.78.78,2.05.78,2.83,0h0Z"/>
      <path class="cls-2" d="M167.46,189.37c-1.64-3.3-5.2-5.21-8.73-5.76-3.58-.56-8.2-.87-11.25,1.47-.92.58-1.24,1.78-.72,2.74.56.95,1.78,1.27,2.74.72,1.01-.76,2.22-1.19,3.49-1.22,1.56-.09,3.13-.04,4.68.16,2.59.38,5.13,1.49,6.34,3.93.56.95,1.78,1.28,2.74.72s1.28-1.78.72-2.74h0Z"/>
      <path class="cls-2" d="M155.15,187.08c-3.29-1.16-6.9-1.88-10.33-.9-1.74.59-3.44,1.31-5.07,2.17-1.84.87-3.43,2.31-3.4,4.5.03,2.57,4.03,2.58,4,0,0-.11.07-.29,0-.15-.07.17.09-.13.1-.14s.32-.26.35-.28c.67-.37,1.37-.71,2.09-1,1.16-.61,2.38-1.09,3.65-1.41.62-.13,1.26-.19,1.89-.16.38.01.76.05,1.14.09.21.02.41.04.62.07.07,0,.35.05.13.02,1.28.23,2.54.59,3.76,1.05,1.06.28,2.16-.34,2.46-1.4.27-1.06-.35-2.15-1.4-2.46h0Z"/>
      <path class="cls-2" d="M148.19,191.02c-4.02-.44-8.35-.3-12.06,1.46-1.79.75-3.27,2.08-4.21,3.79-1,1.98-.42,4.39,1.37,5.71.95.55,2.17.23,2.74-.72.53-.96.21-2.16-.72-2.74.07.06.14.07.19.16-.17-.3,0,.05-.06-.15-.08-.3,0,.26-.01-.05,0-.04,0-.42,0-.23,0,.24.1-.27,0-.07.06-.14.13-.27.21-.4.11-.18.25-.34.4-.47.93-.85,2.05-1.47,3.27-1.81,2.9-.75,5.92-.92,8.88-.48,1.1,0,1.99-.9,2-2-.02-1.09-.91-1.98-2-2h0Z"/>
      <path class="cls-2" d="M137.75,197.73c-1.57.82-2.97,1.91-4.15,3.23-1.27,1.45-2.24,3.46-1.7,5.43.68,1.93,2.49,3.23,4.54,3.25,1.14-.06,2.26-.25,3.36-.54.68-.14,1.37-.29,2.05-.42.31-.06.62-.12.93-.18.14-.03.28-.05.42-.07.05,0,.1-.01.15-.02.3-.05-.57.07-.26.03.53-.02,1.03-.23,1.41-.59.37-.38.58-.89.59-1.41-.04-.97-.89-2.14-2-2-2.13.26-4.2.84-6.32,1.18-.09.01-.18.02-.28.04.72-.13.37-.05.19-.03-.11,0-.5-.02-.2.03.35.06-.15-.04-.23-.06-.08-.04-.16-.06-.25-.08.02,0,.35.18.17.07-.12-.1-.26-.17-.4-.24.17,0,.27.26.09.07-.07-.08-.15-.16-.23-.23-.15-.14.13.14.12.16s-.09-.17-.1-.18c.03.03.15.5.1.22,0-.05-.02-.1-.04-.14-.1-.21,0,.47.03.23,0-.05,0-.11,0-.16v-.22c0-.28,0,.13-.03.19.06-.15.09-.32.12-.48.02-.06.04-.12.06-.18.07-.25-.18.34-.05.1.08-.15.15-.3.24-.44.05-.09.11-.17.16-.26.11-.18.05-.11-.04.02.5-.65,1.08-1.23,1.74-1.72.04-.03.23-.18.02-.02-.24.19.09-.06.14-.1.16-.11.31-.22.48-.32.38-.25.78-.48,1.18-.69.95-.56,1.27-1.78.72-2.74-.57-.93-1.78-1.25-2.74-.72h0Z"/>
      <path class="cls-2" d="M141.69,207.89c4.69,5.88,11.71,9.43,19.23,9.71,2.57.1,2.57-3.9,0-4-6.45-.3-12.45-3.43-16.4-8.54-.78-.78-2.04-.78-2.83,0-.75.79-.75,2.04,0,2.83h0Z"/>
      <path class="cls-2" d="M178.39,198.45c6.23-1.68,12.45-3.36,18.67-5.04,2.48-.67,1.43-4.53-1.06-3.86-6.22,1.69-12.45,3.37-18.67,5.04-2.48.67-1.43,4.53,1.06,3.86Z"/>
      <path class="cls-2" d="M246.25,128.64c-2.35,1.57-4.88,2.85-7.23,4.41-2.41,1.6-4.73,3.34-6.94,5.2-4.65,3.74-8.56,8.33-11.51,13.52-2.29,4.65-4.09,9.53-5.37,14.56-1.67,5.8-3.08,11.68-4.49,17.55-1.57,6.57-2.91,13.27-5.02,19.69-.81,2.45,3.05,3.5,3.86,1.06,1.81-5.49,3-11.21,4.34-16.83,1.38-5.8,2.75-11.61,4.32-17.37,1.22-4.91,2.8-9.72,4.73-14.39,2.37-5.06,5.78-9.57,10-13.23,2.3-2.1,4.74-4.03,7.32-5.78,2.6-1.77,5.4-3.18,8.01-4.93,2.13-1.43.13-4.89-2.02-3.45h0Z"/>
      <path class="cls-2" d="M299.43,128.72c7.9,6,12.88,14.88,15.15,24.42,2.03,8.51,2.49,17.12,2.75,25.82.19,6.39.27,12.78.28,19.16,0,2.57,4,2.58,4,0-.01-10.4-.05-20.87-.84-31.25-.76-9.94-2.77-20.3-7.95-28.94-2.94-4.91-6.8-9.21-11.37-12.67-.95-.55-2.17-.23-2.74.72-.53.96-.21,2.16.72,2.74h0Z"/>
      <path class="cls-2" d="M257.44,75.9c1.8-1.53,4.94-2.18,6.43.12,1.36,2.11.92,4.87.19,7.11-1.53,4.7-5.51,7.4-10.11,8.69-2.48.69-1.42,4.55,1.06,3.86,4.96-1.39,9.56-4.23,11.88-8.98,1.26-2.41,1.88-5.09,1.83-7.81-.17-2.93-1.38-6.09-4.14-7.5-3.42-1.74-7.18-.7-9.98,1.67-.77.78-.77,2.04,0,2.83.79.76,2.04.76,2.83,0h0Z"/>
      <path class="cls-2" d="M225.79,66.48c-.81,1.68-1.15,5.78,1.96,6.65,4.19.66,5.24-4.2,4.21-6.74-.84-2.08-4.1-3.42-6.17.09Z"/>
      <path class="cls-2" d="M246.98,118.56c-.56-1.68-1.21-3.33-1.93-4.95-.23-.51-.46-1.01-.7-1.51-.07-.15-.14-.31-.22-.46-.22-.39.27.66-.04-.07-.63-1.59-2.2-2.6-3.91-2.53-1.49.06-2.91.33-4.43.25-3.25-.16-6.44-.91-9.42-2.22-2.58-1.23-4.53-3.47-5.38-6.2-1.08-3.58-1.61-7.3-1.59-11.03.06-1.69-.23-3.37-.85-4.95-.68-1.42-1.59-2.7-2.7-3.81-.69-.75-1.46-1.49-.93-2.54.63-1.26,2.12-1.58,3.21-2.31,2.23-1.61,3.91-3.87,4.8-6.47,2.57-6.58,1.72-13.83,3.39-20.6.62-2.5-3.24-3.56-3.86-1.06-1.54,6.23-.99,12.76-2.82,18.92-.66,2.23-1.72,4.66-3.79,5.92-1.32.8-2.66,1.33-3.68,2.56-1.17,1.33-1.67,3.13-1.34,4.87.66,2.9,3.72,4.31,4.44,7.21.21,1.58.29,3.18.24,4.78.13,1.98.36,3.96.71,5.91.48,3.56,2.01,6.89,4.38,9.59,2.16,2.26,5.14,3.43,8.09,4.26,3.64,1.06,7.46,1.39,11.23.98.67-.08.38-.3.67.36.16.37.35.72.52,1.09.78,1.65,1.46,3.35,2.03,5.08.8,2.43,4.67,1.39,3.86-1.06h0Z"/>
      <path class="cls-2" d="M224.09,88.58c-1.06.34-2.15.6-3.25.76l.53-.07c-1.01.14-2.04.16-3.06.04l.53.07c-.25-.03-.5-.07-.74-.12-1.07-.29-2.17.33-2.46,1.4-.29,1.07.33,2.17,1.4,2.46,2.72.47,5.51.24,8.11-.68,1.07-.29,1.69-1.4,1.4-2.46-.29-1.07-1.4-1.69-2.46-1.4h0Z"/>
      <path class="cls-2" d="M222.95,45.83c2.57,8.38,7.92,15.65,15.15,20.6.96.55,2.17.23,2.74-.72.53-.96.22-2.17-.72-2.74-6.36-4.4-11.05-10.81-13.32-18.21-.75-2.46-4.61-1.41-3.86,1.06h0Z"/>
      <path class="cls-2" d="M237.82,55.05c4.62,7.17,9.47,14.48,16.77,19.2,2.17,1.4,4.18-2.06,2.02-3.45-6.69-4.32-11.1-11.19-15.33-17.76-1.39-2.16-4.85-.15-3.45,2.02h0Z"/>
      <path class="cls-2" d="M225.03,50.13c.51-4.05,1.78-7.97,3.74-11.55.51-.96,1.07-1.9,1.68-2.8.1-.15.21-.29.32-.43.28-.38-.16.2.16-.2s.66-.8,1-1.18c4.66-5.16,10.62-8.98,17.24-11.08,14.1-4.56,30.51-2.74,41.72,7.41,6.67,6.08,11.48,13.93,13.88,22.63,2.35,8.6,1.67,17.57.02,26.25-.9,4.19-1.45,8.45-1.64,12.73-.04,3.24.24,6.48.84,9.67.53,2.99,1.23,5.94,1.65,8.95.34,1.94.41,3.91.23,5.87-.33,1.84-1.11,3.58-2.27,5.04-2.31,2.82-5.25,5.07-8.58,6.56-3.55,1.54-7.33,2.49-11.18,2.83-9.49,1.09-19.96.57-28.78-3.42-1.93-.86-3.75-1.93-5.45-3.19-.95-.55-2.17-.23-2.74.72-.53.96-.21,2.16.72,2.74,8.03,6.05,19,7.64,28.79,7.6,5.03.03,10.04-.56,14.93-1.76,3.76-.99,7.31-2.67,10.45-4.98,3.48-2.49,6.56-5.75,7.76-9.97,1.09-3.85.21-8.23-.5-12.08-.56-3.02-1.29-6.03-1.62-9.08-.38-3.79-.3-7.61.25-11.38.57-4.13,1.47-8.18,1.96-12.32.77-5.09.88-10.27.34-15.39-1.43-10.01-5.76-19.39-12.44-26.98-4.76-5.55-10.9-9.76-17.79-12.22-8.09-2.75-16.76-3.33-25.14-1.69-14.23,2.66-27.7,11.5-32.13,25.8-.66,2.27-1.13,4.59-1.4,6.94,0,1.1.9,1.99,2,2,1.09-.03,1.97-.91,2-2h0Z"/>
      <path class="cls-2" d="M256.93,94.25c.95,3.41,1.57,6.91,1.86,10.44.04.86.04,1.73.01,2.59-.01.4-.03.8-.06,1.21,0,.12-.13,1.35-.05.8-.17.97-.44,1.93-.81,2.84-.97,2.53-2.29,4.91-3.94,7.06-1.51,1.98-3.45,4.03-5.88,4.81s-1.4,4.64,1.06,3.86c6.13-1.96,10.18-8.51,12.43-14.17,2.61-6.56.78-13.91-.77-20.5-.59-2.5-4.45-1.44-3.86,1.06h0Z"/>
      <path class="cls-2" d="M69.72,250.74c10.19-2.8,20.36-5.66,30.53-8.52,12.84-3.61,25.67-7.25,38.5-10.93,4.81-1.38,9.62-2.76,14.4-4.22,2.46-.75,1.41-4.61-1.06-3.86-10.12,3.08-20.31,5.93-30.49,8.82-12.83,3.64-25.66,7.26-38.5,10.84-4.81,1.34-9.62,2.68-14.43,4.01-2.48.68-1.43,4.54,1.06,3.86h0Z"/>
      <path class="cls-2" d="M270.63,260.37c.87-12.5,1.74-24.99,2.68-37.48.19-2.5.48-4.73,1.89-6.86,1.21-1.8,2.95-3.18,4.99-3.92,2.24-.8,4.59-1.36,6.87-2.02,2.48-.73,4.97-1.45,7.45-2.18,10.21-2.99,20.41-6,30.61-9.01l6.52-1.92c1.9-.56,3.65-.87,5.22.64,1.8,1.73,1.13,4.39.98,6.61-.17,2.62-.35,5.24-.53,7.85-.58,8.48-1.2,16.95-1.8,25.42-.18,2.57,3.82,2.56,4,0,.56-7.92,1.15-15.84,1.69-23.76.18-2.59.35-5.18.53-7.77.19-2.85.84-5.97-.34-8.68-.98-2.24-2.92-3.92-5.28-4.57-2.51-.67-4.84.2-7.23.9-10.52,3.1-21.04,6.2-31.55,9.3-5.22,1.53-10.45,3.06-15.68,4.59-2.55.6-4.95,1.73-7.04,3.31-1.95,1.63-3.44,3.75-4.31,6.14-1.17,3.15-1.05,6.78-1.29,10.09-.28,3.71-.55,7.42-.81,11.14-.53,7.4-1.05,14.8-1.56,22.21-.18,2.57,3.82,2.56,4,0h0Z"/>
      <path class="cls-2" d="M209.02,204.42c-7.93-1.9-15.79-4.31-23.6-6.65-1.6-.48-3.21-.96-4.79-1.5-1.15-.43-2.43-.35-3.52.22-1.41.65-2.76,1.43-4.02,2.33-5.31,3.73-10.27,9.02-12.89,15.02-.43.73-.67,1.55-.68,2.4.18.72.59,1.36,1.16,1.83.79.82,1.62,1.59,2.5,2.31,2.42,1.98,4.93,3.83,7.54,5.55,6.3,4.23,12.88,8.07,19.52,11.75,3.68,2.1,7.53,3.91,11.49,5.41,3.65,1.29,7.46,2.07,11.33,2.3,5.38.44,10.75-.8,15.4-3.54,2.95-1.73,5.46-4.12,7.34-6.98,1.74-2.95,3.21-6.05,4.39-9.27,2.81-7.35,5.1-14.89,6.86-22.56.5-1.98.98-3.97,1.48-5.95.62-2.5-3.24-3.57-3.86-1.06-2.17,8.78-4.22,17.67-7.42,26.15-1.25,3.58-2.82,7.04-4.7,10.34-1.95,3.02-4.73,5.41-8,6.9-5.78,2.82-12.36,2.31-18.44.82-4.5-1.26-8.83-3.1-12.86-5.47-3.9-2.13-7.76-4.35-11.58-6.65-3.92-2.36-7.81-4.8-11.55-7.45-2.66-1.72-5.09-3.78-7.23-6.11l.51,1.95c1.49-3.64,3.7-6.94,6.51-9.69,1.41-1.5,2.95-2.88,4.59-4.12,1.43-1.06,3.3-2.53,5.09-2.88h-1.06c1.46.37,2.9.82,4.32,1.35,2.24.68,4.49,1.34,6.74,1.99,4.68,1.35,9.38,2.68,14.08,3.97,1.43.39,2.85.8,4.29,1.14,2.5.6,3.57-3.26,1.06-3.86h0Z"/>
      <path class="cls-2" d="M7.39,157.86c18.6-4.3,37.21-8.57,55.82-12.82,20.43-4.67,40.85-9.34,61.28-13.99,16.22-3.7,32.52-7.17,48.69-11.09,2.7-.61,4.64-2.99,4.7-5.76.17-3.48,0-7.01,0-10.49V8.07c.14-1.47,0-2.95-.41-4.37-.49-1.27-1.41-2.33-2.59-3.01-2.04-1.13-4.16-.61-6.32-.26l-5.12.84c-3.9.64-7.8,1.28-11.7,1.92-18.93,3.11-37.85,6.24-56.77,9.39-19.91,3.31-39.83,6.62-59.74,9.94-8.25,1.38-16.5,2.75-24.75,4.13-1.74.29-3.48.57-5.22.87-2.6.35-4.67,2.36-5.09,4.95-.2,2.4-.23,4.81-.08,7.22v108.66c0,2.12-.32,4.51.64,6.47,1.27,2.41,4,3.66,6.65,3.05,2.53-.47,1.46-4.32-1.06-3.86-2.41.45-2.22-2.36-2.22-3.88V35.31c0-1-.24-2.38.44-3.18.63-.55,1.44-.85,2.28-.84l2.7-.45,5.46-.91,11.7-1.95c18.79-3.13,37.58-6.26,56.37-9.39,19.16-3.18,38.32-6.36,57.48-9.52,7.91-1.3,15.81-2.6,23.72-3.9l5.14-.84c1.4-.23,3.43-.97,4.28.63.54,1.02.21,2.76.21,3.86v15.49c0,27.64,0,55.27,0,82.91v5c0,1.11.3,2.51-.59,3.36-.64.44-1.38.7-2.15.76l-2.35.54-10.47,2.38c-8.24,1.87-16.47,3.75-24.71,5.63-19.58,4.46-39.15,8.93-58.72,13.4-19.01,4.35-38.02,8.7-57.02,13.07-3.85.89-7.7,1.78-11.56,2.66-2.51.57-1.45,4.43,1.06,3.85Z"/>
      <path class="cls-1" d="M28.52,62.39l5.34-.82c.69-.1,1.32-.44,1.78-.97.46-.55.72-1.24.73-1.95,0-.66-.27-1.3-.76-1.75-.49-.43-1.14-.63-1.79-.56l-5.34.81c-.66.09-1.27.41-1.71.91-.45.53-.69,1.2-.69,1.9,0,.67.26,1.32.72,1.81.45.46,1.09.69,1.73.62h0Z"/>
      <path class="cls-1" d="M43.8,60.37c1.65-.24,2.88-1.63,2.92-3.29-.02-1.45-1.21-2.6-2.66-2.58-.1,0-.21,0-.31.02-1.62.19-2.85,1.54-2.89,3.17,0,1.49,1.2,2.69,2.69,2.69.08,0,.17,0,.25-.01Z"/>
      <path class="cls-1" d="M55.07,58.3l6.84-1.06c.74-.1,1.42-.45,1.94-.99.5-.53.78-1.23.8-1.96,0-.67-.3-1.31-.82-1.74-.55-.43-1.25-.62-1.95-.53-2.3.36-4.58.71-6.84,1.06-.72.09-1.39.43-1.9.95-.49.52-.77,1.2-.77,1.91,0,.68.29,1.33.8,1.78.53.45,1.22.66,1.91.58h0Z"/>
      <path class="cls-1" d="M72.02,55.67l3.4-.53c.38-.03.75-.15,1.07-.35.34-.15.65-.37.89-.65.26-.26.46-.57.57-.92.17-.32.25-.68.24-1.04,0-.68-.3-1.32-.82-1.74-.56-.43-1.27-.63-1.97-.53l-3.4.53c-.74.11-1.42.45-1.96.96-.26.25-.45.55-.57.89-.17.31-.25.67-.23,1.03,0,.68.3,1.33.82,1.78.55.45,1.26.66,1.96.57h0Z"/>
      <path class="cls-3" d="M88,44.83c-1.23,1.82-1.81,4-1.62,6.19.09,1.18.39,2.34.89,3.42.44.83,1,1.6,1.65,2.28.54.47,1.26.69,1.97.6.76-.1,1.46-.46,1.97-1.02.51-.55.8-1.28.81-2.03-.03-.69-.33-1.34-.82-1.83-.23-.26.18.2.2.23-.06-.08-.12-.15-.18-.22-.1-.13-.21-.26-.3-.4-.19-.27-.35-.55-.49-.84l.28.61c-.22-.51-.37-1.05-.45-1.6.03.23.07.46.1.69-.12-.81-.12-1.64-.02-2.45l-.1.7c.09-.57.25-1.12.48-1.65-.09.22-.19.43-.28.65.21-.46.45-.91.73-1.33.69-1.01.44-2.39-.57-3.09-.13-.09-.28-.17-.43-.23-1.43-.47-3,.07-3.82,1.33Z"/>
      <path class="cls-3" d="M16.13,55.99c-1.01,1.84-1.44,3.94-1.26,6.04.07,1.2.32,2.37.73,3.5.35.85.8,1.66,1.34,2.41.39.48,1,.74,1.61.69.66-.09,1.24-.45,1.62-.99.44-.6.67-1.32.67-2.06-.03-.69-.27-1.35-.7-1.89-.19-.27.15.2.17.24-.05-.08-.1-.16-.15-.23-.09-.14-.17-.27-.25-.42-.16-.28-.29-.57-.41-.87.08.21.16.41.24.62-.19-.53-.32-1.07-.38-1.63.03.23.06.46.09.7-.1-.81-.11-1.63-.03-2.45-.03.23-.05.46-.08.69.07-.55.2-1.09.38-1.61-.08.21-.15.42-.23.63.17-.44.36-.87.59-1.29.65-1.13.27-2.58-.86-3.24-1.18-.5-2.53,0-3.1,1.15h0Z"/>
      <path class="cls-3" d="M101.85,45.72c-.56-.61-.14-.15-.02,0,.1.13.2.26.29.39.18.26.34.54.47.83-.09-.2-.18-.4-.28-.59.24.54.4,1.12.48,1.71l-.1-.69c.11.81.11,1.62,0,2.43l.1-.72c-.08.52-.22,1.03-.43,1.52l.28-.67c-.22.5-.48.99-.78,1.46-.75,1.21-.38,2.8.83,3.54.05.03.1.06.16.09,1.43.55,3.04-.04,3.77-1.39,1.13-1.81,1.7-3.92,1.64-6.06-.01-1.05-.22-2.1-.59-3.08-.46-1.05-1.11-2-1.92-2.8-.56-.42-1.26-.6-1.95-.5-.74.09-1.43.43-1.96.96-.5.49-.79,1.16-.81,1.87.04.65.33,1.27.81,1.72h0Z"/>
      <path class="cls-3" d="M132.82,54.24c-1.15,2.09-1.68,4.46-1.52,6.84.07,1.27.34,2.53.8,3.72.39.88.89,1.71,1.49,2.46.46.49,1.12.74,1.79.67.71-.1,1.35-.47,1.78-1.04.47-.61.73-1.36.74-2.13-.02-.72-.28-1.41-.72-1.97-.21-.28.16.21.18.25-.05-.08-.11-.16-.16-.24-.09-.14-.18-.29-.27-.44-.17-.3-.31-.6-.43-.92.08.22.17.44.25.66-.2-.57-.33-1.15-.4-1.75.03.25.06.5.09.75-.1-.89-.1-1.79,0-2.68-.03.26-.06.51-.09.77.08-.61.23-1.21.43-1.79l-.26.7c.19-.5.41-.98.66-1.45.72-1.3.34-2.93-.89-3.77-1.33-.58-2.88.02-3.47,1.35h0Z"/>
      <path class="cls-3" d="M142.81,56.15c-.49-.69-.12-.17-.02,0,.09.14.17.29.25.44.16.3.29.6.41.92-.08-.22-.16-.44-.24-.65.21.61.35,1.24.42,1.87l-.08-.75c.09.87.09,1.75,0,2.62l.09-.77c-.07.55-.2,1.09-.38,1.62l.25-.71c-.19.53-.42,1.04-.68,1.54-.69,1.34-.26,3.26.86,3.86,1.2.64,2.56.07,3.28-1.36,1-1.97,1.49-4.16,1.42-6.38-.01-1.14-.18-2.27-.5-3.36-.38-1.14-.93-2.22-1.64-3.18-.43-.48-1.05-.72-1.69-.66-.68.09-1.29.44-1.71.98-.46.59-.71,1.31-.72,2.05.02.7.27,1.38.71,1.93h0Z"/>
      <path class="cls-3" d="M118.47,38.38c-2.16.11-3.74,2.09-4.3,3.95-.19.62-.31,1.25-.47,1.88-.13.49.31-.54.05-.1-.06.14-.13.27-.23.39l.25-.35c-.15.15-.13.14.07-.04.21-.17.23-.19.06-.07.46-.21.55-.27.29-.19-1.27.47-2.07,1.74-1.95,3.1.19,1.28,1.37,2.19,2.66,2.03-.23.04-.46.01-.67-.08-.23-.09-.27-.09-.09-.02-.34-.25-.44-.31-.28-.18.05.04.1.09.15.13,0,0-.41-.58-.08-.06.06.1.19.48.07.08-.14-.44.04.13.07.22.05.13.09.26.13.39.1.31.21.63.34.93.3.86.82,1.62,1.5,2.22.48.4,1.06.68,1.67.81.65.11,1.32.04,1.94-.18.68-.28,1.25-.78,1.6-1.44.35-.66.45-1.42.27-2.14-.4-1.29-1.77-2.02-3.06-1.63-.07.02-.14.05-.22.08.42-.16.88-.16,1.29,0-.38-.16.32.32.14.1-.3-.36.07.01.08.12-.06-.14-.14-.27-.23-.4.14.35.18.43.11.24-.03-.08-.06-.15-.08-.23-.04-.13-.09-.26-.13-.39-.09-.29-.19-.58-.3-.85-.28-.81-.75-1.55-1.38-2.14-.79-.65-1.8-.97-2.82-.89.24,1.68.47,3.39.71,5.13,1.84-.55,2.97-2.5,3.39-4.19.15-.61.27-1.22.46-1.82.1-.33-.3.57-.05.17.28-.45-.45.45-.08.09s-.55.37-.12.11l-.41.22c-.51.09-.62.13-.34.11,1.47-.19,2.6-1.41,2.68-2.89-.02-1.28-1.08-2.29-2.35-2.27-.11,0-.21.01-.31.03h0Z"/>
      <path class="cls-3" d="M46.05,77.85l5.33-.89c.75-.12,1.42-.52,1.89-1.11.5-.64.77-1.43.77-2.25,0-.76-.28-1.5-.8-2.05-.5-.5-1.2-.75-1.9-.68l-5.33.86c-.73.11-1.39.49-1.85,1.07-.49.64-.75,1.43-.75,2.23,0,.77.27,1.52.78,2.1.47.52,1.16.78,1.86.71h0Z"/>
      <path class="cls-3" d="M63.04,75.01l2.56-.43c.38-.03.75-.16,1.06-.38.35-.17.65-.42.88-.73.26-.3.46-.65.57-1.04.17-.37.25-.78.23-1.19-.03-.26-.07-.53-.1-.79-.12-.47-.37-.9-.71-1.24l-.56-.4c-.43-.22-.91-.31-1.39-.25-.84.11-1.71.28-2.56.41-.38.03-.74.15-1.05.37-.35.16-.65.41-.88.71-.26.29-.45.64-.56,1.02-.17.37-.25.78-.23,1.18l.1.79c.12.48.36.91.71,1.27l.56.42c.42.23.9.32,1.38.26h0Z"/>
      <path class="cls-1" d="M81.12,72c3.69-.61,7.39-1.22,11.08-1.82,1.59-.28,2.76-1.65,2.78-3.27.05-1.4-1.04-2.58-2.45-2.63-.11,0-.23,0-.34.01-3.69.59-7.39,1.18-11.09,1.78-1.59.26-2.77,1.64-2.78,3.25-.06,1.43,1.05,2.63,2.48,2.69.11,0,.21,0,.32,0h0Z"/>
      <path class="cls-1" d="M104.65,68.14l1.87-.3c.38-.03.74-.15,1.06-.37.35-.16.65-.4.88-.7.26-.29.46-.63.57-1,.17-.36.25-.75.24-1.15-.03-.25-.07-.51-.1-.76-.12-.46-.36-.87-.7-1.2-.18-.13-.37-.26-.55-.39-.43-.22-.91-.31-1.38-.25-.61.08-1.25.2-1.87.3-.38.03-.74.15-1.06.36-.35.16-.65.4-.89.69-.26.28-.46.62-.57.99-.17.36-.25.75-.24,1.15.03.25.07.51.1.77.12.46.37.89.71,1.22.19.13.37.27.56.4.43.22.91.31,1.39.25v-.02Z"/>
      <path class="cls-1" d="M119.46,65.75l5.7-.91c.72-.11,1.38-.48,1.85-1.04.49-.6.76-1.35.77-2.12.01-.72-.26-1.43-.76-1.95-.49-.48-1.16-.72-1.85-.65-1.89.29-3.79.59-5.71.89-.73.1-1.41.47-1.89,1.03-.5.59-.78,1.34-.79,2.12-.01.73.27,1.44.78,1.97.5.49,1.19.73,1.89.65h0Z"/>
      <path class="cls-3" d="M33.93,110.83c1.47-.2,2.88-2.16,2.8-4.21s-1.28-3.64-2.85-3.43c-1.47.19-2.84,2.13-2.76,4.19s1.24,3.67,2.81,3.45h0Z"/>
      <path class="cls-3" d="M44.32,108.28l2.13-.43c.37-.04.73-.19,1.01-.43.34-.2.63-.48.84-.81.26-.34.44-.74.54-1.15.16-.42.24-.87.22-1.32l-.1-.88c-.11-.51-.35-.99-.69-1.38l-.54-.45c-.4-.25-.87-.35-1.33-.28-.69.11-1.42.28-2.13.42-.37.03-.72.18-1,.42-.34.2-.63.47-.83.81-.25.35-.43.74-.53,1.16-.16.42-.23.88-.21,1.33l.1.89c.11.52.34,1,.67,1.4l.53.46c.39.25.86.34,1.32.28h0Z"/>
      <path class="cls-3" d="M56.77,105.75l6.1-1.23c.77-.15,1.46-.6,1.92-1.24.51-.71.79-1.56.79-2.43.01-.81-.28-1.6-.81-2.21-.49-.54-1.22-.8-1.94-.7-2.05.4-4.08.79-6.11,1.18-.77.15-1.45.59-1.9,1.22-.5.72-.77,1.58-.77,2.46-.01.82.27,1.62.8,2.24.48.54,1.19.81,1.91.71h0Z"/>
      <path class="cls-3" d="M75.82,101.92c4.18-.83,8.37-1.66,12.56-2.49,1.64-.4,2.79-1.88,2.77-3.57-.07-1.64-1.22-3.1-2.78-2.8-4.19.79-8.39,1.59-12.57,2.39-1.65.41-2.8,1.91-2.75,3.61.07,1.68,1.23,3.17,2.78,2.86h0Z"/>
      <path class="cls-3" d="M111.86,95.21c1.8-.42,3.06-2.03,3.03-3.87-.07-1.86-1.32-3.28-3.02-3.06-1.8.4-3.08,2.02-3.04,3.87.07,1.88,1.34,3.3,3.04,3.07Z"/>
      <path class="cls-3" d="M132.12,91.31c1.71-.42,2.9-1.98,2.85-3.74-.06-1.81-1.23-3.21-2.83-3.01-1.73.4-2.93,1.96-2.89,3.74.07,1.83,1.26,3.22,2.87,3.01h0Z"/>
      <path class="cls-3" d="M141.73,89.5c1.66-.42,2.8-1.95,2.73-3.67-.06-1.79-1.17-3.17-2.71-2.99-1.68.41-2.83,1.94-2.77,3.67.06,1.8,1.21,3.19,2.75,2.99Z"/>
      <path class="cls-3" d="M120.73,93.12l2.81-.54c.37-.04.72-.17,1.01-.4.34-.18.63-.43.84-.74.25-.31.44-.67.54-1.05.16-.38.24-.79.23-1.2l-.09-.8c-.1-.47-.33-.91-.67-1.25-.47-.51-1.17-.75-1.85-.65l-2.81.52c-.37.03-.73.17-1.02.39-.34.17-.64.43-.86.74-.48.66-.75,1.45-.79,2.27l.09.8c.11.48.34.91.68,1.26.48.51,1.18.75,1.88.64h0Z"/>
      <path class="cls-3" d="M98.85,86.76c-1.32,2.5-1.92,5.31-1.72,8.13.08,1.46.39,2.9.92,4.26.44,1,1.03,1.94,1.73,2.79.51.51,1.23.75,1.94.64.77-.14,1.47-.57,1.94-1.2.51-.67.79-1.49.8-2.33-.02-.77-.31-1.51-.8-2.11-.23-.3.13.19.18.24-.08-.09-.14-.18-.2-.28-.1-.15-.2-.3-.29-.45-.12-.21-.52-.72-.5-1,0,.08.26.77.11.26-.03-.09-.06-.18-.08-.27-.05-.19-.1-.38-.14-.58-.08-.23-.12-.47-.12-.72-.02.04.07.77.04.29,0-.16-.03-.31-.04-.47-.04-.55-.04-1.1,0-1.65,0-.12.02-.24.03-.36.04-.49-.05.31-.04.32.01-.26.06-.52.14-.76.05-.22.1-.44.17-.66.03-.14.07-.27.13-.4-.04.07-.27.71-.1.3.2-.49.42-.97.67-1.44.77-1.48.3-3.52-.99-4.12-1.48-.6-3.17.11-3.77,1.59h0Z"/>
      <path class="cls-3" d="M148.94,81.44c-.04-.07-.31-.49-.13-.19.06.1.12.2.18.3.09.16.18.32.26.49.09.19.18.38.25.57.03.09.06.18.1.26-.03,0-.2-.67-.1-.27.11.41.21.83.28,1.25.03.13.04.27.05.4,0-.11-.06-.67-.03-.26.01.28.03.55.04.83,0,.49,0,.97-.04,1.46-.03.43,0-.29.04-.33-.03.1-.04.19-.04.29-.04.21-.08.42-.13.63-.04.18-.1.36-.15.54-.09.34.26-.71.09-.27-.03.09-.06.18-.1.26-.16.41-.34.81-.53,1.21-.66,1.38-.25,3.34.83,3.92,1.15.62,2.47,0,3.16-1.46,1.04-2.18,1.53-4.57,1.45-6.99-.01-1.25-.19-2.49-.52-3.69-.38-1.23-.94-2.4-1.67-3.47-.39-.49-1-.74-1.62-.68-.67.1-1.26.48-1.65,1.03-.45.63-.69,1.38-.69,2.15.02.72.26,1.42.68,2h0Z"/>
      <path class="cls-3" d="M160.83,74.68h0c-.3.02-.59.13-.82.33-.28.16-.52.39-.69.67-.21.29-.37.62-.45.97-.14.36-.2.75-.19,1.13l.08.76c.09.44.28.86.56,1.22l.44.4c.32.22.7.32,1.08.28h0c.3-.02.59-.14.82-.33.28-.16.51-.39.68-.67.21-.29.36-.62.43-.97.13-.36.19-.74.18-1.13l-.07-.76c-.08-.44-.27-.86-.54-1.21l-.43-.41c-.31-.22-.69-.33-1.07-.29Z"/>
      <path class="cls-3" d="M158.95,85.26l.1,2.82c-.02.37.05.75.19,1.1.07.33.23.63.45.88.17.24.41.42.69.51.25.15.54.2.82.15l.56-.17c.38-.2.7-.49.93-.86l.33-.62c.19-.47.29-.98.28-1.49-.02-.92-.07-1.87-.1-2.8.02-.37-.05-.74-.18-1.09-.07-.32-.22-.62-.43-.88-.16-.24-.4-.42-.68-.52-.24-.15-.53-.21-.82-.16l-.57.17c-.38.2-.71.49-.95.85-.11.21-.23.42-.34.62-.2.48-.3.99-.3,1.5h0Z"/>
    </g>
  </g>
</svg>