<?xml version="1.0" encoding="UTF-8"?>
<svg id="_レイヤー_2" data-name="レイヤー_2" xmlns="http://www.w3.org/2000/svg" viewBox="0 0 394.75 293.19">
  <defs>
    <style>
      .cls-1 {
        fill: #79d3f1;
      }

      .cls-2 {
        fill: #211715;
      }

      .cls-3 {
        fill: #fff;
      }
    </style>
  </defs>
  <g id="_レイヤー_1-2" data-name="レイヤー_1">
    <g>
      <path class="cls-3" d="M158.5,290.72h-10.01c-5.54,0-4.73-6.43-3.99-8.02s2.19-2.61,4.71-3.09c8.73-1.66,10.89-6.37,11.61-14.72.31-3.58.63-5.8.81-9.37.11-2.3.31-4.87.65-8.36h58.58c.34,3.49.54,6.06.65,8.36.18,3.57.5,5.79.81,9.36.72,8.35,2.88,13.06,11.61,14.72,2.52.48,3.97,1.5,4.71,3.09s1.54,8.02-3.99,8.02h-43.08s-33.07,0-33.07,0Z"/>
      <rect class="cls-3" x="48.79" y="55.87" width="285.45" height="191.29" rx="15.43" ry="15.43"/>
      <path class="cls-3" d="M150.8,76.21l35.99,62.35c1.16,2.01.48,4.58-1.53,5.74-.64.37-1.37.57-2.11.57h-71.99c-2.32,0-4.2-1.87-4.21-4.19,0-.74.19-1.47.57-2.11l35.99-62.35c1.16-2.01,3.73-2.7,5.74-1.54.64.37,1.17.9,1.54,1.54Z"/>
      <path class="cls-3" d="M369.74,26.44c-3.16-.15-5.45,1.4-7.93,3.09-2.78,1.9-5.56,3.82-8.32,5.76-15.68,10.99-31.41,22.05-46.68,33.62l-.4.3c-1.74,1.33-2.12,3.79-.87,5.58l5.89,8.43c1.25,1.79,3.69,2.28,5.54,1.1,15.43-9.89,30.54-20.6,45.32-31.42,4.43-3.24,9-6.46,13.18-10.04,3.91-3.38,4.34-9.28.96-13.19-1.69-1.95-4.11-3.12-6.68-3.23h0Z"/>
      <path class="cls-3" d="M301.94,98.52c4.5-3.15,10.13-8.67,7.49-14.58-.87-2.19-2.13-4.2-3.72-5.94-4.22-4.26-11.39-2.96-15.91.2-4.23,2.96-5.1,6.37-6.06,9.92-1.17,4.34-2.65,5.72-5.84,9.13,3.76,1.77,8.78,4.36,13.03,4.45,3.9.09,7.74-1.02,10.99-3.17Z"/>
      <path class="cls-3" d="M267.51,7.28c-18.47-8.78-42.99-6.44-56.03,12.18-9.85,14.06-9.58,32.65-3.35,45.91,6.72,14.31,27.75,28.61,43.38,19.66,3.46-1.92,5.6-5.56,5.6-9.51.11-2.65-.22-5.34.25-7.95,1.16-6.4,6.89-10.62,13.23-10.88,6.93-.28,12.75-.11,16.36-7.28,1.89-4.13,2.44-8.74,1.56-13.19-2.02-12.44-9.32-23.78-21.08-28.99"/>
      <path class="cls-3" d="M236.68,32.82c-.09.59-.24,1.16-.46,1.72-.21.47-.47.92-.77,1.34-.29.35-.61.67-.96.96-.41.3-.84.55-1.3.75-.54.21-1.1.35-1.66.44-.7.08-1.41.08-2.12,0-.56-.09-1.11-.24-1.64-.44-.47-.21-.93-.47-1.35-.78-.37-.3-.7-.63-1-1-.31-.42-.57-.88-.79-1.36-.21-.55-.36-1.11-.45-1.69-.07-.63-.08-1.26-.01-1.89.09-.57.24-1.13.45-1.67.22-.48.49-.94.8-1.37.63-.82,1.47-1.46,2.42-1.86.55-.22,1.12-.37,1.71-.46.6-.06,1.2-.06,1.79,0,.58.09,1.15.24,1.69.45.95.4,1.79,1.04,2.42,1.85.31.43.58.88.8,1.36.21.54.37,1.11.46,1.68.06.65.06,1.3-.02,1.94Z"/>
      <path class="cls-3" d="M230.94,55.47c-.09.59-.24,1.16-.46,1.72-.21.47-.47.92-.77,1.34-.29.35-.61.67-.96.96-.41.29-.84.55-1.3.75-.54.21-1.1.35-1.66.44-.7.08-1.41.08-2.12,0-.56-.09-1.11-.24-1.64-.44-.47-.21-.93-.47-1.35-.78-.37-.3-.7-.63-1-1-.31-.42-.57-.88-.79-1.36-.21-.55-.36-1.11-.45-1.69-.07-.63-.08-1.26-.01-1.89.09-.57.24-1.13.45-1.67.22-.48.49-.94.8-1.37.63-.82,1.46-1.46,2.42-1.86.55-.22,1.12-.37,1.71-.46.6-.06,1.2-.06,1.79,0,.58.09,1.15.24,1.69.45.95.4,1.78,1.04,2.42,1.85.31.43.58.88.8,1.36.21.54.37,1.11.46,1.68.06.65.06,1.3-.02,1.95Z"/>
      <path class="cls-3" d="M258.25,25.22c-.09.59-.24,1.16-.45,1.72-.21.47-.47.92-.77,1.34-.29.35-.61.67-.96.96-.41.29-.84.55-1.3.75-.54.21-1.1.35-1.66.44-.7.08-1.41.08-2.12,0-.56-.09-1.11-.23-1.64-.44-.47-.21-.93-.47-1.35-.78-.37-.3-.7-.63-1-1-.31-.42-.57-.88-.79-1.36-.21-.55-.36-1.11-.45-1.69-.07-.63-.08-1.26-.01-1.89.09-.57.24-1.13.45-1.67.22-.48.49-.94.8-1.37.32-.4.69-.76,1.08-1.09.42-.3.86-.57,1.33-.78.55-.22,1.12-.37,1.71-.46.6-.06,1.2-.06,1.79,0,.58.09,1.15.24,1.69.45.48.22.93.48,1.35.79.39.32.75.68,1.07,1.07.31.43.58.88.8,1.36.21.54.37,1.11.45,1.68.06.65.06,1.3-.02,1.94Z"/>
      <path class="cls-3" d="M273.85,177.19c-.43,2.76-1.15,5.47-2.14,8.07-.99,2.22-2.21,4.33-3.64,6.29-1.36,1.65-2.88,3.17-4.53,4.53-1.91,1.39-3.96,2.57-6.11,3.53-2.53.96-5.15,1.66-7.82,2.08-3.31.38-6.64.38-9.95.01-2.64-.42-5.23-1.11-7.72-2.06-2.23-1-4.35-2.22-6.32-3.66-1.71-1.4-3.28-2.97-4.68-4.69-1.45-1.99-2.69-4.13-3.69-6.38-.98-2.57-1.69-5.24-2.11-7.96-.34-2.94-.36-5.92-.07-8.87.42-2.68,1.12-5.31,2.11-7.84,1.02-2.27,2.28-4.43,3.75-6.44,2.97-3.85,6.88-6.87,11.36-8.76,2.59-1.01,5.29-1.74,8.04-2.15,2.8-.29,5.62-.29,8.43,0,2.72.42,5.39,1.13,7.95,2.13,4.48,1.88,8.39,4.88,11.36,8.72,1.47,2,2.72,4.14,3.75,6.4,1,2.55,1.72,5.2,2.14,7.91.3,3.03.27,6.09-.08,9.12Z"/>
      <path class="cls-1" d="M217.23,184.92c-.98-2.57-1.69-5.24-2.11-7.96-.34-2.94-.36-5.92-.07-8.87.42-2.68,1.12-5.31,2.11-7.84,1.03-2.27,2.28-4.43,3.75-6.44,2.97-3.85,6.88-6.87,11.36-8.76.3-.12.6-.22.91-.33-.02-16.03-.04-31.58-.04-37.13,0-.95-.77-1.72-1.73-1.72,0,0,0,0,0,0h-63.47l18.86,32.67c1.16,2.01.48,4.58-1.53,5.74-.64.37-1.37.57-2.11.57h-32.88v42.25c0,.95.77,1.73,1.73,1.73h67.29c-.77-1.26-1.46-2.57-2.07-3.92Z"/>
      <path class="cls-1" d="M60.8,117.66c-4.8.39-8.38,4.59-7.99,9.39,0,.1.02.19.03.29.24,4.73,4.26,8.37,8.99,8.14.25-.01.51-.04.76-.07,5.35-.54,8.48-4.58,7.94-9.85-.41-4.79-4.63-8.35-9.43-7.93-.1,0-.2.02-.31.03Z"/>
      <path class="cls-1" d="M13.42,69.87c1.45-.73,2.94-1.38,4.46-1.94l.51-.18c.8-.28.68-.24-.36.11.33-.14.68-.24,1.04-.31.87-.25,1.74-.47,2.62-.66,1.59-.35,3.19-.61,4.81-.78.45-.05.9-.07,1.35-.12,1.17-.13-1.99.04-.17,0,.9-.02,1.8-.03,2.71,0,1.62.05,3.24.19,4.85.42.91.03,1.8.19,2.66.47-.13-.07-1.84-.46-.44-.08.49.13.98.25,1.47.4,1.46.42,2.89.92,4.29,1.5.78.32,1.55.66,2.31,1.03.3.14.6.33.91.45-1.9-.77-.44-.22,0,.03,1.32.75,2.6,1.57,3.83,2.45.69.49,1.36,1,2.01,1.53.26.21.52.43.78.64.19.16.38.33.58.5.43.38.26.22-.52-.49.58.24,1.37,1.32,1.8,1.77.47.49.92.98,1.37,1.49,1.1,1.28,2.14,2.63,3.1,4.02.78,1.11-.08-.17-.2-.32.31.44.59.89.85,1.35.37.61.74,1.22,1.1,1.83,1.16,1.94,2.34,3.85,3.57,5.74,2.05,3.2,4.59,6.06,7.53,8.46,7,5.42,16.04,7.45,24.68,5.55,3.93-.89,7.13-4.86,6.15-9.01-.93-3.95-4.8-7.1-9.01-6.15-.81.19-1.63.33-2.46.43-.33,0-.67.03-.99.09l1.07-.06c-.25,0-.5,0-.75,0-.75,0-1.5-.06-2.24-.14-.33-.04-.66-.08-.99-.14s-.66-.11-.98-.18c1.12.26,1.39.31.81.16-1.5-.49-2.98-1.05-4.43-1.68.05-.08,1.69.99.46.2-.28-.18-.57-.35-.85-.53-.77-.51-1.47-1.08-2.18-1.66-.85-.68,1.32,1.38.14.09-.24-.26-.49-.51-.72-.77-.59-.65-1.14-1.33-1.66-2.04-.48-.63-.92-1.29-1.37-1.94-.65-.94.98,1.61.07.1-.28-.46-.56-.91-.83-1.36-1.9-3.32-3.96-6.55-6.19-9.66-9.03-11.75-22.72-18.99-37.51-19.83-8.88-.45-17.73,1.38-25.7,5.31-3.61,1.8-5.61,6.57-3.63,10.29,1.89,3.79,6.44,5.39,10.29,3.63h0Z"/>
      <path class="cls-1" d="M310.37,126.88c-4.73-1-9.37,2.02-10.37,6.74-.02.1-.04.19-.06.29-1.13,4.61,1.7,9.27,6.31,10.4.25.06.5.11.75.15,5.3,1.01,9.46-1.98,10.46-7.2.97-4.73-2.07-9.35-6.8-10.32-.1-.02-.2-.04-.3-.06Z"/>
      <path class="cls-1" d="M332.18,173.51c.85-.95,1.71-1.88,2.61-2.78.42-.42.84-.83,1.27-1.23.24-.23.49-.46.74-.68.62-.56.5-.45-.36.32-.08-.25,2.43-1.98,2.71-2.2.92-.7,1.87-1.36,2.83-1.99s1.95-1.22,2.95-1.78c.29-.16.57-.31.86-.47-1.05.52-1.2.6-.46.24.45-.21.89-.42,1.33-.62,2.17-.97,4.42-1.75,6.73-2.34.24-.06.48-.12.72-.18.82-.19.65-.15-.51.11.74-.24,1.51-.38,2.29-.4,1.34-.21,2.69-.38,4.04-.5,2.71-.22,5.43-.29,8.14-.2.89.04.78.03-.34-.02.29.02.58.04.87.06.68.05,1.36.12,2.03.19,1.35.15,2.7.34,4.04.58,2.87.51,5.7,1.2,8.47,2.08,1.77.55,4.36-.21,5.83-1.21,1.7-1.17,2.87-2.95,3.27-4.97.66-4.57-2.01-7.79-6.18-9.09-12.28-3.84-25.38-4.22-37.87-1.1-10.86,2.76-20.37,9.7-27.74,17.97-2.71,3.04-2.51,8.37.74,10.97,3.26,2.74,8.11,2.41,10.97-.74h0Z"/>
      <path class="cls-2" d="M47.09,196.46l-23.16,23.16c-2.19,2.19,1.21,5.58,3.39,3.39l23.16-23.16c2.19-2.19-1.21-5.58-3.39-3.39Z"/>
      <path class="cls-2" d="M47.14,231.19l-26.04,26.04c-2.19,2.19,1.21,5.58,3.39,3.39l26.04-26.04c2.19-2.19-1.21-5.58-3.39-3.39Z"/>
      <path class="cls-2" d="M336.64,151.45v-78.61c0-3.09-4.8-3.09-4.8,0v78.61c0,3.09,4.8,3.09,4.8,0h0Z"/>
      <path class="cls-2" d="M57.43,60.18c2.16-1.27,4.63-1.92,7.14-1.9h122.38c5.89,0,11.82.19,17.71,0h.26c3.09,0,3.09-4.8,0-4.8h-126.22c-4.96,0-9.95-.13-14.91,0-3.09.1-6.11.97-8.77,2.55-2.66,1.56-.25,5.71,2.42,4.14Z"/>
      <path class="cls-2" d="M46.38,71.64v146.36c0,4.51-.02,9.03,0,13.54,0,8.28,5.62,15.5,13.65,17.52,3.18.74,6.63.5,9.87.5h247.39c1.03,0,2.06.02,3.09-.08,8.85-.87,15.75-8.07,16.23-16.96.23-4.59.02-9.24.02-13.84v-47.4c0-3.09-4.8-3.09-4.8,0v47.32c0,4.5.12,9.01,0,13.51-.28,7.02-6.02,12.58-13.05,12.63-2.39.02-4.79,0-7.18,0H65.5c-1.4.06-2.81-.05-4.19-.32-3.77-.89-6.96-3.39-8.73-6.83-1.07-2.31-1.55-4.85-1.4-7.39V71.64c0-3.09-4.8-3.09-4.8,0h0Z"/>
      <path class="cls-2" d="M279.15,58.27h35.94c2.62,0,5.19-.13,7.74.62,2.97.88,4.23-3.75,1.28-4.63-2.57-.65-5.22-.92-7.88-.8h-37.08c-3.09,0-3.09,4.8,0,4.8h0Z"/>
      <path class="cls-2" d="M159.79,248.12c-.39,4.09-.54,8.19-.94,12.28-.33,3.41-.42,6.89-1.45,10.17-.6,2.21-2.07,4.07-4.07,5.18-2.88,1.59-6.68,1.35-9.32,3.66-4.07,3.57-3.1,12.1,2.53,13.49,1.78.29,3.59.36,5.39.23h8.85c18.61,0,37.22,0,55.83,0h17.22c2.62,0,5.05-.6,6.57-2.92,1.26-2.25,1.56-4.92.83-7.4-.93-3.53-4.07-4.94-7.34-5.66-1.46-.28-2.87-.77-4.18-1.48-.46-.26-.9-.56-1.31-.89-.22-.19-.43-.39-.63-.6-.11-.12-.22-.24-.33-.36-.04-.05-.36-.45-.16-.18-1.42-2.16-2.25-4.67-2.4-7.26-.49-4.06-.79-8.14-1.03-12.22-.12-2.02-.3-4.04-.49-6.05-.03-1.31-1.09-2.37-2.4-2.4-1.32,0-2.39,1.08-2.4,2.4.37,3.96.52,7.93.9,11.88.19,3.62.64,7.22,1.36,10.77.59,2.67,1.91,5.11,3.81,7.07,2.29,2.06,5.11,3.43,8.14,3.97,1.29.27,2.84.54,3.53,1.59.11.16.17.35.27.51-.05-.08-.14-.58-.11-.24.03.14.07.28.12.42.06.22.1.44.14.67,0,.05.05.36.01.05-.04-.36.01.2.01.27.03.49.02.99-.03,1.48.05-.47-.05.18-.09.33-.03.1-.06.21-.09.31-.17.62.12-.19-.04.13-.22.65-.85,1.06-1.54,1-1.5.1-3.03,0-4.53,0h-8.97c-18.03,0-36.06,0-54.09,0h-17.45c-.58,0-1.18.03-1.76,0-.68.06-1.31-.35-1.54-1-.17-.33.11.33,0-.02-.03-.1-.07-.2-.1-.31-.03-.18-.07-.36-.13-.53,0-.18,0-.36-.03-.54,0-.28,0-.56.02-.84,0-.13.02-.27.03-.4,0,.08-.09.51,0,.07.04-.2.07-.39.12-.59.06-.16.1-.33.14-.49,0-.07.13-.35-.04.06-.21.5.13-.23.2-.33.69-1.05,2.24-1.31,3.53-1.59,1.65-.34,3.25-.88,4.76-1.61,2.44-1.18,4.45-3.1,5.72-5.5,1.3-2.76,2.07-5.75,2.26-8.8.42-3.96.74-7.93.99-11.9.12-1.96.29-3.92.48-5.88,0-1.32-1.08-2.39-2.4-2.4-1.31.03-2.37,1.09-2.4,2.4h0Z"/>
      <path class="cls-2" d="M165.48,279.95h52.08c3.09,0,3.09-4.8,0-4.8h-52.08c-3.09,0-3.09,4.8,0,4.8Z"/>
      <path class="cls-2" d="M48.79,220.31h285.45c3.09,0,3.09-4.8,0-4.8H48.79c-3.09,0-3.09,4.8,0,4.8Z"/>
      <path class="cls-2" d="M167.93,108.28h62.42c.17,0,.86.11,1.01,0,.12-.09.37.91-.3-.09-.16-.24-.25-.69-.33-.41-.03.25-.03.51,0,.76v3.12c0,2.92,0,5.85,0,8.77,0,8.1.02,16.19.03,24.29,0,3.09,4.8,3.09,4.8,0,0-7.5-.02-14.99-.03-22.49,0-4.85.24-9.78-.01-14.63-.06-2.29-1.94-4.12-4.23-4.12-.41-.01-.83,0-1.24,0h-62.12c-3.09,0-3.09,4.8,0,4.8Z"/>
      <path class="cls-2" d="M147.87,144.86v36.82c0,2.68-.76,7.09,1.81,8.82,1.68,1.13,4.34.74,6.27.74h42.98c6.67,0,13.38.19,20.05,0h.31c3.09,0,3.09-4.8,0-4.8h-60.17c-2.24,0-4.53-.14-6.76,0-.05,0-.32-.04-.35,0,.18-.22.75.53.67.64.03-.04,0-.19,0-.24.07-1.05.07-2.11,0-3.16v-13.23c0-8.36.15-16.74,0-25.1v-.48c0-3.09-4.8-3.09-4.8,0h0Z"/>
      <path class="cls-2" d="M148.73,77.43l8.13,14.09,15.94,27.61,11.3,19.57c.2.35.44.7.62,1.07.49.87.19,1.98-.68,2.47-.32.18-.69.26-1.05.23-2.01.04-4.02,0-6.03,0h-65.25c-.96,0-1.75-.15-2.18-1.04-.27-.74-.13-1.58.38-2.19l10.38-17.98,16.08-27.85,6.2-10.74c.98-1.7,1.89-3.47,2.96-5.13.83-1.29,2.35-1.46,3.2-.11,1.64,2.61,5.79.21,4.15-2.42-1.9-3.16-6-4.19-9.16-2.29-.53.32-1.01.71-1.44,1.16-.52.63-.98,1.32-1.36,2.04l-4.32,7.48-15.76,27.31-13.64,23.62c-1.23,2.13-2.86,4.33-2.6,6.92.35,3.41,3.22,6.01,6.65,6.02.64.02,1.28,0,1.92,0h67.76c.7,0,1.4.02,2.09,0,2.99.02,5.64-1.94,6.5-4.81.88-3.03-.83-5.43-2.25-7.89l-5.54-9.6-16.4-28.4-11.84-20.5-.61-1.08c-1.54-2.67-5.69-.26-4.15,2.43Z"/>
      <path class="cls-2" d="M369.74,24.04c-3.67-.08-6.62,1.69-9.54,3.69-3.19,2.18-6.36,4.38-9.52,6.6-6.52,4.57-13.03,9.16-19.52,13.78-6.35,4.53-12.67,9.12-18.94,13.76-1.57,1.16-3.13,2.33-4.68,3.5-1.42,1.07-3.14,2.07-4.12,3.61-1.38,2.21-1.32,5.03.16,7.18,1.8,2.65,3.67,5.27,5.52,7.89,1.21,2,3.35,3.24,5.69,3.32,1.68-.11,3.29-.72,4.62-1.75,1.62-1.05,3.24-2.1,4.86-3.16,13.21-8.69,26.09-17.86,38.86-27.19,3.48-2.55,6.99-5.06,10.39-7.71,2.99-2.34,5.88-4.54,7.06-8.31,2.31-7.43-3.26-14.69-10.81-15.19-1.33,0-2.4,1.07-2.4,2.4s1.07,2.4,2.4,2.4h0c3.87.28,6.78,3.63,6.5,7.5-.06.8-.25,1.58-.57,2.31-1.15,2.59-4.04,4.33-6.2,5.99-2.76,2.12-5.59,4.13-8.39,6.18-11.47,8.38-23.02,16.65-34.82,24.54-2.95,1.97-5.91,3.92-8.88,5.84-1.25.81-2.75,2.16-3.98.65-1.86-2.28-3.42-4.9-5.11-7.31-.59-.84-1.46-1.78-.92-2.85.47-.92,1.77-1.55,2.6-2.18,1.43-1.07,2.86-2.14,4.29-3.21,5.74-4.27,11.52-8.48,17.35-12.63,6.48-4.64,12.98-9.24,19.51-13.8,3.3-2.31,6.6-4.63,9.92-6.91,2.63-1.81,5.35-4.2,8.71-4.13,3.09.08,3.09-4.72,0-4.8Z"/>
      <path class="cls-2" d="M303.15,100.59c3.86-2.73,8.04-6.42,9.09-11.26.5-2.65.06-5.38-1.25-7.74-1.08-2.48-2.74-4.66-4.83-6.37-3.71-2.81-8.86-2.86-13.11-1.34-4.73,1.57-8.54,5.13-10.42,9.74-.84,2.13-1.12,4.49-2.14,6.54-1.15,1.99-2.59,3.8-4.27,5.38-.97,1.04-.97,3.08.48,3.77,4.24,2.01,8.55,4.25,13.3,4.72,4.65.37,9.28-.84,13.15-3.44,2.54-1.72.14-5.89-2.42-4.14-3.14,2.15-6.94,3.14-10.73,2.78-3.83-.44-7.44-2.44-10.87-4.06l.49,3.77c2.74-2.93,5.13-5.69,6.29-9.61.39-1.67.91-3.3,1.58-4.89.86-1.76,2.18-3.27,3.81-4.36,2.77-1.86,6.46-3.01,9.76-2.1,1.65.48,3.08,1.54,4.04,2.97,1.28,1.6,2.17,3.48,2.59,5.49.49,4.21-3.91,7.86-6.96,10.01-1.11.69-1.49,2.13-.86,3.28.68,1.13,2.13,1.52,3.28.86Z"/>
      <path class="cls-2" d="M268.72,5.21c-15.74-7.42-35.65-7.43-49.93,3.32-16.15,12.15-21.21,34.54-14.69,53.25,3.11,8.65,8.86,16.1,16.44,21.3,7.39,5.23,16.85,8.56,25.91,6.5,4.43-1.01,9.03-3.36,11.32-7.46,1.16-2.18,1.77-4.61,1.77-7.07.07-2.74-.32-5.54.47-8.21,1.26-3.79,4.44-6.63,8.35-7.44,2.07-.34,4.16-.5,6.26-.49,2.05-.07,4.08-.4,6.05-.97,4.66-1.5,7.74-5.18,9.39-9.69,1.9-5.21,1.37-10.99.05-16.27-2.23-9.35-7.68-17.62-15.4-23.36-1.89-1.36-3.92-2.53-6.05-3.48-1.15-.63-2.58-.25-3.28.85-.66,1.15-.27,2.61.86,3.28,7.84,3.6,14.02,10.05,17.29,18.04,1.84,4.18,2.85,8.67,2.97,13.23,0,4.13-1.23,9.16-4.81,11.62-2.87,1.97-6.6,1.93-10.06,2.06-4.37,0-8.6,1.56-11.91,4.42-3.65,3.28-5.01,7.84-5.01,12.63,0,2.36.24,4.74-.48,7.02-.55,1.7-1.66,3.17-3.15,4.18-6.78,4.55-15.66,3.23-22.59-.22-7.42-3.64-13.55-9.47-17.57-16.69-8.24-15.41-5.95-36.61,6.27-49.26,11.27-11.67,28.85-14.01,43.83-9.06,1.8.59,3.57,1.3,5.29,2.11,1.15.63,2.59.25,3.28-.86.66-1.15.27-2.61-.86-3.28h0Z"/>
      <path class="cls-2" d="M234.36,32.18c-.05.29-.11.58-.18.87-.03.11-.06.22-.09.32-.02.06-.17.5-.07.24.09-.24-.05.09-.06.12-.07.13-.14.26-.22.39s-.15.25-.24.37c.2-.27-.03.01-.13.12-.09.09-.62.54-.27.29-.24.16-.48.31-.74.44-.03.01-.35.16-.1.06.27-.11-.16.04-.22.06-.27.08-.56.13-.84.21-.34.1.35,0-.03,0-.16,0-.31.02-.47.02-.28,0-.55-.01-.82-.01-.1,0-.47-.08-.04,0-.1-.02-.21-.04-.31-.06-.31-.07-.62-.16-.92-.26.42.15-.2-.12-.32-.19s-.25-.17-.38-.24c-.24-.12.01.01.06.06-.2-.18-.38-.37-.58-.56-.07-.07-.23-.33-.02,0-.08-.12-.16-.25-.24-.38s-.14-.26-.22-.39c-.05-.08-.15-.41-.03-.04-.08-.24-.16-.49-.22-.74-.04-.14-.06-.29-.1-.43-.07-.26,0,.03,0,.08-.03-.35-.04-.71-.03-1.06,0-.07.04-.56,0-.26-.03.26.02-.09.03-.12.07-.28.14-.56.23-.83,0-.02.13-.35.04-.12-.11.26.09-.16.12-.22.05-.1.11-.2.17-.3.02-.04.43-.59.14-.25.17-.19.34-.38.53-.55.08-.08.16-.15.24-.22-.3.26-.03.03.05-.02.26-.15.5-.3.77-.43-.05.02-.32.09-.06.03.18-.04.35-.11.53-.16.14-.04.29-.07.43-.1.03,0,.39-.06.12-.03-.3.03.17,0,.24,0,.15,0,.3,0,.45,0s.82.07.36,0c.29.05.57.12.85.2.14.04.28.09.42.14-.4-.14.05.04.13.08.13.07.26.15.39.23.08.05.46.35.14.08.22.19.42.4.62.6.31.31.1.11.04.02.11.15.21.31.3.48.06.1.11.2.16.3.31.55-.01-.18.07.14s.18.63.26.95c.03.1.03.43.01.03,0,.16.02.32.02.49,0,.4-.02.81-.06,1.21,0,1.32,1.08,2.4,2.4,2.4,1.31-.03,2.37-1.09,2.4-2.4.45-3.62-1.4-7.14-4.63-8.82-4.29-2.22-9.58-.54-11.8,3.75-1.18,2.28-1.3,4.97-.32,7.35,1.33,3.36,4.64,5.52,8.26,5.39,2.03,0,4.01-.69,5.6-1.96,1.52-1.3,2.52-3.1,2.81-5.08.32-1.27-.42-2.57-1.68-2.95-1.27-.33-2.58.41-2.95,1.68Z"/>
      <path class="cls-2" d="M228.62,54.83c-.05.29-.11.58-.18.87-.03.11-.06.21-.09.32-.02.06-.17.5-.07.24.09-.23-.05.1-.06.12-.07.13-.14.26-.22.39s-.15.26-.24.37c.2-.27-.03.01-.13.12-.09.09-.62.53-.27.29-.24.16-.48.31-.74.44-.03.01-.35.15-.1.06.27-.11-.16.04-.22.06-.27.08-.56.13-.84.21-.34.1.35,0-.03,0-.16,0-.31.02-.47.02-.27,0-.55,0-.82-.01-.1,0-.47-.08-.04,0-.1-.02-.21-.04-.31-.06-.31-.07-.62-.16-.92-.26.41.15-.2-.12-.32-.19s-.25-.17-.38-.23c-.24-.12.01.01.06.06-.2-.18-.38-.38-.58-.56-.08-.07-.24-.33-.02,0-.08-.13-.16-.25-.24-.38s-.14-.26-.22-.39c-.05-.08-.15-.41-.03-.04-.08-.24-.16-.49-.22-.73-.04-.14-.06-.29-.1-.43-.07-.26,0,.03,0,.08-.03-.35-.04-.71-.03-1.06,0-.07.04-.56,0-.26-.03.26.02-.09.03-.12.07-.28.14-.56.23-.83,0-.02.13-.35.04-.12-.11.26.09-.17.12-.22.05-.1.11-.2.17-.29.02-.04.43-.59.14-.25.17-.19.34-.38.53-.55.08-.08.16-.15.24-.22-.29.26-.03.03.05-.02.26-.15.5-.3.77-.43-.05.03-.32.1-.06.03.18-.04.35-.12.53-.16.14-.04.29-.07.43-.1.03,0,.39-.06.12-.03-.3.03.17,0,.24,0,.15,0,.3,0,.45,0s.82.07.36,0c.29.05.57.12.85.2.14.04.28.09.42.14-.4-.14.05.04.13.08.13.07.26.15.39.22.08.05.46.35.14.08.22.19.42.39.62.6.31.31.1.11.04.03.11.15.21.31.3.48.06.1.11.2.16.3.31.55-.01-.18.07.14s.18.63.26.95c.03.1.03.43.01.03,0,.16.02.32.02.49,0,.4-.02.81-.06,1.21,0,1.32,1.08,2.4,2.4,2.4,1.31-.04,2.36-1.09,2.4-2.4.45-3.62-1.4-7.13-4.64-8.82-4.29-2.22-9.58-.54-11.8,3.75-1.18,2.28-1.3,4.97-.32,7.35,1.33,3.37,4.64,5.52,8.26,5.39,2.03,0,4.01-.69,5.6-1.96,1.52-1.3,2.52-3.1,2.81-5.08.32-1.27-.42-2.57-1.68-2.95-1.27-.33-2.57.41-2.94,1.67Z"/>
      <path class="cls-2" d="M255.93,24.58c-.05.29-.11.58-.18.87-.03.11-.06.21-.09.32-.02.06-.17.5-.07.24.1-.23-.05.09-.06.12-.07.13-.14.26-.21.39s-.15.25-.24.37c.2-.27-.03.01-.13.12-.09.09-.62.53-.27.29-.24.16-.48.31-.74.44-.03.01-.35.16-.1.06.27-.11-.16.04-.22.06-.28.08-.56.13-.84.21-.34.1.35,0-.03,0-.16,0-.31.02-.47.02-.27,0-.55-.01-.82-.01-.1,0-.47-.08-.04,0-.1-.02-.21-.04-.31-.07-.31-.07-.62-.16-.92-.26.41.15-.2-.12-.32-.19s-.25-.17-.38-.23c-.23-.12.01.01.06.06-.2-.18-.38-.38-.58-.56-.08-.07-.24-.33-.02,0-.08-.13-.16-.25-.24-.38s-.14-.26-.22-.39c-.05-.08-.15-.41-.03-.04-.08-.24-.16-.49-.22-.73-.04-.14-.05-.29-.1-.43-.07-.26,0,.02,0,.08-.03-.35-.04-.71-.03-1.06,0-.07.04-.56,0-.26-.03.26.02-.09.03-.12.07-.28.14-.56.23-.83,0-.02.13-.35.04-.12-.11.26.09-.17.12-.22.05-.1.11-.2.17-.3.02-.04.43-.59.14-.25.17-.19.34-.38.53-.55.08-.08.16-.15.24-.22-.3.26-.03.03.05-.02.26-.15.5-.3.77-.43-.05.03-.32.1-.06.03.18-.04.35-.11.53-.16.14-.04.29-.07.43-.1.03,0,.39-.06.12-.03-.3.03.17,0,.24,0,.15,0,.3,0,.45,0s.82.07.36,0c.29.05.57.12.85.2.14.04.28.09.42.14-.4-.14.05.04.13.08.13.07.26.15.39.23.08.05.46.35.14.08.22.19.42.39.62.6.31.32.1.11.04.02.11.15.21.31.3.48.06.1.11.2.17.3.31.55-.01-.18.07.14s.18.63.26.94c.03.1.03.43.01.03,0,.16.02.32.02.49,0,.4-.02.81-.06,1.21,0,1.32,1.08,2.4,2.4,2.4,1.31-.03,2.37-1.09,2.4-2.4.45-3.62-1.4-7.14-4.63-8.82-3.29-1.61-7.23-1.08-9.97,1.35-2.61,2.52-3.46,6.36-2.15,9.75,1.33,3.37,4.64,5.53,8.26,5.39,2.03,0,4.01-.69,5.6-1.96,1.52-1.3,2.52-3.1,2.81-5.08.32-1.27-.42-2.57-1.68-2.95-1.28-.33-2.58.41-2.95,1.68Z"/>
      <path class="cls-2" d="M271.53,176.55c-.92,5.62-2.85,11.06-6.87,15.23-3.9,3.91-8.92,6.48-14.37,7.37-5.8,1.07-11.79.5-17.29-1.65-5.13-2.1-9.41-5.87-12.13-10.69-5.49-9.64-4.98-23.35,2.31-31.98,3.65-4.38,8.6-7.48,14.13-8.87,5.62-1.38,11.53-1.11,17,.77,5.84,2.05,10.74,6.15,13.8,11.53,1.52,2.69,2.59,5.61,3.17,8.65.58,3.4.63,6.86.15,10.27,0,1.32,1.08,2.39,2.4,2.4,1.31-.03,2.37-1.09,2.4-2.4.73-6.77.01-13.68-3.14-19.81-2.86-5.62-7.35-10.24-12.88-13.25-11.62-6.32-27.39-4.87-37.28,4.07-10.16,9.19-12.87,23.79-8.34,36.49,2.23,6.18,6.49,11.43,12.07,14.89,5.78,3.43,12.43,5.09,19.14,4.78,7.33-.21,14.84-2.48,20.4-7.41,5.64-5.01,8.75-11.76,9.95-19.12.31-1.27-.42-2.57-1.68-2.95-1.28-.34-2.59.41-2.95,1.68Z"/>
      <path class="cls-2" d="M60.8,115.26c-2.52.22-4.91,1.24-6.81,2.9-1.68,1.53-2.84,3.55-3.32,5.77-1.03,4.66.86,9.49,4.79,12.21,4,2.43,9.05,2.31,12.93-.3,3.79-2.8,5.48-7.65,4.24-12.2-1.36-5.31-6.36-8.86-11.83-8.38-1.31.03-2.37,1.09-2.4,2.4.01,1.32,1.08,2.39,2.4,2.4.51-.05,1.02-.06,1.53-.04.16,0,.33.02.49.04-.48-.06.29.07.31.07.38.09.76.2,1.13.33.66.22-.33-.21.27.12.2.11.4.21.6.33s.38.24.57.37c-.08-.06-.31-.27.05.04.31.27.6.56.89.86.07.07.38.46.12.12.14.18.26.37.38.56.08.13.16.26.23.39.04.07.42.87.25.46.15.36.27.73.36,1.1.05.19.09.38.13.57.02.11.08.61.04.18.04.4.06.81.06,1.21,0,.23-.01.47-.03.7-.01.15-.03.31-.04.46.03-.23.03-.25,0-.08-.07.4-.17.79-.29,1.17-.04.14-.09.27-.14.41-.22.63.23-.36-.1.21-.17.3-.35.6-.53.9-.33.56.3-.3-.13.18-.14.15-.28.31-.42.46-.1.1-.85.73-.47.45-.32.23-.65.44-1,.63-.16.09-.33.17-.49.24.46-.21-.22.08-.26.09-.45.15-.9.25-1.36.36-.73.18.24-.01-.22.04-.2.02-.4.04-.61.05-.4.02-.79.02-1.19,0-.05,0-.8-.1-.28-.02-.19-.03-.37-.07-.55-.11-.43-.1-.85-.22-1.26-.38-.37-.15.46.27-.12-.07-.19-.11-.38-.2-.56-.31-.12-.07-.24-.16-.36-.23-.56-.34.3.3-.19-.14-.27-.23-.52-.48-.77-.74-.04-.04-.47-.59-.17-.18-.13-.18-.25-.36-.37-.54-.78-1.24-1.16-2.7-1.1-4.16,0-.19.02-.39.03-.58.02-.18.01-.15-.02.07.02-.15.05-.3.08-.45.1-.44.22-.88.38-1.31.23-.65-.22.35.12-.25.11-.2.21-.4.32-.59s.24-.38.37-.56c.37-.54-.28.24.18-.22.5-.61,1.13-1.11,1.83-1.47.21-.12.42-.22.63-.32-.38.16.25-.08.33-.1.24-.08.47-.14.72-.2.09-.02.95-.16.63-.12,1.31-.04,2.36-1.09,2.4-2.4,0-1.32-1.08-2.39-2.4-2.4Z"/>
      <path class="cls-2" d="M14.63,71.94c1.6-.78,3.24-1.47,4.92-2.07,1.26-.38,1.99-1.68,1.68-2.95-.37-1.27-1.68-2.01-2.95-1.68-.3.09-.59.19-.88.29l1.85,4.39c.25-.11,1.26-.29,1.77-.42.99-.25,1.99-.46,2.99-.64,1.59-.12,3.18-.32,4.75-.61,1.28-.39,2-1.75,1.6-3.03-.24-.77-.84-1.37-1.6-1.6-1.2-.4-3.13.04-3.72,1.15-.65,1.17-.23,2.65.94,3.3.35.19.73.3,1.13.31,1.65.12,3.32-.03,4.98.08,1.75-.03,3.5.22,5.17.72l1.28-4.63c-.52-.2-1.06-.31-1.62-.33-2.85.01-3.08,3.79-.64,4.72,1.42.54,2.95.82,4.39,1.33,1.57.56,3.04,1.27,4.56,1.97l1.85-4.39c-.15-.06-1.07-.51-.38-.15l-1.85,4.39c.42.15-.52-.3-.03-.02.13.08.28.13.42.2,1,.54,1.97,1.14,2.9,1.8,1.4.97,2.75,2.01,4.04,3.13.98.92,2.51.88,3.44-.1.41-.43.65-1.01.66-1.6-.1-.97-.63-1.84-1.44-2.37l-2.91,3.78c.44.36.83.77,1.16,1.22.55.62,1.13,1.21,1.67,1.84,1.18,1.37,2.14,2.9,3.28,4.29,1.77,2.16,5.06-.6,3.77-2.91-.16-.27-.33-.53-.52-.77-.69-1.11-2.13-1.49-3.28-.86-1.14.67-1.52,2.13-.87,3.28,1.83,2.57,3.28,5.45,4.99,8.11,1.62,2.59,3.5,5,5.61,7.2,4.06,4.15,9.19,7.09,14.82,8.51,2.72.68,5.52,1.01,8.32,1,2.72.08,5.43-.32,8-1.19,5.37-2.13,8.24-8.04,5.84-13.43-1.2-2.68-3.45-4.75-6.22-5.72-1.52-.5-3.14-.59-4.71-.29-.73.13-1.44.34-2.18.42-.55,0-1.09.07-1.63.18-2.53.72-2.14,4.88.64,4.71l1.07-.06c3.06-.18,3.11-4.84,0-4.8-1.45.03-2.9-.1-4.32-.37-3-.6-4.31,3.94-1.28,4.63.76.26,1.58.34,2.38.24,2.35-.57,2.21-3.99,0-4.63-.74-.21-1.46-.48-2.19-.75-.5-.18-1-.36-1.49-.55-.18-.07-.37-.14-.55-.22.62.27.22.1.1.01l.86.86v-.02s-2.08,3.61-2.08,3.61h.04l-1.21-.33c.3.14.59.31.87.49,2.65,1.61,5.02-2.49,2.42-4.14-.69-.44-1.39-.86-2.05-1.35-.64-.63-1.39-1.14-2.21-1.51-1.3-.32-2.62.47-2.94,1.77-.15.59-.07,1.22.23,1.76.58,1.02,1.61,1.7,2.78,1.85,1.34-.02,2.4-1.12,2.39-2.46,0-.41-.11-.8-.31-1.16-.69-.96-1.47-1.86-2.31-2.68-.83-1.02-1.47-2.2-2.33-3.19-1.6-1.83-4.68.11-4.01,2.33.17.5.42.96.75,1.37.72,1.15,2.24,1.5,3.39.78.14-.09.26-.18.38-.29h0c.76-.78.91-1.96.38-2.91-.77-1.51-1.78-2.95-2.65-4.4-1.1-1.84-2.22-3.67-3.44-5.43-2.2-3.2-4.76-6.15-7.62-8.78-5.69-5.16-12.41-9.06-19.71-11.44-7.66-2.45-15.78-3.13-23.74-1.98-4.24.57-8.39,1.66-12.36,3.24-3.59,1.44-7.14,3-8.85,6.72-1.84,3.81-1.02,8.38,2.03,11.31,3.08,3.04,7.74,3.81,11.63,1.92,1.14-.68,1.52-2.14.86-3.28-.69-1.12-2.13-1.5-3.28-.86-2.3.93-4.93.19-6.4-1.81-1.4-1.85-1.37-4.42.07-6.24.94-1.09,2.16-1.92,3.52-2.41,1.65-.75,3.35-1.41,5.08-1.96,3.5-1.14,7.12-1.88,10.79-2.21,13.3-1.17,26.5,3.16,36.52,11.99,2.75,2.43,5.21,5.18,7.31,8.19,1.22,1.76,2.34,3.59,3.44,5.43.88,1.46,1.88,2.89,2.65,4.4l.38-2.91h0l3.77.49c-.26-.35-.57-1.26-.26-.22l-4.01,2.34c-.8-.91.39.62.59.9.47.66.96,1.31,1.47,1.95.4.5.81,1,1.25,1.47.2.21.4.43.6.64s.41.71-.01-.06l2.07-3.61h-.02l1.21.33c.77.54.26.22.1.04-.24-.27-.31-.53.07.16l-2.71,3.53c-.96-.6-1.13-.66-.5-.19.24.19.48.38.71.57.4.31.8.63,1.22.92.54.38,1.12.72,1.68,1.08l2.42-4.14c-.63-.45-1.36-.73-2.13-.82-1.99-.14-2.76,2.1-2.07,3.61.51,1.14,2.31,1.51,3.37,1.9.92.34,1.84.69,2.79.96v-4.63h-.01,1.28c-.36-.07-.73-.16-1.09-.24l-1.28,4.63c1.84.38,3.72.56,5.6.54v-4.8l-1.07.06.64,4.71c-.57.16.35-.01.56-.03.62-.06,1.25-.17,1.87-.28.94-.27,1.92-.33,2.88-.19,1.63.42,2.99,1.55,3.71,3.08,1.73,3.48-.94,6.78-4.37,7.51-9.01,1.81-18.32-1.04-24.77-7.58-1.93-2.03-3.65-4.25-5.12-6.64-1.61-2.53-2.99-5.27-4.73-7.7l-4.15,2.42c.19.25.36.51.52.77l3.77-2.91c.64.79-.37-.56-.48-.72-.27-.37-.54-.75-.82-1.11-.72-.95-1.46-1.89-2.26-2.79-1.02-1.16-2.15-2.74-3.52-3.49-2.32-1.26-4.99,1.88-2.91,3.77.25.22.49.45.74.67l-.7-1.7h0l4.1-1.7c-2.79-2.39-5.92-5.13-9.44-6.36-2.56-.89-4.26,3.14-1.85,4.39.48.25,1.02.43,1.52.64,2.5,1.01,4.32-3.26,1.85-4.39-1.75-.8-3.46-1.63-5.27-2.3-1.58-.58-3.26-.89-4.82-1.48l-.64,4.73c-1.04,0-.03.02.35.16,1.28.34,2.59-.41,2.95-1.68.32-1.27-.42-2.57-1.68-2.95-.86-.29-1.76-.45-2.67-.49-1.1-.12-2.19-.28-3.29-.37-1.82-.15-3.65.01-5.47-.12l2.07,3.62h0l-1.43,1.1c-.55.08-.56.18-.09.05.35-.1.77.22-.17-.09v-4.63c.88-.26-.24,0-.53.03-.47.04-.94.1-1.42.15-1.1.14-2.2.3-3.28.51-1.86.28-3.68.77-5.43,1.46-2.48,1.09-.72,5.24,1.85,4.39.29-.1.59-.2.88-.29l-1.28-4.63c-2.07.74-4.09,1.6-6.06,2.55-1.13.68-1.52,2.14-.86,3.28.69,1.12,2.14,1.5,3.28.86Z"/>
      <path class="cls-2" d="M311.01,124.57c-4.83-1.02-9.77,1.21-12.2,5.51-2.3,4.2-1.83,9.38,1.2,13.1,3.17,3.45,8.06,4.76,12.52,3.34,4.42-1.64,7.39-5.82,7.49-10.54.19-5.49-3.63-10.32-9.02-11.4-1.27-.32-2.57.42-2.95,1.68-.34,1.28.41,2.59,1.68,2.95.5.11.99.24,1.48.4.05.01.43.17.11.04.22.1.44.21.65.32.35.19.68.4.99.64-.36-.28.21.2.22.22.17.15.33.32.48.49.02.02.49.6.2.21.09.12.18.24.26.37.23.35.43.71.61,1.08.18.38-.15-.51.06.15.07.22.15.43.21.65.04.15.08.29.11.44s.06.3.09.45c-.03-.26-.03-.25,0,.04.03.39.04.77.03,1.16,0,.2-.02.39-.04.59-.04.43.14-.54-.03.19-.09.4-.17.79-.29,1.18-.07.23-.15.45-.23.67-.11.27-.11.29-.02.06-.05.1-.1.2-.15.3-.2.36-.4.7-.61,1.05-.04.07-.27.37,0,.03-.13.17-.27.33-.42.48-.24.25-.5.49-.77.72.4-.34-.13.08-.19.12-.17.12-.35.22-.54.32-.18.1-.37.19-.56.28.41-.18.07-.03-.02,0-.38.12-.76.22-1.14.32-.12.03-.6.09-.13.04-.23.03-.45.04-.68.05-.47.02-.94,0-1.41-.04.41.04-.12-.02-.22-.04-.2-.04-.4-.08-.6-.12-.39-.09-.76-.21-1.14-.34-.68-.23.35.21-.28-.12-.17-.09-.33-.17-.5-.26s-.32-.18-.48-.29c-.12-.08-.25-.16-.36-.25.17.13.18.15.05.04-.31-.25-.59-.52-.86-.82-.1-.1-.19-.21-.28-.32.33.4-.1-.15-.13-.2-.2-.3-.36-.62-.53-.93-.31-.59.1.42-.09-.23-.06-.21-.14-.41-.2-.63-.04-.14-.23-1.15-.17-.68-.06-.46-.08-.93-.06-1.4,0-.16.01-.32.02-.48,0-.01.11-.8.03-.34.08-.47.19-.94.34-1.39.48-1.36,1.39-2.52,2.58-3.32.19-.12.39-.23.59-.34.03-.01.68-.3.26-.13.43-.17.88-.3,1.33-.4.03,0,.79-.12.3-.06.24-.03.48-.04.73-.05s.5,0,.75.01c.17,0,.34.02.5.04-.21-.03-.17-.02.13.03,1.27.31,2.57-.42,2.95-1.68.35-1.28-.4-2.59-1.67-2.96Z"/>
      <path class="cls-2" d="M333.88,175.21c1.59-1.77,3.26-3.44,5.01-5.05,2.29-2.11-1.09-5.42-3.39-3.39-.25.22-.5.45-.75.67l4.01,2.34c-.03.19-.76.91-.37.73.11-.07.21-.16.3-.26.17-.15.24-.19.6-.46.48-.35.95-.69,1.43-1.04,2-1.48,4.1-2.81,6.3-3.98,2.74-1.46.33-5.52-2.42-4.15-.31.15-.62.3-.92.46-2.74,1.49-.33,5.48,2.42,4.15,2.93-1.41,6-2.49,9.16-3.23,1.27-.37,2.01-1.68,1.68-2.95-.38-1.26-1.68-2-2.95-1.68-.34.06-.68.15-1.01.22l1.85,4.39c.09-.04.6-.02.78-.04.66-.07,1.31-.19,1.96-.27,1.27-.17,2.54-.29,3.82-.37,2.43-.15,4.87-.15,7.3-.07,3.11.11,3.05-4.59,0-4.8-.31-.02-.62-.03-.93-.05-3.1-.16-3.06,4.59,0,4.8,2.6.17,5.18.51,7.73,1.02,1.43.28,2.84.62,4.25,1,1.39.48,2.81.84,4.26,1.06,5.57.36,10.38-3.87,10.74-9.44.26-4.06-1.94-7.89-5.59-9.7-2.32-1.07-4.76-1.85-7.27-2.33-2.73-.63-5.5-1.11-8.28-1.44-10.51-1.27-21.97-.43-31.85,3.58-4.62,1.88-8.97,4.37-12.93,7.39-2.07,1.57-4.05,3.25-5.94,5.03-1.84,1.61-3.51,3.4-4.98,5.36-2.72,3.99-2.19,10.11,1.61,13.25,4.23,3.6,10.53,3.28,14.36-.74,2.11-2.26-1.28-5.66-3.39-3.39-2.07,2.31-5.62,2.51-7.93.44-.05-.04-.09-.08-.13-.12-2.05-1.98-1.78-5.43.01-7.45,5.52-6.36,12.36-11.44,20.04-14.9,8.17-3.52,17.52-4.52,26.34-4.06,4.66.25,9.27.98,13.78,2.18,2.94.78,6.39,1.67,7.21,4.93.87,3.46-2.31,7.37-6.01,6.54-2.68-.6-5.27-1.5-7.99-1.99-2.66-.49-5.35-.82-8.06-1.01v4.8c.31.01.62.03.93.05v-4.8c-2.75-.11-5.51-.07-8.26.14-1.43.12-2.85.29-4.26.49-1.28.09-2.54.35-3.76.78-1.04.61-1.46,1.9-.98,3,.47,1.1,1.67,1.69,2.83,1.39.34-.07.67-.16,1.01-.22l-1.28-4.63c-3.56.85-7.02,2.1-10.32,3.72l2.42,4.15c.3-.16.61-.31.92-.46l-2.42-4.15c-2.36,1.29-4.64,2.74-6.8,4.35-1.15.84-3.41,1.96-3.66,3.51-.31,1.3.49,2.61,1.79,2.92.79.19,1.63-.03,2.22-.59.25-.22.5-.45.75-.67l-3.39-3.39c-1.75,1.61-3.42,3.28-5.01,5.05-2.06,2.29,1.32,5.69,3.39,3.39Z"/>
    </g>
  </g>
</svg>