<?xml version="1.0" encoding="UTF-8"?>
<svg id="_レイヤー_2" data-name="レイヤー_2" xmlns="http://www.w3.org/2000/svg" viewBox="0 0 126.97 156.72">
  <defs>
    <style>
      .cls-1 {
        fill: #c69c6d;
      }

      .cls-2 {
        fill: #009245;
      }

      .cls-3 {
        fill: #736357;
      }

      .cls-4 {
        fill: #f9f09d;
      }
    </style>
  </defs>
  <g id="D_xFF1A_私について">
    <g>
      <g>
        <path class="cls-1" d="M54.29,85.3h2.51c29.96,0,54.29,24.33,54.29,54.29h0c0,9.45-7.67,17.13-17.13,17.13H17.13C7.67,156.72,0,149.05,0,139.6H0C0,109.63,24.33,85.3,54.29,85.3Z"/>
        <path class="cls-2" d="M0,132.92H0C0,115.59,13.3,102.57,15.9,100.14c15.17-14.22,34.5-13.75,38.39-13.58h2.51c29.98,0,54.29,20.75,54.29,46.35-19.84-14.61-23.63-14.14-31.74-14.61-9.98-.58-10.62,8-17.25,10.97-2.22,1-4.12.96-6.56.93-2.42-.03-4.35-.38-6.02-.95-7.03-2.4-19.67-11.48-21.76-10.96C27.77,118.3,19.84,113.08,0,132.92"/>
      </g>
      <rect class="cls-4" x="55.55" y="1.98" width="71.42" height="47.61"/>
      <rect class="cls-3" x="52.46" width="6.17" height="95.22"/>
    </g>
  </g>
</svg>