<?xml version="1.0" encoding="UTF-8"?>
<svg id="_レイヤー_2" data-name="レイヤー_2" xmlns="http://www.w3.org/2000/svg" viewBox="0 0 402.2 294.67">
  <defs>
    <style>
      .cls-1 {
        fill: #79d3f1;
      }

      .cls-2 {
        fill: #211715;
      }

      .cls-3 {
        fill: #fff;
      }

      .cls-4 {
        fill: none;
      }
    </style>
  </defs>
  <g id="_レイヤー_1-2" data-name="レイヤー_1">
    <g id="c">
      <g id="d">
        <path class="cls-3" d="M15.27,272.36c-4.34-1.1-8.42-2.13-12.09-3.07l-1.22-69.81c15.75,3.35,32.62,6.72,46.91,9.8,4.79,1.48,7.06,4.34,7.95,8.33,1.41,6.32,3.37,16.21,5.37,26.43,3.71.81,6.49,1.42,6.49,1.42,18.91,4.13,36.76,7.79,52.19,11.4,2.5.79,4.6,1.92,4.6,5.12,0,2.76-1.68,4.53-4.58,5.61-15.01,5.57-30.08,11-45.02,16.76-3.81,1.47-7.11,1.16-10.86-.01-15.9-3.56-34.49-8.11-49.75-11.96h0Z"/>
        <path class="cls-3" d="M300.3,275.96c1.51,4.3.84,9.16,0,12.41l-.08.42-17.84-3.43-29.15-5.62,2.42-1.5v-11.11l.25-1.27c13.65,2.74,31.64,6.4,40.9,8.26.57.11,1.15.17,1.73.17l1.77,1.67h0Z"/>
        <path class="cls-3" d="M255.65,267.13v11.11l-2.42,1.5,29.15,5.62-2.23,1.52c-3.72,2.16-5.46,3.16-9.46,5.47-.65.37-1.4.49-2.13.33-18.06-4.02-42.68-9.15-60.79-13.61-.91-.23-1.05-1.48-.2-1.89,9.54-4.66,44.21-21.3,58.45-28.62.21-.11.43-.14.66-.1,4.73.75,9.52,1.5,14.24,2.24-8.54,4.13-18.87,9.13-25.98,12.57-1.13.55-.91,2.22.32,2.46.21.04.42.09.64.13l-.25,1.27h0Z"/>
        <path class="cls-3" d="M137.06,58.5c-.6,5.92-.95,11.83-1.38,17.27-.75,9.44-3.37,18.03-9.8,23.62-5.07,4.41-10.44,6.94-16.57,7.7.03.09.05.14.05.14.89,1.97,2.78,3.63,4.83,4.3,1.5.63,3.59,1.35,5.75,2.08-2.33,4.14-6.03,7.2-10.06,9.02-4.37,1.96-9.13,2.56-13.83,2.56-12.26-.02-24.49-4.14-34.79-11.73,0,0-1.33-1.05-1.77-1.4.69-.29,1.34-.59,1.94-.88,3.59-1.75,8-3.56,10.07-6.98.77-1.27,1.25-2.69,1.74-4.08.56-1.64,1.12-3.28,1.68-4.91-1.93-2-3.58-4.05-5.14-6.22,0,0-1.78-2.57-2.54-4.05,0,0-.14-.34-.33-.81-2.32.19-4.76-.57-5.76-1.13-3.38-1.92-5.03-4.74-6.12-6.78-1.54-2.89-2.34-7.79-1.12-10.71.41-.97,1.44-2.69,4.39-3.22,1.35-.25,3-.08,4.34.82,0,0-12.04-40.08,48.12-40.08,29.83,0,26.27,35.46,26.27,35.46h0Z"/>
        <path class="cls-3" d="M242.6,130.1c2.86-2.1,4.86-4.74,6.49-7.84,1.23-2.34,1.59-5.01,1.87-7.63,1.42-13.22,2.07-31.66,1.5-46.28-.71-21.69,4.94-37.43,13.85-46.04,5.37-5.19,17.47-12.27,31.07-12.27,8.17,0,17.71.81,26.81,8.79,10.98,7.27,17.27,16.4,18.52,33.2.17,2.3.21,7.67.27,15.07-.57,15.19-.25,35.61,1.17,49.35.28,2.72.65,5.49,1.87,7.93,1.62,3.23,4.58,5.53,7.44,7.71"/>
        <path class="cls-3" d="M326.8,68.56c1.27-.82,2.83-.95,4.09-.7,2.76.55,3.7,2.18,4.07,3.1,1.1,2.75.27,7.35-1.23,10.03-1.05,1.9-2.64,4.52-5.85,6.27-1.01.55-3.55,1.27-5.83.92,1.69-1.11-2.37,4.56-2.37,4.56-1.36,1.82-2.79,3.56-4.42,5.24.57,1.67,1.15,3.35,1.72,5.02.45,1.31.91,2.64,1.63,3.84,1.95,3.21,6.09,4.91,9.46,6.56.56.27,1.17.55,1.82.82-.41.32-1.66,1.31-1.66,1.31-9.67,7.12-21.15,11-32.67,11.02-4.41,0-8.88-.56-12.99-2.4-3.83-1.72-7.35-4.65-9.53-8.63,2.06-.69,4.07-1.38,5.49-1.98,1.93-.63,3.71-2.18,4.54-4.03.02-.04.05-.14.1-.29-6.11-.68-11.38-3.17-16.32-7.61-5.95-5.36-8.26-13.47-8.82-22.34-.24-3.89-.43-8.03-.71-12.23.6-2.22,2-5.98,3.39-8.07h21.47c3.95-1.42,7.23-4.54,9.26-8.21,1.64-2.97,2.55-5.33,3.31-9.3l9.88,1.12c1.14,4.54,2.53,8.89,3.8,11.3,2.57,4.9,7.06,11.66,11.7,13.5l6.69,1.21h0Z"/>
        <path class="cls-3" d="M172.86,196.22c-.31-6.97-2.51-17-3.62-21.37-2.82-11.04-4.65-16.94-7.05-24.87-1.02-3.36-2.96-8.97-4.81-12.98h0c-3.29-5.88-7.05-9.75-8.59-11.29-5.64-5.65-16.61-9.77-24.67-12.14-.76-.22-2.55-.68-3.65-.96-2.28,4.65-6.24,8.06-10.58,10.01-4.37,1.96-9.13,2.56-13.83,2.56-12.26-.02-24.49-4.14-34.79-11.73l-1.92-1.51s-.31-.24-.83-.65c-9.95,3.55-18.74,7.81-24.94,13-2.64,2.21-5.99,5.72-9.91,13.38-5.12,10.01-9.61,25.92-12.63,35.99-1.41,4.99-3.61,13.82,0,18.48,0,0,3.44,4.74,7.91,10.88,10.39,2.15,20.7,4.26,29.93,6.24,4.79,1.48,7.06,4.34,7.95,8.33.33,1.5.7,3.2,1.09,5.06h92.22c2.66-.56,4.3-.91,4.3-.91,11.58-2.46,14.56-7.67,15.83-10.36,1.56-3.3,2.64-9.6,2.57-11.9-.03-1.09.08-2.18.03-3.27h0Z"/>
        <path class="cls-3" d="M305.32,203.58c-1.02-.92-5.76-5.23-6.75-6.28-3.23-3.4-4.89-10.45-.72-12.73.82-.4,1.86-.57,2.31-1.36.26-.45.25-.99.33-1.49.19-1.25.94-2.38,1.97-3.12s1.59-1.95,1.54-3.21c-.03-.67-.02-1.26-.01-1.38.21-2.05,1.12-4.03,2.61-5.47.05-.04.1-.09.17-.14.94-.69,1.55-1.74,1.62-2.9.06-1.07.15-2.11.12-2.49-.07-1.1.38-2.26.84-3.08.75-1.32,2.17-1.9,3.56-1.85,1.23.05,2.33.5,2.91,1.65,1.43,2.84,5.07,13.39,8.86,19.26,1.91-.77,3.88-1.59,4.67-2,3.2-1.63,5.5.32,6.3,1.62.6.97.8,2.22.85,3.37.13,3.18.08,5.84-.15,9.18-.03.43-.1.87.06,1.26.13.34.38.64.67.87.72.58,1.41,1.13,2.09,1.66,1.47,1.15,1.87,3.21.95,4.83-2.51,4.37-5.21,8.67-8.46,12.39-1.91,2.2-5.16,2.71-7.64,1.17-3.05-1.9-6.24-3.47-9.61-5.15-2.81-1.31-6.24-2.11-8.87-4.45,0,0-.07-.06-.19-.18h0Z"/>
        <path class="cls-3" d="M227.24,156.32c-1.13-1.05-2.25-2.11-3.37-3.18-1.92-1.84-3.99-4.48-2.85-6.89.77-1.65,2.84-2.35,4.64-2.11s3.41,1.22,4.96,2.17c3.15,1.94,6.45,3.66,9.45,5.83,2.99,2.16,5.89,5.7,5.99,8.92,1.27,1.88,2.17,4.66,2.24,6.12.32,6.9-3.23,11.57-8.36,14.49l-4.3,1.54c-2.71.6-6.88,1.27-9.63,1.68-2.06.31-4.84.66-6.91.52-3.55-.24-6.92-1.61-10.21-2.97-1.66-.68-3.42-1.44-4.45-2.92-1.06-1.52-1.2-3.61-2.52-4.9-1.11-1.09-2.76-1.33-4.19-1.95-2.52-1.09-3.93-3.46-4.01-6.2-.04-1.3.06-2.6.31-3.76.33-1.52.92-2.81,1.82-3.55,1.83-1.51,4.76-1.81,7.65-1.49s6.35.94,9.24,1.28c4.64.55,9.43-.34,13.56-2.51"/>
        <g id="e">
          <path class="cls-1" d="M380.15,194.96c-.31-7.18-1.35-11.76-2.83-17.76-2.63-10.62-5.26-16.54-8.09-24.97-1.75-5.09-3.67-10.01-5.69-13.96-3.68-7.2-6.83-10.49-9.31-12.57-5.82-4.88-14.08-8.88-23.42-12.21-.49.39-.78.61-.78.61l-1.8,1.42c-9.67,7.12-21.15,11-32.67,11.02-4.41,0-8.88-.56-12.99-2.41-4.08-1.83-7.8-5.03-9.92-9.41-1.04.26-2.72.7-3.44.91-7.57,2.23-17.88,6.1-23.17,11.4-1.03,1.03-3.13,3.18-5.37,6.35-.95.79-4.31,6.81-7.96,14.17,2.5,1.47,5.03,2.9,7.38,4.59,2.99,2.16,5.89,5.7,5.99,8.92,1.27,1.88,2.17,4.66,2.24,6.12.32,6.9-3.23,11.57-8.36,14.49l-4.3,1.54c-2.71.6-6.88,1.27-9.63,1.68-2.06.31-4.84.66-6.91.52-.11,0-.23-.03-.34-.04-.55,2.6-1,5.2-1.22,7.55-.26,2.77.34,6.05,1.5,8.61,2.56,5.64,12.22,9.42,21.56,5.17,0,0,7.16-3.28,13.79-6.31.98,4.82,1.85,9.66,2.62,14.52,0,0,.55,3.28,1.29,7.73h112.08c4.97-2.92,2.78-6.33,2.78-6.33,5.61-4.71,7.36-12.65,6.98-21.37h0ZM340.1,199.78c-2.51,4.37-5.21,8.67-8.46,12.39-1.91,2.2-5.16,2.71-7.64,1.17-3.05-1.9-6.24-3.47-9.61-5.15-2.81-1.31-6.24-2.11-8.87-4.45,0,0-.07-.06-.19-.18-1.02-.92-5.76-5.23-6.75-6.28-3.23-3.4-4.89-10.45-.72-12.73.82-.4,1.86-.57,2.31-1.36.26-.45.25-.99.33-1.49.19-1.25.94-2.38,1.97-3.12,1.03-.73,1.59-1.95,1.54-3.21-.03-.67-.02-1.26-.01-1.38.21-2.05,1.12-4.03,2.61-5.47.05-.04.1-.09.17-.14.94-.69,1.55-1.74,1.62-2.9.06-1.07.15-2.11.12-2.49-.07-1.1.38-2.26.84-3.08.75-1.32,2.17-1.9,3.56-1.85,1.23.05,2.33.5,2.91,1.65,1.43,2.84,5.07,13.39,8.86,19.26,1.91-.77,3.88-1.59,4.67-2,3.2-1.63,5.5.32,6.3,1.62.6.97.8,2.22.85,3.37.13,3.18.08,5.84-.15,9.18-.03.43-.1.87.06,1.26.13.34.38.64.67.87.72.58,1.41,1.13,2.09,1.66,1.47,1.15,1.87,3.21.95,4.83h0Z"/>
          <path class="cls-1" d="M66.31,10.38c-5.43,4.14-9.87,9.44-13.62,15.24l-1.66,8c-3.13,8.62-2.69,18.57,1.16,26.88l2.08,4.35c.57-.95,1.7-2.14,4.06-2.57,1.35-.25,3-.08,4.34.82l8.71,1.01c1.04-4.79,7.43-6.47,11.67-8.1,1.37-.68,2.78-1.41,4.21-2.21h6.81c11.26,1.69,22.34-7.26,26.83-17.01l3.52-3.18c5.04,5.98,8.44,13.43,9.67,21.26.15.96.27,1.92.37,2.89h4.02c1.96-10.92,2.16-21.94-1.4-30.57-4.19-10.15-12.91-17.58-24.64-19.85l-7.35-2.02c-8.77-4.49-19.69-4.22-28.71-.66-.97.38-1.93.81-2.86,1.26-2.57,1.25-4.96,2.75-7.18,4.44h0Z"/>
          <path class="cls-1" d="M79.18,259.31c-4.69-.92-9.36-1.77-14.47-2.38,1.03,5.3,2.01,10.3,2.86,14.52.68-.17,1.07-.27,1.07-.27,7.16-1.73,13.95-3.72,20.26-5.96.6-.1,1.85-.77,1.87-2.15.02-1.15-.83-1.58-1.42-1.75-3.51-.67-6.85-1.36-10.17-2.02h0Z"/>
          <path class="cls-1" d="M254.32,263.91c.12-.26.32-.49.63-.64,12.19-5.9,33.86-16.38,39.7-19.21.84-.41,1.79-.55,2.71-.41,16.44,2.5,31.9,4.85,40.73,6.19.92.14,1.73.54,2.38,1.12-8.45,4.95-27.76,16.41-37.45,22.11-1.87,1.1-4.08,1.47-6.21,1.05-9.4-1.89-27.81-5.63-41.55-8.38-.9-.18-1.26-1.12-.94-1.83h0Z"/>
          <path class="cls-1" d="M341.83,263.27c.11-.4.17-.82.17-1.24,0-2.54,0-5.08,0-7.63,0-1.35-.58-2.59-1.53-3.44-8.45,4.95-27.77,16.41-37.45,22.11-1.03.61-2.17.99-3.33,1.14.38,1.06.61,1.74.61,1.74,1.58,4.49.77,9.59-.11,12.83.66.13,1.15.22,1.15.22.82.16,1.67,0,2.38-.45,12.04-7.55,24.08-15.09,36.12-22.63.99-.62,1.69-1.58,1.99-2.67h0Z"/>
        </g>
      </g>
      <g id="f">
        <path class="cls-2" d="M328.69,24.78c4.02,3.65,7.21,8.08,9.12,13.18,2.03,5.4,2.86,11.18,3.02,16.93.37,14.02-.34,28.04.11,42.07.24,7.62.46,15.4,1.65,22.94.17,1.07,1.5,1.66,2.46,1.4,1.14-.31,1.57-1.39,1.4-2.46-1.05-6.64-1.21-13.5-1.45-20.21-.27-7.44-.35-14.9-.25-22.35.09-6.91.25-13.79.1-20.7-.13-5.93-.85-11.93-2.77-17.56-2.11-6.2-5.7-11.67-10.55-16.08-1.9-1.73-4.74,1.09-2.83,2.83h0Z"/>
        <path class="cls-2" d="M273.56,117.43c2.21-.75,4.46-1.47,6.6-2.42,1.97-.88,3.73-2.56,4.63-4.52.44-.95.3-2.2-.72-2.74-.88-.46-2.27-.3-2.74.72-.19.42-.42.8-.67,1.17-.16.23.03.05.04-.04,0,.06-.16.19-.2.23-.15.17-.31.34-.48.5-.11.11-.36.41-.52.46.11-.03.25-.18.04-.03-.11.07-.21.15-.32.21-.19.12-.39.24-.59.35-.09.05-.18.09-.27.14-.34.17.22-.07,0,0-.88.29-1.73.68-2.6.99-1.08.39-2.16.75-3.24,1.12-.99.33-1.74,1.39-1.4,2.46.32.98,1.4,1.76,2.46,1.4h0Z"/>
        <path class="cls-2" d="M313.55,99.17c1.36,3.94,2.31,8.49,5.59,11.33,2.79,2.42,6.37,3.97,9.73,5.43.99.43,2.15.29,2.74-.72.49-.85.28-2.3-.72-2.74-1.59-.69-3.16-1.45-4.71-2.22-1.38-.69-2.98-1.56-4.04-2.44-1.28-1.07-2.01-2.08-2.63-3.66-.77-1.99-1.41-4.03-2.11-6.05-.35-1.02-1.37-1.7-2.46-1.4-.99.27-1.75,1.43-1.4,2.46h0Z"/>
        <path class="cls-2" d="M279.05,94.14c1.73.99,3.81,1.4,5.79,1.45,1,.03,2.02-.07,2.99-.29.49-.11.96-.29,1.42-.49.29-.12.59-.25.88-.38.11-.05.22-.1.33-.15.03-.01.58-.24.18-.08.96-.39,1.76-1.35,1.4-2.46-.3-.93-1.42-1.82-2.46-1.4-.57.23-1.14.49-1.7.74-.04.02-.38.16-.16.07.22-.09-.11.04-.15.05-.18.07-.36.12-.54.17-.2.05-.4.1-.6.13-.09.02-.2.01-.28.04.11-.04.38-.04.11-.02-.42.03-.84.06-1.26.05-.41,0-.81-.05-1.22-.08-.29-.02.36.06.08.01-.1-.02-.2-.03-.3-.05-.22-.04-.44-.08-.66-.13-.37-.09-.74-.19-1.11-.32-.07-.03-.45-.11-.14-.05.26.06.01,0-.07-.03-.17-.08-.34-.17-.51-.26-.91-.52-2.23-.24-2.74.72-.5.95-.25,2.18.72,2.74h0Z"/>
        <path class="cls-2" d="M292.2,73.49c-.4-1.82.29-5.89,3.69-5.96,4.45.39,4.29,5.36,2.6,7.57-1.39,1.81-5.06,2.3-6.29-1.61h0Z"/>
        <path class="cls-2" d="M265.67,72.15c-.36-1.83.29-5.91,3.41-6,4.08.37,3.9,5.36,2.34,7.58-1.28,1.82-4.65,2.33-5.75-1.58h0Z"/>
        <path class="cls-2" d="M279.01,76.92c-.61.92-1.2,1.85-1.72,2.82-.21.4-.44.81-.54,1.25-.21.94,0,1.79.63,2.52.42.49.96.79,1.55,1.02.38.15.8.17,1.2.23l-.53-.07c.06,0,.12.02.18.03.53.1,1.06.08,1.54-.2.42-.24.81-.72.92-1.19.12-.51.09-1.09-.2-1.54-.27-.42-.69-.82-1.2-.92-.27-.05-.54-.08-.8-.11l.53.07c-.2-.03-.39-.07-.58-.14l.48.2c-.13-.06-.24-.13-.35-.21l.4.31c-.13-.11-.25-.22-.36-.35l.31.4s-.05-.08-.06-.12l.2.48s-.02-.08-.03-.13l.07.53c0-.07,0-.13,0-.2l-.07.53c.02-.12.05-.24.1-.35l-.2.48c.26-.61.63-1.18.98-1.74.32-.53.65-1.05.99-1.56.28-.42.33-1.07.2-1.54-.13-.46-.49-.97-.92-1.19-1-.53-2.12-.22-2.74.72h0Z"/>
        <path class="cls-2" d="M311.35,104.05c2.95-2.27,5.63-4.8,7.99-7.68,1.64-2,3.26-4.12,4.5-6.39.52-.95.23-2.18-.72-2.74-.92-.54-2.22-.23-2.74.72-.6,1.09-1.31,2.12-2.02,3.14-.66.95-1.13,1.55-1.86,2.44-2.12,2.59-4.54,5.02-7.18,7.05-.85.66-1.31,1.72-.72,2.74.49.84,1.88,1.38,2.74.72h0Z"/>
        <path class="cls-2" d="M302.34,103.96c-8.84,3.56-19.01,5.18-27.81.6-4.02-2.09-7.74-5.12-10.1-9.03-2.38-3.93-3.58-8.52-4.11-13.05-.76-6.45-.76-13-1.3-19.48-.21-2.55-4.21-2.57-4,0,.51,6.21.57,12.47,1.21,18.67.53,5.17,1.68,10.34,4.2,14.93,4.89,8.91,14.97,14.36,24.96,14.76,6.22.25,12.28-1.24,18.02-3.55,1-.4,1.71-1.33,1.4-2.46-.26-.95-1.45-1.8-2.46-1.4h0Z"/>
        <path class="cls-2" d="M327.8,70.28c1.15-.69,2.54-.7,3.76-.14.92.42,1.14.74,1.56,1.59-.3-.6.09.31.13.46.07.25.12.51.15.77.09.75.06,1.54-.01,2.3-.12,1.28-.45,2.6-.94,3.79-.95,2.31-2.64,4.61-4.74,5.97-.32.21-.65.4-.99.58-.46.24.39-.13-.18.07-.59.21-1.2.38-1.82.48-1.17.2-2.52.22-3.6-.34-2.28-1.18-4.31,2.26-2.02,3.45,2.61,1.36,5.87,1.24,8.59.22,2.82-1.05,5.07-3.29,6.7-5.75,1.59-2.4,2.57-5.03,2.92-7.89.32-2.62.07-5.49-1.7-7.57-2.35-2.76-6.8-3.27-9.84-1.45-2.21,1.32-.2,4.78,2.02,3.45h0Z"/>
        <path class="cls-2" d="M302.68,43.08c1.37,5.43,3.08,10.6,6.05,15.37,2.68,4.3,6.02,8.82,10.84,10.82,1,.42,2.2-.45,2.46-1.4.32-1.15-.39-2.04-1.4-2.46-1.82-.76-3.34-2.31-4.63-3.76-1.61-1.8-2.97-3.81-4.21-5.87-2.59-4.29-4.03-8.93-5.25-13.77-.63-2.49-4.49-1.44-3.86,1.06h0Z"/>
        <path class="cls-2" d="M292.8,40.9c-1.27,6.51-4.45,13.64-11.17,16.12-1.01.37-1.7,1.36-1.4,2.46.27.97,1.44,1.77,2.46,1.4,8.06-2.97,12.39-10.87,13.96-18.91.21-1.06-.3-2.16-1.4-2.46-.98-.27-2.25.33-2.46,1.4h0Z"/>
        <path class="cls-2" d="M278.95,41.22c-.3,6.47-3.32,12.46-8.3,16.58-.83.69-.71,2.12,0,2.83.82.82,1.99.69,2.83,0,5.79-4.79,9.13-11.94,9.48-19.41.05-1.08-.95-2-2-2-1.12,0-1.95.92-2,2h0Z"/>
        <path class="cls-2" d="M258.11,73.49c.71-5.1,1.97-10.21,4.98-14.47,3.49-4.94,6.18-10.81,5.17-16.97-.17-1.07-1.5-1.66-2.46-1.4-1.13.31-1.57,1.39-1.4,2.46.92,5.65-2.66,10.52-5.53,14.97-2.72,4.22-3.94,9.44-4.62,14.34-.15,1.07.26,2.15,1.4,2.46.94.26,2.31-.32,2.46-1.4h0Z"/>
        <path class="cls-2" d="M243.61,131.82c2.51-1.88,4.58-4.14,6.22-6.82,1.74-2.84,2.57-5.78,2.98-9.07.75-5.99,1.12-12.04,1.41-18.07.32-6.53.47-13.06.45-19.59-.03-6.41-.47-12.82-.11-19.22.57-10.23,2.79-20.82,8.42-29.53,5.22-8.07,13.96-13.24,23.08-15.84,6.19-1.76,12.71-2.03,19.08-1.24,6.77.84,12.97,3.64,18.06,8.18,1.92,1.71,4.75-1.11,2.83-2.83-4.81-4.29-10.5-7.36-16.82-8.7-5.52-1.17-11.47-1.42-17.06-.71-10.53,1.33-21.75,6.21-28.92,14.25-6.64,7.46-10.1,17.3-11.66,27.03-1.03,6.44-1.31,12.96-1.08,19.48s.22,13.06.06,19.58c-.18,7.16-.53,14.31-1.16,21.44-.3,3.41-.35,7.16-1.69,10.36-1.26,3.02-3.49,5.88-6.11,7.85-.86.65-1.31,1.73-.72,2.74.5.85,1.87,1.37,2.74.72h0Z"/>
        <path class="cls-2" d="M281.45,248.77c-3.72-.58-7.44-1.16-11.16-1.75-1.58-.25-3.51-.92-5.04-.29-.86.36-1.68.84-2.51,1.26-3.85,1.95-7.72,3.87-11.6,5.78-9.06,4.47-18.15,8.88-27.24,13.28-3.81,1.85-7.62,3.69-11.43,5.53-1.41.68-2.82,1.36-4.23,2.05-1.75.85-3.85,1.93-3.11,4.32.48,1.54,1.79,1.96,3.19,2.31,1.49.36,2.99.73,4.49,1.08,3.04.72,6.08,1.42,9.12,2.12,6.43,1.47,12.87,2.89,19.32,4.29,7.07,1.55,14.14,3.07,21.21,4.63,1.61.36,3.23.71,4.84,1.07,2.01.45,3.42.18,5.22-.86,2.88-1.66,5.76-3.32,8.64-4.98,2.23-1.29.22-4.75-2.02-3.45-2.39,1.38-4.77,2.75-7.16,4.13-.98.57-2.09,1.59-3.25,1.39-1.42-.24-2.84-.63-4.25-.94-5.84-1.29-11.68-2.55-17.52-3.83-11.8-2.57-23.61-5.14-35.35-7.97-.62-.15-1.24-.3-1.85-.45-.33-.08-.75-.26-1.09-.27l-.36-.09c-.35,1.46-.23,2.04.34,1.73.51-.09,1.15-.56,1.62-.79,1.27-.62,2.54-1.23,3.81-1.85,3.49-1.69,6.97-3.37,10.46-5.06,8.6-4.16,17.2-8.33,25.77-12.55,4.21-2.07,8.41-4.14,12.6-6.25.86-.43,1.72-.87,2.58-1.3.38-.19.77-.46,1.18-.6.37-.13-.46-.22.44.06.44.14.96.15,1.42.23,3.96.63,7.91,1.25,11.87,1.86,1.07.16,2.15-.27,2.46-1.4.26-.95-.32-2.29-1.4-2.46h0Z"/>
        <path class="cls-2" d="M110.97,87.66c-.16.09-.32.17-.48.24-.27.13.03-.06.09-.04-.04-.02-.23.09-.27.1-.41.14-.82.26-1.25.35-.21.05-.42.09-.62.12-.05,0-.4.06-.13.02s-.09,0-.14.01c-.46.05-.92.07-1.38.07-.43,0-.85-.03-1.27-.06-.34-.03.07-.02.07.01,0-.01-.27-.04-.3-.05-.19-.04-.38-.08-.57-.12-.18-.05-.36-.1-.54-.16-.04-.02-.48-.18-.24-.09.21.08-.14-.07-.18-.08-.49-.22-.97-.46-1.46-.67-.96-.41-2.19-.32-2.74.72-.45.86-.31,2.3.72,2.74,1.1.47,2.15,1.08,3.31,1.38,1.03.27,2.13.39,3.2.38,2.12,0,4.33-.41,6.2-1.44.92-.5,1.29-1.85.72-2.74-.6-.93-1.75-1.26-2.74-.72h0Z"/>
        <path class="cls-2" d="M99.4,69.01c.46-1.94-.2-6.28-3.82-6.42-4.75.33-4.66,5.63-2.9,8.01,1.44,1.95,5.35,2.54,6.72-1.59h0Z"/>
        <path class="cls-2" d="M127.67,68.07c.42-1.94-.2-6.3-3.52-6.45-4.35.32-4.25,5.63-2.64,8.03,1.32,1.96,4.9,2.57,6.15-1.58Z"/>
        <path class="cls-2" d="M109.8,74.96c.35.54.68,1.09,1,1.65.35.6.72,1.2,1,1.83l-.2-.48c.06.15.11.29.13.45l-.07-.53c0,.07,0,.14,0,.22l.07-.53s-.02.09-.03.13l.2-.48s-.04.08-.07.12l.31-.4c-.11.14-.24.26-.39.37l.4-.31c-.12.09-.24.16-.38.22l.48-.2c-.17.07-.33.1-.51.13l.53-.07c-.31.04-.62.07-.93.12-.47.08-.96.53-1.19.92-.25.43-.36,1.06-.2,1.54.16.48.46.95.92,1.19.5.26.99.3,1.54.2.05,0,.09-.01.14-.02l-.53.07c.41-.05.84-.07,1.24-.21.6-.21,1.14-.53,1.59-.99.7-.72.9-1.58.73-2.55-.08-.48-.32-.92-.54-1.35-.54-1.05-1.16-2.06-1.79-3.05-.28-.43-.69-.78-1.19-.92-.48-.13-1.12-.07-1.54.2-.88.57-1.32,1.79-.72,2.74h0Z"/>
        <path class="cls-2" d="M80.96,97.96c-4.82-3.85-9.11-8.57-11.97-14.03-.5-.96-1.83-1.25-2.74-.72-.97.57-1.22,1.78-.72,2.74,1.25,2.39,2.89,4.6,4.55,6.71,2.37,3.01,5.05,5.74,8.05,8.13.84.67,2,.82,2.83,0,.7-.7.85-2.15,0-2.83h0Z"/>
        <path class="cls-2" d="M86.43,105.03c5.44,2.3,11.06,3.98,16.99,4.26,5.51.26,10.97-.73,15.95-3.13,4.85-2.34,9.31-5.93,12.33-10.41,3.03-4.5,4.64-9.88,5.43-15.21,1.09-7.28,1.19-14.72,1.93-22.04.11-1.08-1-2-2-2-1.17,0-1.89.92-2,2-.62,6.15-.88,12.34-1.49,18.49-.48,4.88-1.55,9.86-3.84,14.23-4.54,8.67-14.24,13.94-23.88,14.11-6.03.11-11.88-1.42-17.41-3.76-.99-.42-2.14-.3-2.74.72-.49.84-.28,2.31.72,2.74h0Z"/>
        <path class="cls-2" d="M63.67,61.39c-2.96-1.84-6.98-1.48-9.65.72-2.11,1.74-2.73,4.58-2.67,7.2.13,5.97,3.48,12.69,8.96,15.5,3.04,1.56,7.02,1.91,10.11.37,2.31-1.14.28-4.6-2.02-3.45-2.38,1.18-5.58.13-7.41-1.21-2.06-1.5-3.72-3.87-4.64-6.24-.56-1.43-.91-2.98-.99-4.51-.04-.7-.05-1.43.05-2.13.04-.29.11-.57.19-.85.05-.17.1-.34.16-.5-.08.16-.07.16,0,0,.26-.55.3-.61.59-.9.33-.33.64-.57,1.16-.79,1.36-.59,2.88-.52,4.13.26,2.19,1.36,4.2-2.09,2.02-3.45h0Z"/>
        <path class="cls-2" d="M111.88,9.28c7.11,1.41,13.56,4.87,18.3,10.4,5.15,6.01,7.34,13.7,7.63,21.5.2,5.38-.34,10.76-1.28,16.06-.19,1.06.29,2.15,1.4,2.46.97.27,2.27-.33,2.46-1.4,1.7-9.59,2.49-19.95-.57-29.36-2.46-7.57-7.48-14.16-14.18-18.48-3.85-2.48-8.21-4.15-12.69-5.04-2.51-.5-3.59,3.36-1.06,3.86h0Z"/>
        <path class="cls-2" d="M122.32,34.27c3.44,3.92,6.13,8.51,7.86,13.43,1.94,5.51,2.43,11.15,2.69,16.95.12,2.56,4.12,2.58,4,0-.29-6.27-.82-12.46-2.97-18.41-1.98-5.45-4.93-10.44-8.75-14.8-1.7-1.94-4.52.9-2.83,2.83h0Z"/>
        <path class="cls-2" d="M119.15,35.8c-4.2,8.98-14.01,17.56-24.57,16.09-1.07-.15-2.15.26-2.46,1.4-.26.94.32,2.31,1.4,2.46,12.36,1.72,24.01-7.09,29.08-17.93.46-.98.27-2.16-.72-2.74-.87-.51-2.28-.26-2.74.72h0Z"/>
        <path class="cls-2" d="M103.71,35.46c-2.29,5.75-7.32,10.12-12.33,13.49-2.6,1.75-5.33,3.3-8.12,4.73-2.43,1.24-5.1,1.91-7.55,3.12-2.86,1.41-5.49,3.57-6.27,6.8-.61,2.5,3.25,3.57,3.86,1.06.59-2.44,2.89-3.71,5.02-4.69,2.56-1.18,5.24-1.94,7.75-3.25,5.63-2.94,11.17-6.47,15.57-11.11,2.53-2.66,4.57-5.67,5.93-9.09.4-1-.44-2.2-1.4-2.46-1.14-.31-2.06.39-2.46,1.4h0Z"/>
        <path class="cls-2" d="M53.91,59.5c-3.61-7.94-3.87-17.15-.95-25.34.87-2.43-3-3.48-3.86-1.06-3.29,9.24-2.69,19.52,1.36,28.42.45.98,1.87,1.22,2.74.72,1.01-.59,1.17-1.75.72-2.74h0Z"/>
        <path class="cls-2" d="M54.42,26.63c4.01-6.18,8.9-11.93,15.05-16.07,6.48-4.35,14.12-6.79,21.96-6.57,4.37.12,8.71,1.1,12.62,3.07,2.29,1.15,4.32-2.3,2.02-3.45-7.75-3.9-16.75-4.5-25.13-2.48-8.15,1.97-15.46,6.55-21.31,12.49-3.28,3.33-6.13,7.08-8.67,10.99-1.41,2.17,2.06,4.17,3.45,2.02h0Z"/>
        <path class="cls-2" d="M68.16,247.38c12.86,2.81,25.74,5.5,38.59,8.32,2.93.64,5.86,1.3,8.78,1.96,1.34.31,2.69.61,4.03.93,1.03.24,2.16.53,3.01,1.2,1.33,1.05,1.14,3.24.09,4.41-.72.81-1.76,1.24-2.75,1.61-1.7.63-3.41,1.26-5.11,1.89-13.01,4.8-26.03,9.58-38.98,14.52-3,1.14-5.82,1.36-8.93.55-2.87-.74-5.77-1.38-8.66-2.05-5.95-1.37-11.88-2.78-17.82-4.21-12.25-2.96-24.48-6.02-36.69-9.15-2.49-.64-3.56,3.22-1.06,3.86,11.5,2.95,23.02,5.83,34.56,8.64,6.23,1.51,12.46,3,18.7,4.44,3,.69,6.06,1.26,9.02,2.09,3.19.89,6.43,1.26,9.69.45,1.72-.43,3.37-1.18,5.03-1.81,1.77-.68,3.55-1.35,5.32-2.02,3.47-1.31,6.96-2.61,10.44-3.9,6.81-2.52,13.63-5.02,20.44-7.54,2.96-1.09,6.44-1.88,8.93-3.89,2.1-1.7,2.98-4.32,2.58-6.96-.89-5.84-8.26-6.33-12.84-7.36-15.08-3.4-30.21-6.52-45.32-9.82-2.51-.55-3.58,3.31-1.06,3.86h0Z"/>
        <path class="cls-2" d="M71.03,278.31c-2.96-13.77-5.47-27.63-8.2-41.44-1.29-6.54-2.56-13.09-4.02-19.59-.85-3.78-3.01-6.99-6.52-8.78-2.1-1.07-4.35-1.48-6.64-1.96-2.46-.52-4.92-1.04-7.38-1.55-11.92-2.49-23.86-4.9-35.77-7.44-2.51-.53-3.58,3.32-1.06,3.86,10.35,2.2,20.72,4.31,31.07,6.46,4.94,1.02,9.87,2.05,14.81,3.11,3.49.75,6.31,2.71,7.35,6.23.82,2.81,1.28,5.76,1.88,8.63.71,3.43,1.39,6.85,2.07,10.28,1.51,7.61,2.98,15.23,4.47,22.84,1.33,6.81,2.63,13.63,4.09,20.42.54,2.52,4.4,1.45,3.86-1.06h0Z"/>
        <path class="cls-2" d="M69.18,273.12c3.88-.94,7.73-1.97,11.54-3.11,1.8-.54,3.59-1.11,5.38-1.7,1.44-.48,3.12-.84,4.46-1.58,2.94-1.64,2.93-6.17-.47-7.25-1.76-.56-3.72-.75-5.54-1.12-1.88-.38-3.76-.76-5.64-1.12-4.45-.87-8.92-1.63-13.42-2.2-1.07-.14-2,1.02-2,2,0,1.2.92,1.86,2,2,4.14.53,8.26,1.26,12.36,2.06,2.03.39,4.06.81,6.09,1.21,1,.2,2,.4,3,.6.54.11,1.11.18,1.64.32.71.18.18,0,.23-.05-.04.04-.14-.11.01-.13.18-.02-.74.44-.29.23-.69.33-1.51.51-2.24.76-1.98.68-3.98,1.32-5.98,1.92-4.03,1.23-8.1,2.32-12.2,3.31-2.5.61-1.44,4.46,1.06,3.86h0Z"/>
        <path class="cls-2" d="M115.59,260.51c-11.66,3.87-23.24,8.02-34.91,11.85-.9.3-1.79.59-2.7.86-.26.08-.52.14-.78.23-.49.16-.22.02.07.02-2.57-.02-2.58,3.98,0,4,1.12,0,2.38-.58,3.42-.92,2.36-.76,4.71-1.56,7.06-2.36,6.38-2.17,12.75-4.36,19.13-6.54,3.25-1.11,6.5-2.21,9.76-3.3,2.43-.81,1.39-4.67-1.06-3.86h0Z"/>
        <path class="cls-2" d="M367.29,152.76c2.81,8.31,5.97,16.44,8.09,24.97,2.08,8.36,3.88,17.4,2.28,26-.8,4.3-2.54,8.29-5.91,11.18-1.96,1.68.88,4.5,2.83,2.83,6.96-5.97,8.02-15.82,7.48-24.42-.59-9.47-3.07-18.85-6.06-27.83-1.54-4.63-3.29-9.18-4.85-13.81-.82-2.43-4.68-1.38-3.86,1.06h0Z"/>
        <path class="cls-2" d="M238.89,132.36c-1.28,1.66-2.3,3.5-3.31,5.33-1.61,2.91-3.12,5.87-4.6,8.85-.48.97-.26,2.16.72,2.74.88.52,2.25.25,2.74-.72,1.45-2.92,2.93-5.82,4.5-8.68.56-1.02,1.13-2.04,1.74-3.04.23-.39.47-.77.71-1.15.1-.15.2-.3.3-.46.1-.14.49-.66.03-.06.66-.85.83-2,0-2.83-.69-.69-2.16-.86-2.83,0h0Z"/>
        <path class="cls-2" d="M216.83,184.86c-.88,4.2-1.74,8.51-1.03,12.79.56,3.35,1.92,6.55,4.57,8.77,5.94,4.99,14.41,5.04,21.24,2.01.99-.44,1.22-1.88.72-2.74-.6-1.02-1.74-1.16-2.74-.72-5.15,2.28-12.16,2.3-16.61-1.58-4.95-4.32-3.47-11.86-2.3-17.49.52-2.51-3.33-3.59-3.86-1.06h0Z"/>
        <path class="cls-2" d="M119,114.3c5.28,1.32,10.47,2.91,15.5,5.02,5.43,2.28,10.49,5.12,14.5,9.49,2.57,2.8,4.78,5.89,6.66,9.2,1.27,2.24,4.73.23,3.45-2.02-3.09-5.45-7.15-10.77-12.24-14.5-5.64-4.12-12.43-6.73-19.02-8.87-2.57-.83-5.16-1.53-7.78-2.19-2.5-.63-3.56,3.23-1.06,3.86h0Z"/>
        <path class="cls-2" d="M118.79,111.52c-1.82,3.66-4.67,6.58-8.24,8.55-4.2,2.31-9.05,3.05-13.79,3.11-9.05.12-18.08-2.14-26.11-6.27-3.55-1.83-6.8-3.97-9.86-6.38-.85-.67-2-.83-2.83,0-.69.69-.85,2.16,0,2.83,6.95,5.48,14.75,9.64,23.34,11.89,9.6,2.52,20.95,3.26,30.12-1.13,4.63-2.22,8.55-5.97,10.83-10.58,1.14-2.3-2.31-4.33-3.45-2.02h0Z"/>
        <path class="cls-2" d="M62.83,107.72c-7.97,2.59-15.93,5.64-23.17,9.91-5.33,3.15-9.98,6.93-13.54,12.01-4.4,6.27-7.29,13.5-9.83,20.68-2.48,7.01-4.58,14.15-6.7,21.27-1.05,3.52-1.97,7.06-2.35,10.72-.38,3.64-.17,7.78,2.09,10.83.64.87,1.73,1.3,2.74.72.85-.5,1.36-1.86.72-2.74-1.81-2.43-1.85-5.55-1.58-8.46.27-2.92,1.01-5.82,1.83-8.63,1.96-6.69,3.95-13.38,6.19-19.99,2.35-6.92,4.96-13.82,8.82-20.05,3.03-4.89,6.86-8.63,11.69-11.72,7.44-4.76,15.79-7.99,24.17-10.71,2.44-.79,1.4-4.66-1.06-3.86h0Z"/>
        <path class="cls-2" d="M270.86,115.66c9.02,18.14,35.21,14.16,50.03,6.7,3.78-1.9,7.23-4.24,10.54-6.85.85-.67.7-2.13,0-2.83-.84-.84-1.98-.67-2.83,0-5.79,4.57-12.57,8.11-19.82,10.07-4.05,1.09-8.2,1.7-12.4,1.78-4.38.08-8.95-.35-12.98-2.2-3.95-1.81-7.15-4.79-9.09-8.69-1.15-2.31-4.6-.28-3.45,2.02h0Z"/>
        <path class="cls-2" d="M313.38,209.93c2.39,1.19,4.78,2.37,7.1,3.67,2.06,1.15,3.9,2.51,6.35,2.63,5.13.24,8.13-4.71,10.66-8.43,1.46-2.14,2.83-4.35,4.11-6.61,1.14-2.02,1.39-4.34.09-6.37-.64-1-1.59-1.64-2.5-2.37-.35-.27-.82-.65-.88-.86-.17-.57.11-1.68.14-2.27.13-2.44.17-4.9.04-7.34-.12-2.26-.7-4.49-2.54-5.97-2.06-1.65-4.71-1.82-7.15-.96-2.41.85-1.37,4.72,1.06,3.86,1.29-.46,2.65-.66,3.73.34.96.89.9,2.87.94,4.28.05,2.08,0,4.16-.12,6.24-.06,1.04-.28,2.17.04,3.19s1.1,1.68,1.9,2.32c1.09.87,2.79,1.79,2.05,3.42-.87,1.93-2.21,3.79-3.37,5.56-1.14,1.76-2.35,3.49-3.67,5.12-1.05,1.3-2.08,2.65-3.86,2.83-2.01.2-3.75-1.37-5.41-2.29-2.2-1.22-4.46-2.33-6.71-3.45-2.3-1.14-4.33,2.31-2.02,3.45h0Z"/>
        <path class="cls-2" d="M328.22,180.3c-1.96-1.96-3.3-4.72-4.53-7.25-1.43-2.95-2.68-5.99-3.92-9.03-.91-2.25-1.67-5.55-3.77-7-1.66-1.14-4.01-1.2-5.81-.39-2,.9-3.22,2.9-3.58,5.02-.16.97-.12,1.98-.18,2.96-.07,1.13-.25,1.61-1.09,2.38-1.53,1.4-2.62,3.32-3.1,5.35-.37,1.56.23,3.66-1.1,4.77-.81.67-1.51,1.39-1.99,2.35-.24.49-.45,1.01-.56,1.55-.05.24-.1,1.08-.16,1.16-.2.25-1.02.43-1.28.55-.32.15-.61.32-.9.52-.75.53-1.38,1.2-1.85,1.99-.83,1.4-1.13,3.11-1.03,4.72.19,3.3,1.63,6.6,3.94,8.96,1.94,1.99,4.07,3.82,6.12,5.68,1.01.92,2.06,1.78,3.26,2.46,2.12,1.21,4.47,1.9,6.68,2.9.98.45,2.15.28,2.74-.72.5-.86.27-2.29-.72-2.74-2.93-1.33-6.23-2.14-8.68-4.33-1.68-1.51-3.35-3.04-5-4.59-1.76-1.65-3.23-3.26-3.95-5.64-.36-1.19-.57-2.49-.29-3.71.32-1.37,1.14-1.79,2.35-2.32.82-.36,1.61-.87,2.06-1.68.5-.89.36-1.91.76-2.81.35-.8,1.05-1.16,1.65-1.75.72-.7,1.26-1.64,1.51-2.62.45-1.7,0-3.31.73-4.98.76-1.72,2.45-2.59,3.25-4.25.89-1.85.34-3.81.81-5.7.31-1.24,1.59-2.73,3.04-1.86.33.2.46.53.62.87.09.2.18.4.27.59.04.1.27.64.18.41.47,1.11.91,2.23,1.36,3.35,1.33,3.28,2.68,6.56,4.23,9.74,1.36,2.79,2.87,5.71,5.08,7.92,1.82,1.82,4.65-1.01,2.83-2.83h0Z"/>
        <path class="cls-2" d="M325.73,113.88c8.02,2.61,16.03,5.7,23.12,10.33,2.39,1.56,4.66,3.31,6.59,5.42,2.39,2.61,4.26,5.66,5.91,8.78,2.42,4.58,4.24,9.45,5.94,14.34.84,2.42,4.7,1.38,3.86-1.06-2.9-8.37-6.21-16.98-11.97-23.86-4.55-5.43-11.06-9.1-17.39-12.04-4.86-2.25-9.89-4.12-14.99-5.78-2.45-.8-3.51,3.06-1.06,3.86h0Z"/>
        <path class="cls-2" d="M251.24,195.15c1.49,6.73,2.77,13.5,3.85,20.3.17,1.07,1.5,1.66,2.46,1.4,1.14-.31,1.57-1.39,1.4-2.46-1.08-6.8-2.36-13.58-3.85-20.3-.56-2.51-4.41-1.45-3.86,1.06h0Z"/>
        <path class="cls-2" d="M59.92,224.66h340.35c2.57,0,2.58-4,0-4H59.92c-2.57,0-2.58,4,0,4h0Z"/>
        <path class="cls-2" d="M154.97,223.67c5.78-1.26,11.71-3.6,15.36-8.48,3.03-4.06,4.16-9.69,4.48-14.64.46-7.2-1.01-14.54-2.54-21.55-1.49-6.82-3.39-13.57-5.35-20.27-2.26-7.69-4.47-15.44-7.8-22.75-.45-.98-1.87-1.22-2.74-.72-1.01.59-1.17,1.75-.72,2.74,2.8,6.12,4.66,12.62,6.59,19.06,1.97,6.57,3.85,13.19,5.45,19.87,1.52,6.34,3.01,12.98,3.17,19.52.12,5.06-.44,10.83-3.04,15.28-.94,1.61-2.11,2.91-3.82,4.1-3.02,2.1-6.55,3.21-10.11,3.99-2.51.55-1.45,4.4,1.06,3.86h0Z"/>
        <path class="cls-2" d="M135.14,186.63c-1.3,6.23-2.61,12.46-3.91,18.68-.22,1.06.31,2.16,1.4,2.46.99.27,2.24-.34,2.46-1.4,1.3-6.23,2.61-12.46,3.91-18.68.22-1.06-.31-2.16-1.4-2.46-.99-.27-2.24.34-2.46,1.4h0Z"/>
        <path class="cls-2" d="M228.66,154.91c-1.13-1.05-2.26-2.1-3.37-3.18-.89-.87-1.85-1.83-2.34-3-.94-2.23,1.45-2.95,3.21-2.45,1.25.35,2.36,1.08,3.46,1.75,1.32.8,2.65,1.58,3.99,2.36,2.52,1.48,5.16,2.94,7.25,5.01.86.85,1.63,1.77,2.24,2.82.3.52.57,1.04.74,1.62.2.65.16,1.37.41,1.99.44,1.09,1.15,2.02,1.53,3.15.34.99.55,1.93.56,2.98.02,4.37-2.01,8.24-5.54,10.8-.63.45-1.29.93-1.6,1.06-.61.27-1.28.46-1.91.68-1.42.51-2.73.91-4.22,1.19-2.4.46-4.82.84-7.23,1.21-2.63.4-5.37.79-8.01.35-2.94-.49-5.76-1.64-8.49-2.8-1.03-.43-2.2-.92-2.96-1.76-.8-.89-1.07-2.17-1.54-3.24-.54-1.24-1.32-2.3-2.47-3.04s-2.48-.99-3.71-1.52c-1.92-.84-2.86-2.62-2.9-4.66-.03-1.51.07-3.19.74-4.57.55-1.15,1.58-1.6,2.77-1.88,2.9-.67,6.12.13,9.01.56,3.16.47,6.32.98,9.52.66,3.36-.34,6.55-1.28,9.55-2.83,2.29-1.18.27-4.63-2.02-3.45-4.28,2.2-8.92,2.74-13.65,2.1-4.54-.62-9.72-2.16-14.23-.69-2.1.68-3.75,1.97-4.65,4.02-.97,2.23-1.26,4.9-.96,7.29.25,1.99,1.07,3.9,2.52,5.32.69.68,1.51,1.24,2.39,1.63,1.06.48,2.26.69,3.27,1.27,1.61.93,1.73,3.41,2.73,4.86,1.36,1.99,3.49,2.95,5.65,3.84,4.7,1.95,9.28,3.42,14.42,2.93,4.26-.41,8.56-1.14,12.75-2.02,1.04-.22,2.03-.63,3.03-.99,1.01-.36,2.06-.67,2.98-1.24,3.7-2.27,6.68-5.58,8.01-9.75,1.43-4.49.82-9.29-1.76-13.25l.27,1.01c-.29-4.47-3.52-8.12-6.98-10.65-1.99-1.46-4.14-2.69-6.27-3.94-1.96-1.15-3.87-2.49-5.95-3.42-1.93-.86-4.06-1.29-6.12-.62-1.99.65-3.59,2.22-3.95,4.32-.8,4.64,4.07,8.21,7.03,10.97,1.88,1.75,4.72-1.07,2.83-2.83h0Z"/>
        <path class="cls-2" d="M333.08,252.99c-10.06,5.91-20.08,11.88-30.14,17.81-1.28.75-2.48,1.41-4,1.49-1.18.06-2.31-.23-3.46-.46-2.31-.47-4.63-.93-6.94-1.4-5.54-1.12-11.08-2.24-16.61-3.36-2.96-.6-5.92-1.2-8.88-1.79-1.3-.26-2.6-.52-3.9-.78-.75-.15-1.51-.3-2.26-.45-.24-.05-.5-.13-.74-.15-.42-.14-.48-.11-.17.07.25.28.29.56.11.86.09.19-.6.25.11.07.25-.06.54-.26.78-.38.45-.22.9-.43,1.34-.65,1.05-.51,2.1-1.02,3.14-1.52,2.28-1.1,4.56-2.21,6.84-3.31,8.29-4.01,16.57-8.02,24.86-12.03.58-.28,1.17-.56,1.75-.85,1.02-.49,1.74-.58,2.89-.41,3.46.51,6.91,1.05,10.37,1.57,6.22.95,12.45,1.89,18.67,2.84,2.52.38,5.04.76,7.56,1.15,1.73.26,4.46.12,5.34,1.96.55,1.14.26,2.79.26,4.01,0,1.67.23,3.49-.02,5.13-.2,1.37-1.35,1.93-2.42,2.61-1.54.96-3.08,1.93-4.62,2.89-6.02,3.77-12.04,7.54-18.06,11.32-3.08,1.93-6.16,3.86-9.24,5.79-1.02.64-2.78,2.13-3.83,2.08.14,0-.13-.03-.17-.04-4.17-.62-8.32-1.6-12.46-2.4-11.57-2.23-23.14-4.46-34.72-6.69l-.7-.14.48,3.65,1.7-1.05c1.08-.67,1.67-1.27,1.71-2.66.09-3.54,0-7.09,0-10.63,0-2.57-4-2.58-4,0v11.11l.99-1.73-2.42,1.5c-1.36.84-1.29,3.32.48,3.65,11.06,2.13,22.12,4.26,33.18,6.39,4.82.93,9.64,1.89,14.47,2.79,1.06.2,2.09.3,3.15,0,1.62-.48,3.16-1.76,4.58-2.65,1.68-1.05,3.36-2.11,5.04-3.16,6.44-4.04,12.88-8.07,19.32-12.11,1.54-.96,3.08-1.93,4.62-2.89,1.57-.98,3.39-1.86,4.77-3.11,2.66-2.41,2.17-5.94,2.17-9.18s.26-6.25-2.39-8.42c-1.97-1.61-4.65-1.66-7.07-2.03-5.99-.91-11.98-1.82-17.97-2.73-3.63-.55-7.25-1.1-10.88-1.65-1.78-.27-3.56-.54-5.33-.81-1.82-.28-3.67-.76-5.49-.25-1.54.43-3.05,1.37-4.48,2.06-1.82.88-3.64,1.76-5.46,2.64-4.69,2.27-9.39,4.54-14.08,6.81-4.75,2.3-9.51,4.6-14.26,6.9-2.15,1.04-5.2,2.2-4.2,5.23.48,1.45,1.69,2.04,3.08,2.32,1.52.3,3.04.61,4.56.92,11.47,2.31,22.93,4.64,34.4,6.95,3.06.62,5.91.92,8.83-.47,2.67-1.27,5.19-3.01,7.73-4.51,5.53-3.27,11.06-6.55,16.59-9.82,2.5-1.48,5.01-2.96,7.52-4.43,2.22-1.3.21-4.76-2.02-3.45h0Z"/>
        <path class="cls-2" d="M298.37,276.49c.73,2.14.9,3.81.81,6.07-.02.48-.05.96-.1,1.44-.03.27-.05.53-.09.8.05-.39-.06.36-.07.43-.14.88-.33,1.75-.55,2.61-.26,1.01.33,2.22,1.4,2.46,1.04.24,2.18-.31,2.46-1.4,1.11-4.36,1.48-9.16,0-13.47-.34-.99-1.39-1.74-2.46-1.4-.98.32-1.76,1.4-1.4,2.46h0Z"/>
        <path class="cls-2" d="M217.41,262.45c7.82-3.75,15.62-7.57,23.49-11.23.98-.46,1.23-1.87.72-2.74-.59-1-1.75-1.18-2.74-.72-7.87,3.66-15.66,7.48-23.49,11.23-2.32,1.11-.29,4.56,2.02,3.45h0Z"/>
        <path class="cls-2" d="M219.14,257.14l-.36-.47c-.07-.1-.15-.19-.23-.29-.17-.22.18.29.06.07-.21-.38-.1-.16-.12.6,0,.61.09.79-.33,1.12-.27.22-.02.04.05,0,.07-.04.14-.07.21-.1.17-.08.33-.15.5-.22.08-.04.17-.07.25-.11.42-.18-.29.12-.04.01.36-.15.72-.3,1.09-.44,1.48-.57,2.99-1.06,4.52-1.49,1.01-.28,1.73-1.43,1.4-2.46s-1.38-1.69-2.46-1.4c-1.88.52-3.74,1.15-5.54,1.9-1.08.45-2.44.83-3.09,1.88-.5.81-.43,1.87.06,2.66.34.55.8,1.05,1.19,1.56.29.38.97.59,1.41.59.49,0,1.08-.22,1.41-.59.35-.38.61-.88.59-1.41-.02-.57-.24-.97-.59-1.41h0Z"/>
        <path class="cls-2" d="M272.98,112.57c-5.27,1.32-10.42,2.96-15.42,5.08-5.5,2.34-10.6,5.29-14.65,9.74-2.56,2.82-4.8,5.92-6.68,9.23-1.27,2.24,2.18,4.26,3.45,2.02,1.9-3.35,4.16-6.45,6.82-9.24,2.36-2.48,5.09-4.35,8.11-5.95,6.1-3.24,12.75-5.34,19.43-7.02,2.49-.63,1.44-4.49-1.06-3.86h0Z"/>
        <path class="cls-4" d="M53.03,183.87c.13,1.92.93,3.73,1.78,5.46,2.76,5.65,6.14,11.01,10.05,15.94"/>
        <path class="cls-2" d="M61.11,177.04c.92-3.05,1.44-6.46,2.94-9.31.12-.22.25-.44.38-.66.05-.09.36-.5.07-.13.26-.34.55-.65.84-.97.75-.8,1.54-1.56,2.35-2.3,1.91-1.75,3.89-3.41,5.9-5.04.89-.73,1.79-1.44,2.69-2.15.36-.29.73-.57,1.1-.86.17-.13,1-.78.55-.43.57-.43,1.13-.93,1.77-1.25,1.36-.67,3.05.02,2.83,1.67-.14,1.07,1.02,2,2,2,1.19,0,1.86-.92,2-2,.26-2-.89-4.04-2.59-5.06-2.01-1.2-4.39-1.12-6.4.01-1.52.87-2.89,2.13-4.26,3.21-2.24,1.77-4.45,3.56-6.6,5.43-1.93,1.68-3.97,3.39-5.47,5.48-2.29,3.16-2.86,7.61-3.97,11.27-.75,2.47,3.11,3.52,3.86,1.06h0Z"/>
        <path class="cls-2" d="M92.39,174.44c1.85-1.24,3.69-2.48,5.54-3.73l3.58-2.41c.75-.51,1.59-.99,2.23-1.63,1.12-1.12,1.89-2.68,1.9-4.28,0-.84-.22-1.71-.64-2.43-.37-.64-.81-1.09-1.5-1.35-.15-.06-.31-.11-.46-.16-.99-.34-2.23.39-2.46,1.4-.25,1.12.34,2.09,1.4,2.46l.46.16-.88-.51c-.24-.3,0-.01,0,.03l.08.15c-.08-.2-.09-.23-.05-.09,0,0,.14.44.05.13-.08-.3,0,.19,0,.22.01.09-.05.39.03-.04-.02.11-.04.22-.07.32s-.07.21-.1.32c.09-.37-.01.03-.08.15s-.41.62-.17.32c-.16.21-.36.37-.54.57-.21.23.41-.27.12-.08-.67.43-1.32.89-1.98,1.33l-6.75,4.54c-.58.39-1.17.78-1.75,1.18-.87.58-1.33,1.79-.72,2.74.56.86,1.81,1.34,2.74.72h0Z"/>
        <path class="cls-2" d="M81.84,162.53c2.83-1.82,5.72-3.56,8.62-5.28,1.4-.83,2.81-1.66,4.22-2.47,1.17-.67,2.47-1.52,3.89-1.39.48.04.56.12.75.56.1.23.17.97.07,1.38-.22.87-1.3,1.42-2.12,2.01-2.43,1.74-4.85,3.49-7.27,5.25-1.61,1.17-3.21,2.33-4.82,3.5-.87.63-1.3,1.74-.72,2.74.5.86,1.86,1.36,2.74.72,4.24-3.09,8.49-6.19,12.76-9.24,1.54-1.1,2.93-2.18,3.34-4.15.42-1.95-.05-4.29-1.61-5.63-3.33-2.86-7.81.08-10.87,1.87-3.7,2.16-7.39,4.36-10.99,6.68-2.16,1.39-.15,4.85,2.02,3.45h0Z"/>
        <path class="cls-2" d="M101.48,168.26c.06.09.11.19.15.29-.1-.25-.12-.27-.06-.06.04.18.04.18,0,0-.02-.18-.03-.18-.02,0-.01.22,0,.17.03-.16-.02.08-.04.16-.06.24-.08.36.22-.37.01-.03-.08.13-.16.27-.25.4-.19.31.29-.34.04-.05-.11.13-.22.26-.33.38-.57.6-1.21,1.13-1.84,1.66-.78.65-1.58,1.29-2.38,1.91-.08.07-.17.13-.25.2-.28.22.42-.32,0,0-.17.13-.35.27-.52.4-.28.21-.56.43-.84.64-.43.32-.77.65-.92,1.2-.13.48-.07,1.12.2,1.54.53.82,1.84,1.39,2.74.72,1.74-1.31,3.47-2.64,5.13-4.04.65-.55,1.31-1.1,1.84-1.76.54-.66,1.03-1.36,1.25-2.2.3-1.13.09-2.26-.49-3.26-.52-.91-1.83-1.3-2.74-.72-.92.59-1.28,1.77-.72,2.74h0Z"/>
        <path class="cls-2" d="M101.07,174.73c.08.04.35.24.08.02-.32-.26.11.2-.14-.16-.27-.36.01,0,0,.02-.01,0-.19-.5-.11-.24.07.26-.05-.27-.03-.28,0,0,0,.19,0,.21,0,.08-.03.32.02-.06.05-.38.01-.11,0-.02-.13.58-.39,1.15-.61,1.7-.06.16-.13.32-.19.47-.04.1-.08.2-.12.3-.1.25.15-.36.05-.11-.16.37-.32.75-.49,1.12-.33.74-.68,1.46-1.07,2.17-.49.92-.26,2.22.72,2.74.93.49,2.21.27,2.74-.72.93-1.73,1.7-3.54,2.41-5.37.28-.73.54-1.43.57-2.23.04-1.26-.66-2.45-1.78-3.03-.93-.48-2.22-.27-2.74.72-.49.92-.27,2.22.72,2.74h0Z"/>
        <path class="cls-2" d="M99.5,179.32c-.04,1.53.1,3.09-.36,4.57-.35,1.14-1.06,2.15-1.88,3-1.79,1.85-4.16,3.08-6.56,3.96-5.53,2.01-11.37,3.24-17.09,4.58-2.5.59-1.44,4.45,1.06,3.86,6.29-1.48,12.86-2.73,18.83-5.27,2.73-1.16,5.39-2.78,7.3-5.1.97-1.18,1.74-2.5,2.2-3.96.57-1.82.46-3.75.5-5.63.06-2.57-3.94-2.57-4,0h0Z"/>
        <path class="cls-2" d="M54.75,185.1c2-1.75,3.84-3.67,5.49-5.75.34-.43.59-.84.59-1.41,0-.49-.22-1.08-.59-1.41-.38-.35-.88-.61-1.41-.59-.49.02-1.09.18-1.41.59-1.65,2.08-3.49,4-5.49,5.75-.79.69-.76,2.13,0,2.83.84.77,1.99.74,2.83,0h0Z"/>
      </g>
    </g>
  </g>
</svg>