<?xml version="1.0" encoding="UTF-8"?>
<svg id="_レイヤー_2" data-name="レイヤー_2" xmlns="http://www.w3.org/2000/svg" viewBox="0 0 333.69 315.75">
  <defs>
    <style>
      .cls-1 {
        fill: #211715;
      }

      .cls-2 {
        fill: #fff;
      }

      .cls-3 {
        fill: none;
      }

      .cls-4 {
        fill: #645d5c;
      }

      .cls-5 {
        fill: #ffda71;
      }

      .cls-6 {
        fill: #c6c6c6;
      }

      .cls-7 {
        fill: #7abee6;
      }
    </style>
  </defs>
  <g id="_レイヤー_1-2" data-name="レイヤー_1">
    <g>
      <path class="cls-2" d="M179.63,204.42c-2.8-5.85-5.29-11.84-7.48-17.95-3.58-10.35-12.35-37.27-14.31-63.51l.63-.24s1.55-1.03,3.22-2.12c3.02.52,6.08.68,9.14.46,1.61-.1,3.17-.28,4.7-.53,4.45-.88,8.8-2.24,12.96-4.06,2.7-1.32,5.29-2.86,7.74-4.6l11.02.7c2.28.15,4.57.1,6.84-.16-.44,2.32-.83,4.42-.83,4.42-2.22,9.61-5.46,18.04-8.15,26.26-6.24,19.05-19.46,51.15-23.85,60.92l-1.62.41Z"/>
      <path class="cls-3" d="M219.14,19.66c6.43,6.09,9.52,12.99,11.5,21.39,1,4.23,1.34,8.58,1.01,12.91-.37,4.65-.87,15.6-4.41,21.41"/>
      <path class="cls-3" d="M211.16,13.58c-8.85-6.74-19.81-10.09-30.92-9.47-15.97.6-28.89,6.6-37.62,16.63-5.04,5.79-8.72,14.25-10.18,21.81-1.48,8.89-1.41,17.96.21,26.82"/>
      <path class="cls-1" d="M286.32,257.94c5.04,0,10.07,0,15.11-.02l23.89-.04c2.02,0,4.04,0,6.06,0,3.09,0,3.09-4.8,0-4.8-5.21,0-10.41,0-15.62.02l-23.74.04c-1.9,0-3.79,0-5.69,0-3.09,0-3.09,4.8,0,4.8h0Z"/>
      <path class="cls-1" d="M7.01,257.95c8.08,0,16.16-.05,24.24-.07,1.38,0,2.75-.01,4.12-.01,3.09,0,3.09-4.8,0-4.8-8.22,0-16.44.05-24.65.07-1.24,0-2.48,0-3.71,0-3.09,0-3.09,4.8,0,4.8h0Z"/>
      <path class="cls-2" d="M22.84,137.92c-.75-.41-1.32-1.09-1.58-1.9-1.56-4.4-2.69-8.94-3.38-13.56,0,0,.02-.5.06-1.19,5.84-.34,11.62-1.27,17.27-2.78.34.6.59,1.05.59,1.05.85.62,2.19,8.99,2.45,12.58.05.63,0,1.27-.16,1.89-.45,1.04-1.21,1.91-2.18,2.49-3.13.84-6.33,1.43-9.55,1.77-1.14.19-2.3.1-3.39-.28-.04-.02-.09-.05-.13-.07Z"/>
      <path class="cls-5" d="M28.85,80.75c.61.19,1.25.42,1.89.68,3.43,1.35,6.41,3.63,8.6,6.58,1.93,2.71,3.15,5.85,3.55,9.15.43,3.18.21,6.41-.64,9.5-.56,2.35-1.43,4.61-2.59,6.73-.96,1.73-2.12,3.34-3.45,4.81-6.38,1.81-12.96,2.85-19.59,3.1-4.07-.85-8.81-5.86-10.53-9.08-1.32-2.32-2.29-4.83-2.88-7.44-.56-2.91-.55-5.9.03-8.8.66-3.92,2.5-7.55,5.27-10.4,2.06-1.97,4.51-3.48,7.2-4.43,1.35-.53,2.74-.91,4.17-1.14,3.01-.42,6.07-.17,8.97.74Z"/>
      <path class="cls-1" d="M28.21,83.06c.51.16,1.01.33,1.5.53.17.07.35.14.52.21-.32-.13-.35-.14-.09-.03.57.26,1.14.53,1.69.83,1.42.77,2.72,1.73,3.87,2.86,2.64,2.7,4.32,6.19,4.8,9.93.84,6.94-1.35,13.9-6,19.11l1.06-.62c-5.07,1.49-10.29,2.45-15.56,2.86-1.2.23-2.43.23-3.64,0-1.08-.42-2.09-1.01-2.99-1.75-1.94-1.49-3.6-3.32-4.89-5.4-2.84-4.58-3.87-10.05-2.87-15.35.89-5.08,4.08-9.46,8.64-11.86,2.01-1.02,4.17-1.73,6.4-2.09-.71.12.39-.03.72-.05.58-.04,1.17-.04,1.75-.03,1.72.06,3.43.34,5.08.85,2.97.88,4.24-3.75,1.28-4.63-8.92-2.64-19.12.29-24.75,7.88-2.34,3.34-3.78,7.24-4.17,11.3-.57,5.59.68,11.22,3.57,16.05,2.34,4.19,5.98,7.52,10.37,9.48,2.23.9,4.74.5,7.08.26,2.72-.28,5.44-.69,8.12-1.2,2.07-.4,4.13-.84,6.17-1.4,1.1-.25,2.08-.87,2.77-1.75.91-1.08,1.74-2.23,2.49-3.43,2.25-3.78,3.68-7.99,4.17-12.36.75-5.61-.53-11.31-3.62-16.05-2.97-4.2-7.27-7.29-12.2-8.76-2.95-.95-4.21,3.69-1.27,4.62Z"/>
      <path class="cls-1" d="M21.51,132.27c5.22-.7,10.4-1.67,15.51-2.93,1.27-.36,2.01-1.68,1.68-2.95-.37-1.26-1.68-2-2.95-1.68-2.37.58-4.76,1.09-7.17,1.56-1.26.24-2.52.47-3.78.68-.61.1-1.22.2-1.84.3-.32.05-.63.1-.95.14-.09.01-1.02.14-.5.07-1.31.04-2.36,1.09-2.4,2.4.05,1.16,1.07,2.58,2.4,2.4h0Z"/>
      <path class="cls-1" d="M15.49,122.46c.1,1.4.32,2.79.67,4.14.4,1.89.86,3.76,1.38,5.62.44,1.75,1.01,3.47,1.71,5.14,1.08,2.41,3.47,3.42,6,3.38,2.05-.12,4.1-.38,6.11-.79,1.74-.22,3.45-.59,5.13-1.12,2.07-.82,3.59-2.62,4.05-4.79.18-2.01.06-4.04-.34-6.02-.27-2-.59-3.99-1.02-5.96-.29-1.33-.58-3.29-1.67-4.23-.95-.9-2.44-.9-3.4,0-.93.94-.93,2.45,0,3.39.06.05-.43-.62-.12-.11-.24-.4-.13-.36-.01.02.18.58.34,1.18.47,1.77.35,1.52.62,3.07.85,4.61.05.34.1.68.15,1.03,0-.07.1.76.06.43s.06.48.05.41c.09.69.17,1.39.23,2.08.03.32.06.65.06.97,0,.2-.04.46-.02.66-.03-.28-.08.45.05-.02.11-.41-.08.14-.13.21-.08.14-.17.28-.26.41-.29.42-.17.23-.11.16-.02.03-.42.6-.28.34l-.2.12c.25-.1.29-.12.14-.07s-.29.09-.44.13c-.28.08-.55.15-.83.22-.85.2-1.71.37-2.58.52-.84.15-1.69.29-2.54.41-.44.07-.89.13-1.33.19-.06,0-.49.07-.1.01-.22.03-.44.06-.67.09-.73.11-1.47.13-2.2.08-.23-.03-.45-.12-.63-.26.16.13-.21-.39-.05-.09-.04-.08-.35-.75-.19-.35-.52-1.35-.96-2.73-1.31-4.13-.5-1.79-.94-3.59-1.34-5.4-.16-.74-.32-1.48-.45-2.23-.05-.27-.09-.55-.13-.82.12.8.01.03,0-.17-.1-3.08-4.9-3.1-4.8,0h0Z"/>
      <path class="cls-1" d="M30.88,62.2c-.8,2.05-1.62,4.09-2.45,6.13-.17.62-.08,1.29.24,1.85.67,1.14,2.14,1.53,3.28.86,0,0,0,0,0,0l.48-.38c.29-.29.51-.66.62-1.06.83-2.04,1.64-4.08,2.45-6.13.17-.62.08-1.29-.24-1.85-.67-1.14-2.14-1.53-3.28-.86h0s-.49.38-.49.38c-.29.29-.51.66-.62,1.06Z"/>
      <path class="cls-1" d="M20.17,66.33c-.19-1.04-.36-2.09-.5-3.14l.08.64c-.11-.83-.21-1.67-.29-2.51-.02-.63-.27-1.24-.7-1.7-.94-.94-2.46-.94-3.39,0-.46.45-.71,1.06-.7,1.7.2,2.11.49,4.21.87,6.29.17.6.56,1.12,1.1,1.43,1.14.67,2.61.28,3.28-.86h0c.3-.57.38-1.22.24-1.85h0Z"/>
      <path class="cls-1" d="M8.49,70.77c-1.4-1.73-2.85-3.44-4.39-5.04-.45-.44-1.06-.7-1.7-.7-.64,0-1.25.25-1.7.7C.25,66.18,0,66.79,0,67.43c.01.63.26,1.24.7,1.7,1.55,1.6,3,3.31,4.4,5.04.45.45,1.06.7,1.7.7.64,0,1.25-.25,1.7-.7.45-.45.7-1.06.7-1.7l-.09-.64c-.11-.4-.32-.77-.62-1.06h0Z"/>
      <path class="cls-1" d="M35.09,102.11c-1.36-1.96-3.36-3.39-5.66-4.04-2.31-.75-5.1-1.34-7.41-.37-2,.87-3.53,2.56-4.2,4.64-.83,2.74.19,5.71,2.54,7.35,2.08,1.41,4.76,1.58,7,.43,2.3-1.04,3.37-3.64,3.43-6.06.13-4.81-4.27-7.47-8.52-8.01-2.63-.4-5.33.19-7.54,1.67-2.69,1.91-3.88,4.87-4.27,8.05,0,1.32,1.08,2.39,2.4,2.4,1.31-.03,2.37-1.09,2.4-2.4.16-2.83,2.5-5.04,5.33-5.04.32,0,.64.01.96.04.16.01.32.03.48.05-.11-.01-.39-.07.09.03.64.11,1.27.29,1.87.53-.36-.15.43.23.49.27.14.08.61.4.52.32-.21-.16.15.14.19.18.11.11.21.21.31.32.26.28-.17-.27.03.04.1.15.2.31.28.48-.2-.37.11.37.14.5.02.07.05.45.02.08.01.13.01.25.01.38,0,.06-.03.6,0,.32s-.05.22-.06.28c-.04.17-.09.34-.14.5-.02.05-.19.5-.11.31-.13.28-.44.56-.02.26-.17.12-.37.22-.57.29-.48.23-1.02.28-1.53.14-.35-.12-.65-.34-.87-.64-.31-.36-.45-.84-.39-1.31.02-.13.25-.76.15-.52-.13.3.06-.1.1-.16.07-.12.14-.25.22-.37.22-.36.54-.65.91-.84.19-.12.41-.2.63-.21-.28.05.18,0,.19,0,.21,0,.41.02.62.04.88.11,1.74.3,2.59.55.7.17,1.36.46,1.98.83.48.29.9.68,1.23,1.13.69,1.12,2.14,1.5,3.28.86,1.13-.68,1.52-2.14.86-3.28h0Z"/>
      <path class="cls-7" d="M188.72,140.98c-.3.04-.6.08-.91.12-7.1,1.28-14.38,1.23-21.47-.15l-6.01-.88-.36-.05c2.82,15.79,6.9,31.32,12.19,46.46,2.17,6.08,4.65,12.04,7.43,17.86l1.66-.32c4.39-9.77,17.61-41.87,23.85-60.92.89-2.7,1.83-5.43,2.78-8.21-5.98,3.14-12.47,5.2-19.16,6.1Z"/>
      <path class="cls-6" d="M158.14,126.42c2.43,25.12,10.59,50.16,14.02,60.05,2.17,6.08,4.65,12.04,7.43,17.86l1.66-.32c4.39-9.77,17.61-41.87,23.85-60.92,2.82-8.6,6.23-17.41,8.45-27.57l2.75,1.31,9.85,4.68c15.69,4.58,28.72,10.37,37.64,23.25,8.1,11.69,13.22,32.54,15.51,41.02,2.36,8.74,4.82,17.59,6.56,27.71.95,5.26,2.72,15.94,2.84,19.89.09,3.16-.45,10.25-1.35,13.12-1.72,6.08-5.33,11.45-10.31,15.33-8.95,7.18-23.35,13.17-31.19,15.94h-71l-45.12-37.05-30.12-24.73c-3.76-9.92-7.03-20.9-9.89-30.95l31.26-32.7c1.21-3.2,3.56-6.83,4.87-9.24,1.96-3.24,4.52-6.07,7.54-8.34,6.27-4.58,16.84-8.88,24.45-11.78.17,2,.29,3.46.29,3.46"/>
      <path class="cls-4" d="M140.93,108.34c-6.93-2.3-11.86-5.99-14.89-11.61-3.85-7.19-3.53-15.25-1.92-23.26,1.88-9.29,4.25-20.46,6.59-29.66,3.59-14.05,6.65-21.47,13.83-28.83,6.42-5.89,19.74-12.9,35.67-12.58,7.93.04,15.77,1.7,23.03,4.9l1.18.7,5.4,3.2c8.5,4.08,13.92,12.67,16.5,18.22,3.45,7.42,4.14,18.32,5.78,26.85,1.95,10.12,4.06,17.07,5.44,25.59.96,6.45-.43,13.03-3.93,18.54-5.23,8.27-14.15,12.93-26.36,12.16l-66.31-4.22Z"/>
      <path class="cls-2" d="M188.48,116.47c-4.16,1.82-8.5,3.18-12.96,4.06-1.52.25-3.08.43-4.7.53-10.07.64-18.33-2.21-26.02-8.83-7.34-6.32-10.35-16.06-11.26-26.78-.55-6.49-.99-13.57-1.77-20.63,7.89-2.6,15.57-5.79,22.98-9.55,12.7-6.44,18.29-11.2,26.05-20.31,6.14,7.17,15.39,20.31,20.36,31.27h0c1.51,3.36,5,5.39,8.67,5.05l6.58-.61c1.46-.94,3.22-1.28,4.93-.96,2.2.22,4.11,1.61,5,3.64,1.4,3.3.52,8.88-1.21,12.17-1.48,3.21-3.89,5.9-6.91,7.73-2.18,1.07-4.61,1.51-7.02,1.26-.33.65-.55,1.06-.55,1.06-.81,1.58-2.7,4.35-2.7,4.35-1.94,2.77-4.12,5.36-6.52,7.74-3.87,3.53-8.23,6.49-12.94,8.79"/>
      <path class="cls-2" d="M229.88,276.08l-47.48-2.16c3.87,12.32,7.53,24,10.05,32.08.82,2.61-.36,5.43-2.79,6.69l-.57.3.81-.34c12.08-5.04,51.21-22.42,58.62-25.83l-4.57-13.21c-4.45,1.86-9.27,2.71-14.09,2.47Z"/>
      <path class="cls-2" d="M220.86,283.09c-4.15,3.34-7.29,7.87-11.59,12.35-.62.64-3.15,2.33-5.1.83-1.28-.99-1.47-3.48-1.01-4.49,2.53-5.53,3.56-7.2,5.44-11.07-2.29,2.41-4.07,4.43-6.79,7.17l-2.76,2.79-3.47,3.51s-2.45,2.62-5.11,5.46c-2.83-9.04-6.46-20.62-10.13-32.3,3.32-4.16,6.24-8.86,10.29-12.42,2.82-2.64,6.4-4.33,10.23-4.81,1.58-.1,3.17-.04,4.75.16,3,.31,6,.7,8.98,1.17,5.42.87,11.49,1.88,15.84-1.79,5.62,4.97,10.72,14.79,13.54,23.95-1.01.49-1.99,1.06-2.91,1.7-.63.43-2.65,2.22-3.31,2.58-5.14,2.74-10.76,4.47-16.55,5.11"/>
      <path class="cls-1" d="M232.66,242.33c4.93-2.09,9.66-4.52,14.47-6.85,1.14-.67,1.52-2.14.86-3.28-.69-1.12-2.13-1.49-3.28-.86-4.81,2.33-9.55,4.76-14.47,6.85-1.14.67-1.53,2.14-.86,3.28.69,1.11,2.13,1.49,3.28.86h0Z"/>
      <path class="cls-1" d="M235.84,197.12l7.32,26.79c.81,2.98,5.45,1.71,4.63-1.28l-7.32-26.79c-.81-2.98-5.45-1.71-4.63,1.28Z"/>
      <path class="cls-1" d="M228.3,248.28c-3.41,2.18-7.64,1.69-11.45,1.11-4.71-.72-9.54-1.66-14.32-1.73-9.75-.13-16.15,7.64-21.44,14.77-.66,1.15-.28,2.61.86,3.28,1.15.64,2.59.26,3.28-.86,2.5-3.37,5.1-6.93,8.55-9.39,1.6-1.18,3.4-2.06,5.31-2.61,2.07-.45,4.2-.52,6.29-.21,4.45.44,8.84,1.28,13.29,1.79,4.13.48,8.46.28,12.06-2.02,2.6-1.66.19-5.81-2.42-4.14h0Z"/>
      <path class="cls-1" d="M191.24,265.75l-7.34,7.28c-.94.93-.96,2.45-.03,3.39.93.94,2.45.96,3.39.03,0,0,.02-.02.03-.03l7.34-7.28c.94-.93.96-2.45.03-3.39-.93-.94-2.45-.96-3.39-.03,0,0-.02.02-.03.03Z"/>
      <path class="cls-1" d="M191.92,286.63c3.7-4.33,7.76-8.35,11.8-12.35.93-.94.92-2.46-.03-3.39-.93-.92-2.43-.92-3.37,0-4.05,4-8.1,8.02-11.8,12.35-.93.94-.92,2.46.03,3.39.93.92,2.43.92,3.37,0Z"/>
      <path class="cls-1" d="M197.28,295.88c2.73-2.76,5.49-5.48,8.16-8.29,2.36-2.48,4.65-5.02,7.06-7.46.94-.94.94-2.46,0-3.39-.94-.94-2.46-.94-3.39,0-2.41,2.44-4.7,4.98-7.06,7.46-2.67,2.81-5.43,5.53-8.16,8.29-.93.94-.92,2.46.03,3.39.93.92,2.43.92,3.37,0h0Z"/>
      <path class="cls-1" d="M221.19,285.4c4.9-.57,9.7-1.83,14.24-3.74,1.91-.77,3.71-1.8,5.34-3.07.33-.27.65-.54.98-.81.16-.13.32-.26.48-.39.31-.25-.27.19-.04.03.96-.65,1.95-1.24,2.99-1.75,1.14-.67,1.53-2.14.86-3.28s-2.14-1.53-3.28-.86c-1.65.84-3.2,1.86-4.62,3.04-.46.4-.93.78-1.43,1.13-.94.56-1.92,1.06-2.93,1.48-4.01,1.76-8.25,2.91-12.6,3.43-1.31.04-2.36,1.09-2.4,2.4,0,1.32,1.08,2.39,2.4,2.4h0Z"/>
      <path class="cls-1" d="M227.86,250.62c3.87,2.88,6.68,7.51,8.92,11.77,2.66,5.06,4.68,10.44,6,16,.72,3,5.35,1.73,4.63-1.28-1.47-6.09-3.71-11.98-6.67-17.5-2.64-4.94-5.92-9.75-10.46-13.13-1.15-.66-2.61-.28-3.28.86-.64,1.15-.26,2.6.86,3.28h0Z"/>
      <path class="cls-1" d="M205.81,280.95c-.98,1.96-2,3.9-2.96,5.87-.76,1.42-1.44,2.88-2.03,4.38-.38,1.27-.39,2.62-.03,3.9.73,2.94,3.7,4.73,6.64,4,.29-.07.58-.17.86-.29,2.88-1.15,4.79-3.93,6.75-6.21,2.27-2.82,4.79-5.44,7.53-7.82.93-.94.93-2.45,0-3.39-.95-.91-2.45-.91-3.4,0-4.42,3.6-7.65,8.36-11.63,12.39-.06.06-.4.33-.14.13.29-.21-.31.18-.38.22-.11.06-.57.27-.22.13-.14.05-.71.22-.58.2-.21.08-.44.04-.61-.11.23.14-.13-.23.08.1-.08-.12-.15-.24-.21-.37.11.22.04.15,0-.04-.05-.22-.12-.43-.15-.65.08.45.02-.17,0-.32,0-.1.02-.2,0-.3,0,.05-.12.4-.02.18.03-.07.03-.17.06-.25.12-.35-.11.21.07-.18.53-1.13,1.05-2.26,1.6-3.39.94-1.93,1.94-3.83,2.91-5.76.64-1.15.26-2.59-.86-3.28-1.15-.66-2.61-.27-3.28.86h0Z"/>
      <path class="cls-1" d="M190.55,314.96c7.83-3.27,15.59-6.7,23.36-10.12,8.97-3.94,17.92-7.92,26.87-11.91,3-1.34,5.99-2.67,8.97-4.04,1.14-.68,1.52-2.14.86-3.28-.69-1.12-2.14-1.5-3.28-.86-15.65,7.19-31.45,14.07-47.24,20.95-2.12.92-4.23,1.84-6.35,2.75-.89.38-1.77.76-2.66,1.14-.2.08-1.36.57-.76.32-.35.15-.7.29-1.05.44-1.25.39-1.98,1.68-1.68,2.95.36,1.27,1.68,2.02,2.95,1.68Z"/>
      <path class="cls-2" d="M32.24,217.16c30.79.51,101.07.67,126.17.84,3.81.02,7.18,2.5,8.33,6.14,5.97,18.89,19.4,61.64,25.72,81.86.93,2.97-.72,6.13-3.69,7.06-.55.17-1.13.26-1.71.26-27.19-.1-100.46-.36-128.63-.93-2.43-.05-4.55-1.64-5.26-3.96-5.56-17.96-19.82-63.24-26.39-83.91-.94-2.97.7-6.14,3.67-7.08.58-.19,1.19-.27,1.81-.26Z"/>
      <path class="cls-1" d="M32.24,219.56c14.38.24,28.76.33,43.14.42,16.8.11,33.6.19,50.4.26,7.07.03,14.13.06,21.2.1,2.76.01,5.52.03,8.28.04,3.07.02,6.22-.17,8.25,2.62.82,1.38,1.41,2.88,1.75,4.44l1.41,4.48c1.12,3.56,2.25,7.13,3.37,10.69,2.61,8.28,5.21,16.57,7.81,24.85,2.56,8.16,5.13,16.33,7.68,24.49,1.08,3.44,2.16,6.89,3.24,10.33.78,2.48,3.05,6.78-.32,8.33-1.14.52-2.6.29-3.83.29h-3.98s-9.17-.05-9.17-.05c-7.31-.03-14.62-.06-21.93-.09-16.63-.08-33.25-.18-49.88-.3-13.49-.11-26.98-.21-40.47-.47-1.51-.03-2.93-.39-3.62-1.89-.48-1.25-.88-2.52-1.2-3.82-.96-3.1-1.93-6.2-2.9-9.3-2.42-7.75-4.85-15.49-7.28-23.23-4.78-15.21-9.58-30.42-14.4-45.62-.42-1.33-1.2-2.86-.77-4.24.43-1.41,1.74-2.36,3.21-2.33,3.09-.04,3.1-4.84,0-4.8-4.49.01-8.12,3.67-8.11,8.16,0,.52.05,1.05.16,1.56.4,1.56.87,3.11,1.42,4.62.52,1.65,1.05,3.3,1.57,4.96,2.5,7.9,5,15.81,7.49,23.71,4.94,15.66,9.85,31.33,14.75,47.01,1.1,3.55,1.85,7.46,5.56,9.21,2.81,1.32,6.54.86,9.59.91,6.85.11,13.69.19,20.54.25,16.91.16,33.82.28,50.73.35,14.98.08,29.96.14,44.94.19l4.05.02c1.71.15,3.44-.05,5.08-.56,2.3-.92,4.06-2.83,4.78-5.2.65-2.15.12-4.15-.53-6.21-2.31-7.39-4.63-14.78-6.94-22.16-5.21-16.62-10.44-33.24-15.68-49.86-1.01-3.21-1.78-6.72-3.21-9.78-2.03-4.33-6.35-6.31-10.93-6.34-5.98-.04-11.96-.07-17.93-.09-16.6-.07-33.2-.15-49.79-.23-16.19-.09-32.38-.18-48.58-.38-2.98-.04-5.97-.08-8.95-.13-3.09-.05-3.09,4.75,0,4.8Z"/>
      <path class="cls-1" d="M87.4,185.66c2.97,10.41,6.07,20.81,9.89,30.95.38,1.25,1.68,1.99,2.95,1.68,1.27-.36,2.02-1.68,1.68-2.95-3.82-10.14-6.92-20.53-9.89-30.94-.85-2.97-5.48-1.7-4.63,1.28h0Z"/>
      <path class="cls-1" d="M166.36,200.15c-7.43-12.97-14.17-26.31-20.2-39.99-.44-1.19-.95-2.35-1.52-3.47-.1-.17-.23-.85-.22-.12.01.65.22,0,.43-.26.36-.46.73-.92,1.11-1.37,1.45-1.74,3.01-3.39,4.66-4.93.93-.94.93-2.45,0-3.39l-6.01-5.03c-.95-.9-2.44-.9-3.39,0-.93.94-.93,2.45,0,3.39l6.01,5.03v-3.39c-1.55,1.44-3.02,2.98-4.38,4.6-1.42,1.68-3.63,3.68-3.08,6.09.34,1.08.78,2.13,1.31,3.13.5,1.14,1,2.27,1.5,3.41.89,2,1.78,3.98,2.69,5.97,3.23,7.05,6.65,14.01,10.31,20.84,2.15,4.01,4.38,7.98,6.64,11.92,1.54,2.68,5.69.26,4.15-2.42h0Z"/>
      <path class="cls-1" d="M210.94,116.19c-1.81,7.76-4.44,15.27-7,22.81-1.92,5.65-3.81,11.29-5.88,16.89-4.26,11.56-8.82,23.01-13.54,34.39-1.77,4.26-3.42,8.23-5.35,12.53-.63,1.15-.25,2.59.86,3.28,1.15.66,2.61.27,3.28-.86,4.07-9.07,7.79-18.32,11.47-27.56,4.55-11.41,8.97-22.88,12.82-34.55,2.81-8.51,5.92-16.91,7.95-25.65.7-3.01-3.93-4.29-4.63-1.28h0Z"/>
      <path class="cls-2" d="M118.48,150.01c.78,6.67-.66,13.41-4.1,19.17,1.36,3.7.58,1.33,1.23,4.63l.07.36c-6.5,2.32-17.01,5.37-24.45,7.57l-.43-2c-.14-1.63-.67-3.21-1.53-4.6-1.2-1.71-2.62-3.27-4.21-4.62-2.64-2.64-5.13-5.44-7.44-8.38-1.3-1.52-2.45-5.35-1.98-7.49.36-2.5,1.46-4.83,3.17-6.68.97-.84,2.26-1.22,3.53-1.04-.11-.22-.18-.36-.18-.36-.95-1.35-1.25-3.05-.83-4.65.65-2.12,1.66-2.51,3.46-2.88.33-.06.68-.07,1.01-.04-1.45-1.9-.61-3.95.75-5.27,1.08-1.09,2.52-1.74,4.06-1.82.87-.06,1.74-.05,2.61.03l-.87-2.27c-1.62-4.44-3.25-8.89-4.87-13.34-.43-1.08-.76-2.21-.98-3.35-.36-1.89.1-3.85,1.26-5.38,1.14-1.33,3.34-1.36,5.01-.63,1.83.8,2.79,2.33,3.86,4.26,3.47,6.27,7.83,18.65,9.62,25.62l.46,1.77c2.4-.73,4.95-1.04,7.01.24,1.74,1.08,2.69,3.05,3.35,4.98.68,2,1.15,4.06,1.39,6.15Z"/>
      <path class="cls-1" d="M94.67,129.04c-1.65-4.51-3.31-9.02-4.94-13.54-.61-1.7-1.3-3.55-.68-5.35.46-1.33,1.49-1.51,2.76-.98,1.38.58,2.14,2.18,2.81,3.41.72,1.31,1.37,2.67,1.98,4.03,1.47,3.26,2.74,6.61,3.93,9.99,1.27,3.59,2.45,7.22,3.4,10.91.78,2.99,5.41,1.72,4.63-1.28-2.05-7.88-4.8-15.57-8.23-22.96-1.68-3.6-3.67-7.94-7.91-8.93-2.31-.68-4.8-.02-6.47,1.71-1.52,1.9-2.2,4.33-1.88,6.74.33,2.96,1.68,5.79,2.68,8.56,1.09,2.99,2.18,5.98,3.27,8.97.38,1.26,1.68,1.99,2.96,1.67,1.27-.36,2.02-1.68,1.68-2.95h0Z"/>
      <path class="cls-1" d="M88.51,162.58c2.51,1.94,5.44,3.78,8.61,1.94,2.85-1.89,3.85-5.61,2.33-8.67-1.25-1.85-2.75-3.52-4.46-4.97-1.72-1.78-3.73-3.26-5.94-4.35-2.8-1.29-5.73-2.41-8.86-1.83-2.85.53-4.76,3.23-5.87,5.74-1.39,2.76-1.66,5.95-.76,8.91.98,3.03,2.97,5.18,4.97,7.59,2.26,2.72,4.84,5.06,7.26,7.62,2.05,2.18,2.6,4.72,3.55,7.74.38,1.26,1.68,2,2.95,1.68,8.71-2.01,17.09-5.23,24.91-9.57.93-.55,1.39-1.66,1.1-2.71-.49-1.18-.9-2.39-1.32-3.6l-.24,1.85c4.87-8.51,5.98-19.68,1.87-28.73-.97-2.39-2.89-4.26-5.31-5.16-2.39-.65-4.93-.55-7.26.29-4.69,1.43-9.94,3.71-11.82,8.61-1.01,2.6-.52,5.54,1.27,7.67,2.05,2.44,4.99,2.5,7.86,1.75,2.99-.79,1.72-5.42-1.28-4.63-1.49.39-2.83.6-3.45-1.1-.55-1.53.47-3.12,1.53-4.15,1.58-1.32,3.41-2.31,5.38-2.91,1.76-.66,3.81-1.45,5.73-1.11,1.78.31,2.71,1.93,3.31,3.49.73,1.92,1.23,3.93,1.49,5.97.53,4.2.12,8.47-1.2,12.49-.34,1.05-.75,2.09-1.22,3.09-.58,1.2-1.65,2.47-1.31,3.87.35,1.23.79,2.43,1.32,3.6l1.1-2.71c-7.45,4.13-15.44,7.19-23.75,9.09l2.95,1.68c-.63-2.22-1.4-4.4-2.32-6.52-1.08-2.33-3.22-4.08-5.03-5.84-1.82-1.8-3.54-3.7-5.15-5.68-1.55-1.87-2.84-3.18-3.47-5.6-.42-1.97-.04-4.02,1.08-5.69.41-.8.96-1.52,1.61-2.14.66-.23,1.36-.29,2.04-.19,2.17.38,4.23,1.22,6.04,2.47,1.37.99,2.64,2.11,3.78,3.36.83.82,1.65,1.66,2.41,2.55.04.05.29.38.07.07.12.14.23.3.31.46.04.33.04.65,0,.98-.47,2.75-3.25.04-4.37-.82-1.15-.66-2.61-.28-3.28.86-.63,1.15-.26,2.59.86,3.28h0Z"/>
      <path class="cls-1" d="M84.24,145.36c-.11-.15-.21-.3-.3-.46-.07-.12-.25-.57-.11-.2-.08-.22-.15-.44-.21-.67-.02-.07-.1-.73-.07-.34-.02-.25-.02-.51,0-.76-.03.36.09-.35.1-.38.02-.07.3-.71.06-.23.08-.17.17-.32.26-.49.27-.51-.24.45.02-.02.05-.05.11-.11.17-.15.14-.12.07-.07-.19.15.12-.09.25-.16.39-.22-.31.13-.38.16-.21.1.08-.03.15-.05.23-.08.34-.11.69-.2,1.05-.25-.52.07.23.03.28.04.24,0,.47.03.71.06.1.01.7.11.24.03.28.05.55.1.82.16.54.13,1.07.3,1.61.46.45.14.91.28,1.36.44.22.08.45.16.67.25.46.17-.17-.11.3.13.42.21.82.44,1.22.69.34.21-.02-.04.16.12s.34.32.5.49c.11.13.11.12,0-.03.07.09.14.19.2.29.13.2.24.4.35.61.07.15.07.14-.01-.04.04.11.08.22.11.34.08.26.14.53.18.8.36,1.27,1.68,2.02,2.95,1.68,1.25-.38,1.99-1.68,1.68-2.95-.58-2.8-2.5-5.14-5.13-6.24-2.48-1.19-5.16-1.9-7.9-2.09-2.38-.16-4.67.97-5.98,2.97-1.44,2.59-1.3,5.76.36,8.21.69,1.12,2.13,1.5,3.28.86,1.13-.68,1.51-2.14.86-3.28h0Z"/>
      <path class="cls-1" d="M87.45,136.99v-.26c-.03.16-.03.16.01,0,.01-.05.18-.53.07-.29.08-.16.16-.31.26-.46.15-.26.07-.12.19-.25.23-.25.47-.48.73-.7-.27.22-.04.03.12-.07.13-.08.25-.16.38-.23.11-.06.47-.22.18-.1.2-.08.4-.14.61-.19.3-.09.6-.13.91-.14.93-.04,1.87-.01,2.8.1.46.05-.26-.04.17.02.2.03.41.06.61.1.41.08.81.17,1.21.26.79.15,1.55.4,2.28.73.52.24.97.61,1.3,1.08.4.54.58,1.2.52,1.87,0,1.33,1.07,2.4,2.4,2.4s2.4-1.07,2.4-2.4c.05-2.76-1.35-5.35-3.7-6.81-2.21-1.21-4.67-1.91-7.19-2.05-2.47-.43-5.01-.02-7.22,1.16-2.26,1.29-3.71,3.64-3.85,6.24,0,1.33,1.07,2.4,2.4,2.4s2.4-1.07,2.4-2.4Z"/>
      <path class="cls-1" d="M174.7,77.59c-.54-2.2.19-7.13,4.3-7.31,5.4.36,5.33,6.37,3.34,9.08-1.62,2.21-6.05,2.91-7.64-1.77Z"/>
      <path class="cls-1" d="M142.59,76.67c-.48-2.2.2-7.15,3.96-7.34,4.94.34,4.86,6.38,3.04,9.1-1.49,2.23-5.56,2.94-7-1.76Z"/>
      <path class="cls-1" d="M158.89,82.05c-.72,1.14-1.41,2.31-2.03,3.51-.28.48-.49,1-.61,1.54-.12.55-.1,1.13.04,1.67.17.55.48,1.04.9,1.42.53.5,1.16.88,1.86,1.1.47.12.94.19,1.43.22l-.64-.08s.07.01.11.02c.63.15,1.28.06,1.85-.24,1.14-.67,1.53-2.14.86-3.28,0,0,0,0,0,0-.31-.54-.83-.94-1.43-1.1-.36-.06-.72-.1-1.09-.14l.64.09c-.2-.03-.39-.07-.58-.14l.57.24c-.18-.08-.35-.18-.51-.3l.49.38c-.13-.11-.25-.23-.36-.36l.38.49s-.06-.09-.08-.14l.24.57s-.03-.1-.04-.15l.09.64c0-.08,0-.16,0-.25l-.09.64c.03-.18.08-.35.14-.51l-.24.57c.33-.72.71-1.41,1.12-2.09.37-.63.74-1.26,1.13-1.88.66-1.15.27-2.61-.86-3.28-1.15-.64-2.6-.26-3.28.86h0Z"/>
      <path class="cls-1" d="M217.61,72.76c1.37-.86,3.08-.98,4.56-.33.9.3,1.62.98,1.96,1.86.09.2.09.19,0-.02.07.19.13.38.19.57.09.31.17.62.22.93.1.8.13,1.61.07,2.42-.09,1.74-.46,3.46-1.09,5.09-1.05,2.77-2.84,5.21-5.17,7.04-1.07.87-2.35,1.44-3.71,1.65-1.51.42-3.11.34-4.57-.23-1.15-.63-2.59-.25-3.28.86-.66,1.15-.27,2.61.86,3.28,3.33,1.47,7.11,1.49,10.45.04,3.34-1.5,6.13-4.02,7.96-7.19,1.83-2.92,2.95-6.22,3.28-9.65.31-3.13-.12-6.6-2.31-9.01-3.14-3.16-8.02-3.76-11.84-1.47-2.61,1.64-.2,5.8,2.42,4.14h0Z"/>
      <path class="cls-1" d="M159.32,102.96c2.21,1.1,4.66,1.64,7.13,1.56,1.21,0,2.41-.16,3.59-.46,1.32-.45,2.61-1.01,3.84-1.66,1.14-.67,1.53-2.14.86-3.28-.69-1.11-2.13-1.49-3.28-.86-.53.24-1.04.5-1.56.75l-.38.18c-.58.27.26-.08-.07.03-.21.06-.41.14-.62.2s-.43.11-.64.16c-.11.02-.22.04-.34.06-.07.01-.46.07-.11.02s-.05,0-.12,0c-.12.01-.24.02-.36.03-.27.02-.55.03-.82.03-.49,0-.99-.01-1.48-.05-.12-.01-.24-.02-.37-.04-.41-.04.08-.03.09.02-.23-.06-.47-.1-.71-.12-.48-.09-.96-.22-1.43-.37-.1-.03-.21-.07-.31-.11-.08-.03-.42-.1-.09-.03.31.07.02.01-.07-.04-.11-.06-.23-.11-.34-.17-1.14-.67-2.61-.28-3.28.86-.67,1.14-.28,2.61.86,3.28h0Z"/>
      <path class="cls-1" d="M189.69,118.54c4.83-2.33,9.29-5.36,13.24-8.98,2.09-2.02,4-4.21,5.72-6.55,1.52-1.95,2.88-4.02,4.06-6.2,1.43-2.74-2.71-5.16-4.15-2.42-4.72,9.03-12.37,15.64-21.29,20.01-1.13.68-1.52,2.14-.86,3.28.69,1.12,2.14,1.5,3.28.86h0Z"/>
      <path class="cls-1" d="M129.48,65.85c.79,7.47,1.03,15.01,1.96,22.47.76,6.17,2.24,12.31,5.31,17.76,6.11,10.83,18.59,17.3,30.83,17.47,7.72.1,15.07-1.98,22.11-5,1.14-.67,1.52-2.14.86-3.28-.69-1.12-2.13-1.49-3.28-.86-10.52,4.51-22.85,6.46-33.44,1.08-4.99-2.4-9.23-6.1-12.28-10.72-2.83-4.87-4.62-10.28-5.24-15.88-1.06-7.62-1.23-15.38-2.03-23.04-.04-1.31-1.09-2.36-2.4-2.4-1.32,0-2.39,1.08-2.4,2.4h0Z"/>
      <path class="cls-1" d="M179.1,33.27c-4.07,5-8.78,9.45-14,13.23-6.63,4.42-13.69,8.15-21.07,11.16-3.9,1.66-7.9,3.1-11.9,4.5-1.26.38-2,1.68-1.68,2.95.36,1.27,1.68,2.02,2.96,1.68,7.86-2.7,15.52-5.92,22.95-9.64,6.55-3.17,12.65-7.22,18.13-12.02,2.84-2.65,5.51-5.48,8-8.47.9-.95.9-2.44,0-3.39-.94-.93-2.45-.93-3.39,0h0Z"/>
      <path class="cls-1" d="M179.1,36.66c3.73,4.42,7.19,9.06,10.36,13.9,3.65,5.37,6.87,11.01,9.63,16.89.67,1.14,2.14,1.52,3.28.86,1.12-.69,1.5-2.13.86-3.28-2.82-6-6.11-11.76-9.85-17.23-3.34-5.05-6.97-9.9-10.88-14.53-.94-.93-2.45-.93-3.39,0-.91.95-.91,2.45,0,3.39Z"/>
      <path class="cls-1" d="M141.57,106.03c-4.62-1.56-9.1-4.08-11.98-8.14-3.42-4.82-4.45-10.63-4.14-16.43.32-6.06,1.93-12.08,3.2-18,1.32-6.15,2.69-12.3,4.22-18.4,2.31-9.18,4.97-18.72,11.23-26.04,6.06-7.08,15.56-11.24,24.64-13.15,6.57-1.33,13.32-1.45,19.93-.37,4.88.78,10.24,2.04,14.52,4.58,2.66,1.58,5.08-2.57,2.42-4.14-4.28-2.33-8.93-3.92-13.74-4.72-6.46-1.3-13.08-1.56-19.62-.77-6.08.78-12,2.5-17.55,5.1-4.35,1.92-8.36,4.54-11.88,7.74-7.36,7.07-10.93,16.86-13.55,26.48-1.74,6.39-3.2,12.85-4.6,19.32-1.42,6.51-3.08,13.09-3.82,19.72-.8,7.19.11,14.79,4.18,20.94,3.62,5.45,9.13,8.85,15.24,10.91,2.93.99,4.19-3.64,1.28-4.63h0Z"/>
      <path class="cls-1" d="M211.25,14.74c6.05,4.13,10.72,9.99,13.39,16.82,3.12,7.78,3.5,16.44,5,24.61,1.54,8.43,3.92,16.69,5.38,25.13,1.39,7.71-.89,15.62-6.18,21.39-5.61,6-13.61,7.94-21.6,7.47-3.09-.18-3.07,4.62,0,4.8,8.15.48,16.29-1.41,22.66-6.68,6.64-5.69,10.43-14.03,10.34-22.78-.05-4.31-1.14-8.65-2.07-12.83-.99-4.45-2.08-8.87-3.02-13.33-1.86-8.86-2.32-18.12-5.07-26.77-2.83-8.97-8.62-16.72-16.41-21.98-2.6-1.68-5.01,2.48-2.42,4.15h0Z"/>
      <path class="cls-2" d="M213,94.62c-2.21-.08-4.06,1.64-4.14,3.85,0,.04,0,.08,0,.13.06,2.17,1.88,3.88,4.05,3.81.11,0,.22-.01.33-.02,2.58-.08,4.21-1.74,4.14-4.05-.15-2.2-2.05-3.87-4.26-3.73-.04,0-.08,0-.12.01Z"/>
      <path class="cls-1" d="M213,92.22c-2.84.02-5.35,1.82-6.28,4.5-.38,1.23-.36,2.54.05,3.76.45,1.32,1.33,2.46,2.49,3.24,2.27,1.39,5.11,1.45,7.44.16,2.34-1.38,3.52-4.11,2.93-6.76-.6-3.06-3.65-4.95-6.63-4.9-1.33,0-2.4,1.07-2.4,2.4s1.07,2.4,2.4,2.4c.29,0,.59,0,.88.05l-.64-.08c.22.03.43.08.64.14.09.03.18.06.27.09.41.12-.53-.27-.16-.07.16.09.32.17.48.27.21.14.27.32-.14-.12.06.06.13.12.2.18.1.09.48.55.2.19s-.06-.07,0,.01.11.18.16.27.18.4.01,0-.04-.1,0,0c.06.2.11.41.15.61l-.09-.64c.05.4.05.8,0,1.19l.09-.64c-.03.21-.08.41-.14.61-.02.08-.06.16-.08.24-.09.26.28-.57.1-.25-.12.16-.22.33-.31.51-.02-.06.45-.5.15-.22-.07.07-.14.14-.21.21s-.13.11-.19.17c.47-.46.35-.26.15-.14-.16.1-.33.19-.5.28-.24.13.59-.21.22-.1-.11.03-.21.07-.32.1-.22.06-.45.11-.68.14l.64-.09c-.48.06-.97.07-1.46.01l.64.08c-.23-.03-.45-.07-.67-.13-.09-.02-.18-.05-.26-.08-.43-.13.21.11.22.11-.08.04-.48-.25-.56-.3s-.36-.26,0,0c.36.28.04.03-.03-.04-.2-.19-.47-.67-.07,0-.1-.16-.2-.31-.3-.48-.22-.39.11.24.09.24-.04-.1-.08-.2-.11-.3-.06-.21-.11-.42-.14-.64l.09.64c-.05-.36-.05-.73,0-1.09l-.09.64c.03-.19.07-.38.13-.56.02-.08.06-.16.09-.24-.17.63-.18.41-.07.2.05-.09.1-.18.16-.27s.26-.36,0-.01-.06.08.01,0,.15-.15.22-.23.14-.12.2-.18c.2-.19-.5.34-.18.15.12-.07.45-.35.58-.33-.06-.01-.61.24-.2.09.09-.03.18-.06.28-.09.24-.07.47-.11.72-.15l-.64.09c.17-.02.34-.03.51-.04,1.33,0,2.4-1.07,2.4-2.4s-1.07-2.4-2.4-2.4h-.01Z"/>
      <path class="cls-1" d="M123.3,152.96c.85-2,1.84-3.94,2.99-5.79.88-1.66,1.84-3.27,2.89-4.83,2.19-2.92,4.92-5.39,8.05-7.28,6.82-4.23,14.41-7.18,21.89-10.03,1.25-.38,1.99-1.68,1.68-2.95-.36-1.27-1.68-2.02-2.95-1.68-6.45,2.34-12.75,5.07-18.87,8.15-5.77,3.02-11.2,6.87-14.71,12.49-2.19,3.36-4.06,6.92-5.59,10.63-.34,1.28.41,2.59,1.68,2.95,1.27.32,2.57-.42,2.95-1.68h0Z"/>
      <path class="cls-1" d="M246.48,280.07c7.12-2.49,14.03-5.52,20.69-9.06,7.42-3.99,14.91-8.86,19.25-16.31,3.6-6.18,4.61-13.15,4.68-20.21-.07-3-.36-5.99-.87-8.95-.51-3.62-1.1-7.22-1.73-10.82-1.58-9-3.72-17.84-6.1-26.66-1.67-6.18-3.26-12.38-5.16-18.49-2.16-7.44-5.05-14.65-8.62-21.52-3.72-6.79-8.93-12.64-15.24-17.12-6.43-4.59-13.83-7.65-21.3-10.1-.93-.31-1.87-.6-2.81-.89-.44-.14-.89-.27-1.33-.4l-.77-.23c.23.07.24.14.13.1-.62-.22-1.23-.58-1.83-.87l-6.5-3.09-1.46-.69c-1.15-.63-2.59-.25-3.28.86-.66,1.15-.27,2.61.86,3.28,3.25,1.54,6.47,3.14,9.75,4.63,1.46.57,2.96,1.05,4.48,1.45,1.9.6,3.8,1.24,5.67,1.93,3.51,1.27,6.92,2.8,10.21,4.57,6.45,3.41,12.02,8.26,16.3,14.17,4.16,5.91,6.91,12.76,9.27,19.56,2.14,6.17,3.9,12.47,5.58,18.78,2.12,7.98,4.37,15.93,6.05,24.02,1.48,7.16,2.75,14.44,3.6,21.7.31,2.73.37,5.49.18,8.23-.11,3.14-.63,6.25-1.57,9.25-1.1,3.27-2.81,6.31-5.06,8.93-2.77,3.02-5.97,5.6-9.5,7.69-6.59,4.02-13.54,7.41-20.76,10.12-1.35.52-2.7,1.02-4.06,1.51-1.26.38-1.99,1.68-1.68,2.95.36,1.27,1.68,2.02,2.95,1.68h-.01Z"/>
      <path class="cls-1" d="M165.7,143.26c7.53,1.37,15.24,1.42,22.78.15,7.18-.98,14.14-3.16,20.6-6.45,2.74-1.43.31-5.58-2.42-4.15-5.82,3.02-12.12,5-18.62,5.85-7.08.97-13.99,1.34-21.06-.04-1.27-.32-2.57.42-2.95,1.68-.34,1.28.41,2.59,1.68,2.95h0Z"/>
      <path class="cls-1" d="M155.74,126.42c1.33,12.62,3.66,25.12,6.98,37.37,2.24,8.46,4.77,16.88,7.75,25.1,2.07,5.7,4.55,11.24,7.09,16.74.68,1.14,2.14,1.52,3.28.86,1.12-.69,1.5-2.13.86-3.28-3.74-8.05-6.98-16.33-9.7-24.78-3.26-10.11-5.99-20.39-8.16-30.79-1.47-7.01-2.57-14.1-3.3-21.23-.03-1.31-1.09-2.37-2.4-2.4-1.32,0-2.39,1.08-2.4,2.4h0Z"/>
      <path class="cls-1" d="M223.7,130.11c1.02,1.47,1.91,3.03,2.65,4.66.53.98.91,2.03,1.14,3.12v-1.28c.66-.91.83-1.21.51-.92.38-.28.47-.35.26-.21-.12.06-.24.13-.34.21-.38.23-.78.44-1.17.64-1.07.57-2.16,1.1-3.26,1.64-2.23,1.09-4.48,2.15-6.72,3.23-1.15.69-1.52,2.18-.83,3.33.1.16.21.31.34.44,1.98,2.13,3.98,4.25,5.91,6.42.63.71,1.84,1.66,2.09,2.61.19.71-.32,1.32-.66,1.92-1.83,3.25-3.74,6.45-5.68,9.63-5.03,8.28-10.26,16.44-15.68,24.48-3.08,4.57-6.23,9.1-9.48,13.56-.66,1.15-.27,2.61.86,3.28,1.15.64,2.6.26,3.28-.86,6.15-8.41,11.94-17.09,17.56-25.86,4.71-7.37,9.43-14.78,13.65-22.45.82-1.32,1.14-2.9.9-4.44-.43-1.61-1.3-3.06-2.51-4.2-2.22-2.55-4.54-5.01-6.84-7.49l-.49,3.77c3.67-1.78,7.48-3.38,11.01-5.43.67-.32,1.24-.81,1.66-1.41.44-1.01.41-2.16-.1-3.14-.96-2.73-2.28-5.31-3.93-7.69-.69-1.12-2.13-1.49-3.28-.86-1.14.68-1.52,2.14-.86,3.28h0Z"/>
    </g>
  </g>
</svg>