<?xml version="1.0" encoding="UTF-8"?>
<svg id="_レイヤー_2" data-name="レイヤー_2" xmlns="http://www.w3.org/2000/svg" viewBox="0 0 42.87 57.72">
  <defs>
    <style>
      .cls-1 {
        fill: #c69c6d;
      }

      .cls-2 {
        fill: #009245;
      }

      .cls-3 {
        fill: #736357;
      }

      .cls-4 {
        fill: #f9f09d;
      }
    </style>
  </defs>
  <g id="WSP:トップ">
    <g>
      <g>
        <path class="cls-1" d="M18.33,33.61h.85c10.12,0,18.33,8.21,18.33,18.33h0c0,3.19-2.59,5.78-5.78,5.78H5.78C2.59,57.72,0,55.13,0,51.94H0C0,41.82,8.21,33.61,18.33,33.61Z"/>
        <path class="cls-2" d="M0,47.82h0c0-5.85,4.49-10.25,5.37-11.07,5.12-4.8,11.65-4.64,12.96-4.58h.85c10.12,0,18.33,7.01,18.33,15.65-6.7-4.93-7.98-4.77-10.72-4.93-3.37-.2-3.59,2.7-5.82,3.7-.75.34-1.39.32-2.22.31-.82,0-1.47-.13-2.03-.32-2.37-.81-6.64-3.88-7.35-3.7,0,0-2.68-1.76-9.38,4.93"/>
      </g>
      <rect class="cls-4" x="18.76" y=".67" width="24.12" height="16.08"/>
      <rect class="cls-3" x="17.71" width="2.08" height="32.15"/>
    </g>
  </g>
</svg>